<?xml version="1.0" encoding="utf-8" standalone="no"?>
<!DOCTYPE svg PUBLIC "-//W3C//DTD SVG 1.1//EN"
  "http://www.w3.org/Graphics/SVG/1.1/DTD/svg11.dtd">
<svg xmlns:xlink="http://www.w3.org/1999/xlink" width="711.023796pt" height="69.48pt" viewBox="0 0 711.023796 69.48" xmlns="http://www.w3.org/2000/svg" version="1.1">
 <metadata>
  <rdf:RDF xmlns:dc="http://purl.org/dc/elements/1.1/" xmlns:cc="http://creativecommons.org/ns#" xmlns:rdf="http://www.w3.org/1999/02/22-rdf-syntax-ns#">
   <cc:Work>
    <dc:type rdf:resource="http://purl.org/dc/dcmitype/StillImage"/>
    <dc:date>2026-01-29T15:30:18.427310</dc:date>
    <dc:format>image/svg+xml</dc:format>
    <dc:creator>
     <cc:Agent>
      <dc:title>Matplotlib v3.10.8, https://matplotlib.org/</dc:title>
     </cc:Agent>
    </dc:creator>
   </cc:Work>
  </rdf:RDF>
 </metadata>
 <defs>
  <style type="text/css">*{stroke-linejoin: round; stroke-linecap: butt}</style>
 </defs>
 <g id="figure_1">
  <g id="patch_1">
   <path d="M 0 69.48 
L 711.023796 69.48 
L 711.023796 0 
L 0 0 
L 0 69.48 
z
" style="fill: none"/>
  </g>
  <g id="axes_1">
   <g id="legend_1">
    <g id="patch_2">
     <path d="M 2.093796 60.84 
L 703.823796 60.84 
Q 707.423796 60.84 707.423796 57.24 
L 707.423796 7.2 
Q 707.423796 3.6 703.823796 3.6 
L 2.093796 3.6 
Q -1.506204 3.6 -1.506204 7.2 
L -1.506204 57.24 
Q -1.506204 60.84 2.093796 60.84 
z
" style="fill: #ffffff; opacity: 0.8; stroke: #cccccc; stroke-linejoin: miter"/>
    </g>
    <g id="line2d_1">
     <path d="M 5.693796 18 
L 23.693796 18 
L 41.693796 18 
" style="fill: none; stroke: #ff7f0e; stroke-opacity: 0.8; stroke-width: 2; stroke-linecap: square"/>
     <defs>
      <path id="m612024c8ef" d="M 0 1.5 
C 0.397805 1.5 0.77937 1.341951 1.06066 1.06066 
C 1.341951 0.77937 1.5 0.397805 1.5 0 
C 1.5 -0.397805 1.341951 -0.77937 1.06066 -1.06066 
C 0.77937 -1.341951 0.397805 -1.5 0 -1.5 
C -0.397805 -1.5 -0.77937 -1.341951 -1.06066 -1.06066 
C -1.341951 -0.77937 -1.5 -0.397805 -1.5 0 
C -1.5 0.397805 -1.341951 0.77937 -1.06066 1.06066 
C -0.77937 1.341951 -0.397805 1.5 0 1.5 
z
" style="stroke: #ff7f0e; stroke-opacity: 0.8"/>
     </defs>
     <g>
      <use xlink:href="#m612024c8ef" x="23.693796" y="18" style="fill: #ff7f0e; fill-opacity: 0.8; stroke: #ff7f0e; stroke-opacity: 0.8"/>
     </g>
    </g>
    <g id="text_1">
     <!-- Random Selection -->
     <g transform="translate(56.093796 24.3) scale(0.18 -0.18)">
      <defs>
       <path id="NewCM10-Regular-52" d="M 4685 563 
C 4685 602 4685 672 4602 672 
C 4531 672 4531 614 4525 570 
C 4486 115 4262 0 4102 0 
C 3789 0 3738 326 3648 922 
L 3565 1434 
C 3450 1843 3136 2054 2784 2176 
C 3405 2330 3904 2720 3904 3219 
C 3904 3834 3174 4371 2234 4371 
L 224 4371 
L 224 4173 
L 378 4173 
C 870 4173 883 4102 883 3872 
L 883 499 
C 883 269 870 198 378 198 
L 224 198 
L 224 0 
C 454 19 909 19 1158 19 
C 1408 19 1862 19 2093 0 
L 2093 198 
L 1939 198 
C 1446 198 1434 269 1434 499 
L 1434 2118 
L 2170 2118 
C 2272 2118 2541 2118 2765 1901 
C 3008 1670 3008 1472 3008 1043 
C 3008 627 3008 371 3270 128 
C 3533 -102 3885 -141 4077 -141 
C 4576 -141 4685 384 4685 563 
z
M 3245 3219 
C 3245 2778 3091 2259 2144 2259 
L 1434 2259 
L 1434 3917 
C 1434 4064 1434 4141 1574 4160 
C 1638 4173 1824 4173 1952 4173 
C 2528 4173 3245 4147 3245 3219 
z
" transform="scale(0.015625)"/>
       <path id="NewCM10-Regular-61" d="M 3091 570 
L 3091 928 
L 2931 928 
L 2931 570 
C 2931 198 2771 160 2701 160 
C 2490 160 2464 448 2464 480 
L 2464 1760 
C 2464 2029 2464 2278 2234 2515 
C 1984 2765 1664 2867 1357 2867 
C 832 2867 390 2566 390 2144 
C 390 1952 518 1843 685 1843 
C 864 1843 979 1971 979 2138 
C 979 2214 947 2426 653 2432 
C 826 2656 1139 2726 1344 2726 
C 1658 2726 2022 2477 2022 1907 
L 2022 1670 
C 1696 1651 1248 1632 845 1440 
C 365 1222 205 890 205 608 
C 205 90 826 -70 1229 -70 
C 1651 -70 1946 186 2067 486 
C 2093 230 2266 -38 2566 -38 
C 2701 -38 3091 51 3091 570 
z
M 2022 896 
C 2022 288 1562 70 1274 70 
C 960 70 698 294 698 614 
C 698 966 966 1498 2022 1536 
L 2022 896 
z
" transform="scale(0.015625)"/>
       <path id="NewCM10-Regular-6e" d="M 3424 0 
L 3424 198 
C 3091 198 2931 198 2925 390 
L 2925 1613 
C 2925 2163 2925 2362 2726 2592 
C 2637 2701 2426 2829 2054 2829 
C 1587 2829 1286 2554 1107 2157 
L 1107 2829 
L 205 2758 
L 205 2560 
C 653 2560 704 2515 704 2202 
L 704 486 
C 704 198 634 198 205 198 
L 205 0 
L 928 19 
L 1645 0 
L 1645 198 
C 1216 198 1146 198 1146 486 
L 1146 1664 
C 1146 2330 1600 2688 2010 2688 
C 2413 2688 2483 2342 2483 1978 
L 2483 486 
C 2483 198 2413 198 1984 198 
L 1984 0 
L 2707 19 
L 3424 0 
z
" transform="scale(0.015625)"/>
       <path id="NewCM10-Regular-64" d="M 3373 0 
L 3373 198 
C 2925 198 2874 243 2874 557 
L 2874 4442 
L 1952 4371 
L 1952 4173 
C 2400 4173 2451 4128 2451 3814 
L 2451 2432 
C 2266 2662 1990 2829 1645 2829 
C 890 2829 218 2202 218 1376 
C 218 563 845 -70 1574 -70 
C 1984 -70 2272 147 2432 352 
L 2432 -70 
L 3373 0 
z
M 2432 755 
C 2432 640 2432 627 2362 518 
C 2170 211 1882 70 1606 70 
C 1318 70 1088 237 934 480 
C 768 742 749 1107 749 1370 
C 749 1606 762 1990 947 2278 
C 1082 2477 1325 2688 1670 2688 
C 1894 2688 2163 2592 2362 2304 
C 2432 2195 2432 2182 2432 2067 
L 2432 755 
z
" transform="scale(0.015625)"/>
       <path id="NewCM10-Regular-6f" d="M 3014 1370 
C 3014 2189 2374 2867 1600 2867 
C 800 2867 179 2170 179 1370 
C 179 544 845 -70 1594 -70 
C 2368 -70 3014 557 3014 1370 
z
M 2483 1421 
C 2483 1190 2483 845 2342 563 
C 2202 275 1920 90 1600 90 
C 1325 90 1043 224 870 518 
C 710 800 710 1190 710 1421 
C 710 1670 710 2016 864 2298 
C 1037 2592 1338 2726 1594 2726 
C 1875 2726 2150 2586 2317 2310 
C 2483 2035 2483 1664 2483 1421 
z
" transform="scale(0.015625)"/>
       <path id="NewCM10-Regular-6d" d="M 5203 0 
L 5203 198 
C 4870 198 4710 198 4704 390 
L 4704 1613 
C 4704 2163 4704 2362 4506 2592 
C 4416 2701 4205 2829 3834 2829 
C 3296 2829 3014 2445 2906 2202 
C 2816 2758 2342 2829 2054 2829 
C 1587 2829 1286 2554 1107 2157 
L 1107 2829 
L 205 2758 
L 205 2560 
C 653 2560 704 2515 704 2202 
L 704 486 
C 704 198 634 198 205 198 
L 205 0 
L 928 19 
L 1645 0 
L 1645 198 
C 1216 198 1146 198 1146 486 
L 1146 1664 
C 1146 2330 1600 2688 2010 2688 
C 2413 2688 2483 2342 2483 1978 
L 2483 486 
C 2483 198 2413 198 1984 198 
L 1984 0 
L 2707 19 
L 3424 0 
L 3424 198 
C 2995 198 2925 198 2925 486 
L 2925 1664 
C 2925 2330 3379 2688 3789 2688 
C 4192 2688 4262 2342 4262 1978 
L 4262 486 
C 4262 198 4192 198 3763 198 
L 3763 0 
L 4486 19 
L 5203 0 
z
" transform="scale(0.015625)"/>
       <path id="NewCM10-Regular-20" transform="scale(0.015625)"/>
       <path id="NewCM10-Regular-53" d="M 3194 1190 
C 3194 1830 2771 2355 2234 2483 
L 1414 2682 
C 1018 2778 768 3123 768 3494 
C 768 3942 1114 4333 1613 4333 
C 2682 4333 2822 3283 2861 2995 
C 2867 2957 2867 2918 2938 2918 
C 3021 2918 3021 2950 3021 3072 
L 3021 4358 
C 3021 4467 3021 4512 2950 4512 
C 2906 4512 2899 4506 2854 4429 
L 2630 4064 
C 2438 4250 2176 4512 1606 4512 
C 896 4512 358 3949 358 3270 
C 358 2739 698 2272 1197 2099 
C 1267 2074 1594 1997 2042 1888 
C 2214 1843 2406 1798 2586 1562 
C 2720 1395 2784 1184 2784 973 
C 2784 518 2464 58 1926 58 
C 1741 58 1254 90 915 403 
C 544 749 525 1158 518 1389 
C 512 1453 461 1453 442 1453 
C 358 1453 358 1408 358 1293 
L 358 13 
C 358 -96 358 -141 429 -141 
C 474 -141 480 -128 525 -58 
C 525 -58 544 -32 755 307 
C 954 90 1363 -141 1933 -141 
C 2682 -141 3194 486 3194 1190 
z
" transform="scale(0.015625)"/>
       <path id="NewCM10-Regular-65" d="M 2656 762 
C 2656 826 2605 838 2573 838 
C 2515 838 2502 800 2490 749 
C 2266 90 1690 90 1626 90 
C 1306 90 1050 282 902 518 
C 710 826 710 1248 710 1478 
L 2496 1478 
C 2637 1478 2656 1478 2656 1613 
C 2656 2246 2310 2867 1510 2867 
C 768 2867 179 2208 179 1408 
C 179 550 851 -70 1587 -70 
C 2368 -70 2656 640 2656 762 
z
M 2234 1613 
L 717 1613 
C 755 2566 1293 2726 1510 2726 
C 2170 2726 2234 1862 2234 1613 
z
" transform="scale(0.015625)"/>
       <path id="NewCM10-Regular-6c" d="M 1632 0 
L 1632 198 
C 1203 198 1133 198 1133 486 
L 1133 4442 
L 211 4371 
L 211 4173 
C 659 4173 710 4128 710 3814 
L 710 486 
C 710 198 640 198 211 198 
L 211 0 
L 922 19 
L 1632 0 
z
" transform="scale(0.015625)"/>
       <path id="NewCM10-Regular-63" d="M 2656 762 
C 2656 826 2592 826 2573 826 
C 2515 826 2502 800 2490 762 
C 2304 166 1888 90 1651 90 
C 1312 90 749 365 749 1395 
C 749 2438 1274 2707 1613 2707 
C 1670 2707 2074 2701 2298 2470 
C 2035 2451 1997 2259 1997 2176 
C 1997 2010 2112 1882 2291 1882 
C 2458 1882 2586 1990 2586 2182 
C 2586 2618 2099 2867 1606 2867 
C 806 2867 218 2176 218 1382 
C 218 563 851 -70 1594 -70 
C 2451 -70 2656 698 2656 762 
z
" transform="scale(0.015625)"/>
       <path id="NewCM10-Regular-74" d="M 2125 794 
L 2125 1158 
L 1965 1158 
L 1965 806 
C 1965 333 1773 90 1536 90 
C 1107 90 1107 672 1107 781 
L 1107 2560 
L 2022 2560 
L 2022 2758 
L 1107 2758 
L 1107 3936 
L 947 3936 
C 941 3411 749 2726 122 2701 
L 122 2560 
L 666 2560 
L 666 794 
C 666 6 1261 -70 1491 -70 
C 1946 -70 2125 384 2125 794 
z
" transform="scale(0.015625)"/>
       <path id="NewCM10-Regular-69" d="M 1581 0 
L 1581 198 
C 1158 198 1133 230 1133 480 
L 1133 2829 
L 237 2758 
L 237 2560 
C 653 2560 710 2522 710 2208 
L 710 486 
C 710 198 640 198 211 198 
L 211 0 
L 915 19 
C 1139 19 1363 6 1581 0 
z
M 1229 3866 
C 1229 4038 1082 4205 890 4205 
C 672 4205 544 4026 544 3866 
C 544 3693 691 3526 883 3526 
C 1101 3526 1229 3706 1229 3866 
z
" transform="scale(0.015625)"/>
      </defs>
      <use xlink:href="#NewCM10-Regular-52"/>
      <use xlink:href="#NewCM10-Regular-61" transform="translate(73.599991 0)"/>
      <use xlink:href="#NewCM10-Regular-6e" transform="translate(123.599976 0)"/>
      <use xlink:href="#NewCM10-Regular-64" transform="translate(179.199966 0)"/>
      <use xlink:href="#NewCM10-Regular-6f" transform="translate(234.799957 0)"/>
      <use xlink:href="#NewCM10-Regular-6d" transform="translate(284.799942 0)"/>
      <use xlink:href="#NewCM10-Regular-20" transform="translate(368.09993 0)"/>
      <use xlink:href="#NewCM10-Regular-53" transform="translate(401.399918 0)"/>
      <use xlink:href="#NewCM10-Regular-65" transform="translate(456.999908 0)"/>
      <use xlink:href="#NewCM10-Regular-6c" transform="translate(501.399902 0)"/>
      <use xlink:href="#NewCM10-Regular-65" transform="translate(529.19989 0)"/>
      <use xlink:href="#NewCM10-Regular-63" transform="translate(573.599884 0)"/>
      <use xlink:href="#NewCM10-Regular-74" transform="translate(617.999878 0)"/>
      <use xlink:href="#NewCM10-Regular-69" transform="translate(656.899872 0)"/>
      <use xlink:href="#NewCM10-Regular-6f" transform="translate(684.69986 0)"/>
      <use xlink:href="#NewCM10-Regular-6e" transform="translate(734.699844 0)"/>
     </g>
    </g>
    <g id="line2d_2">
     <path d="M 5.693796 43.183125 
L 23.693796 43.183125 
L 41.693796 43.183125 
" style="fill: none; stroke: #9467bd; stroke-opacity: 0.8; stroke-width: 2; stroke-linecap: square"/>
     <defs>
      <path id="m956271a5af" d="M 0 1.5 
C 0.397805 1.5 0.77937 1.341951 1.06066 1.06066 
C 1.341951 0.77937 1.5 0.397805 1.5 0 
C 1.5 -0.397805 1.341951 -0.77937 1.06066 -1.06066 
C 0.77937 -1.341951 0.397805 -1.5 0 -1.5 
C -0.397805 -1.5 -0.77937 -1.341951 -1.06066 -1.06066 
C -1.341951 -0.77937 -1.5 -0.397805 -1.5 0 
C -1.5 0.397805 -1.341951 0.77937 -1.06066 1.06066 
C -0.77937 1.341951 -0.397805 1.5 0 1.5 
z
" style="stroke: #9467bd; stroke-opacity: 0.8"/>
     </defs>
     <g>
      <use xlink:href="#m956271a5af" x="23.693796" y="43.183125" style="fill: #9467bd; fill-opacity: 0.8; stroke: #9467bd; stroke-opacity: 0.8"/>
     </g>
    </g>
    <g id="text_2">
     <!-- Opacity Ranking -->
     <g transform="translate(56.093796 49.483125) scale(0.18 -0.18)">
      <defs>
       <path id="NewCM10-Regular-4f" d="M 4614 2170 
C 4614 3475 3648 4512 2483 4512 
C 1338 4512 358 3488 358 2170 
C 358 858 1344 -141 2483 -141 
C 3648 -141 4614 877 4614 2170 
z
M 3955 2259 
C 3955 563 3078 26 2490 26 
C 1875 26 1018 589 1018 2259 
C 1018 3917 1952 4352 2483 4352 
C 3040 4352 3955 3898 3955 2259 
z
" transform="scale(0.015625)"/>
       <path id="NewCM10-Regular-70" d="M 3334 1382 
C 3334 2195 2714 2829 1997 2829 
C 1498 2829 1229 2547 1101 2406 
L 1101 2829 
L 179 2758 
L 179 2560 
C 634 2560 678 2522 678 2240 
L 678 -755 
C 678 -1043 608 -1043 179 -1043 
L 179 -1242 
L 896 -1222 
L 1619 -1242 
L 1619 -1043 
C 1190 -1043 1120 -1043 1120 -755 
L 1120 320 
L 1120 378 
C 1152 275 1421 -70 1907 -70 
C 2669 -70 3334 557 3334 1382 
z
M 2803 1382 
C 2803 608 2355 70 1882 70 
C 1626 70 1382 198 1210 461 
C 1120 595 1120 602 1120 730 
L 1120 2157 
C 1306 2483 1619 2669 1946 2669 
C 2413 2669 2803 2106 2803 1382 
z
" transform="scale(0.015625)"/>
       <path id="NewCM10-Regular-79" d="M 3251 2560 
L 3251 2758 
C 3104 2746 2918 2739 2771 2739 
C 2771 2739 2214 2758 2214 2758 
L 2214 2560 
C 2413 2554 2515 2445 2515 2285 
C 2515 2221 2509 2208 2477 2131 
L 1830 557 
L 1120 2278 
C 1094 2342 1082 2368 1082 2394 
C 1082 2560 1318 2560 1440 2560 
L 1440 2758 
L 742 2739 
C 570 2739 314 2746 122 2758 
L 122 2560 
C 429 2560 550 2560 640 2336 
L 1600 0 
L 1440 -378 
C 1299 -730 1120 -1171 710 -1171 
C 678 -1171 531 -1171 410 -1056 
C 608 -1030 659 -890 659 -787 
C 659 -621 538 -518 390 -518 
C 262 -518 122 -602 122 -794 
C 122 -1082 390 -1312 710 -1312 
C 1114 -1312 1376 -947 1530 -582 
L 2656 2150 
C 2822 2554 3149 2560 3251 2560 
z
" transform="scale(0.015625)"/>
       <path id="NewCM10-Regular-6b" d="M 3270 0 
L 3270 198 
C 3034 198 2893 198 2650 538 
L 1837 1683 
C 1830 1696 1798 1734 1798 1754 
C 1798 1779 2253 2163 2317 2214 
C 2720 2541 2989 2554 3123 2560 
L 3123 2758 
C 2938 2739 2854 2739 2675 2739 
C 2445 2739 2048 2752 1958 2758 
L 1958 2560 
C 2080 2554 2144 2483 2144 2400 
C 2144 2272 2054 2195 2003 2150 
L 1101 1370 
L 1101 4442 
L 179 4371 
L 179 4173 
C 627 4173 678 4128 678 3814 
L 678 486 
C 678 198 608 198 179 198 
L 179 0 
L 877 19 
L 1581 0 
L 1581 198 
C 1152 198 1082 198 1082 486 
L 1082 1146 
L 1491 1498 
C 1984 819 2253 461 2253 346 
C 2253 224 2144 198 2022 198 
L 2022 0 
L 2714 19 
C 2899 19 3085 13 3270 0 
z
" transform="scale(0.015625)"/>
       <path id="NewCM10-Regular-67" d="M 3104 2586 
C 3104 2694 3027 2899 2778 2899 
C 2650 2899 2368 2861 2099 2598 
C 1830 2810 1562 2829 1421 2829 
C 826 2829 384 2387 384 1894 
C 384 1613 525 1370 685 1235 
C 602 1139 486 928 486 704 
C 486 506 570 262 768 134 
C 384 26 179 -250 179 -506 
C 179 -966 813 -1318 1594 -1318 
C 2349 -1318 3014 -992 3014 -493 
C 3014 -269 2925 58 2598 237 
C 2259 416 1888 416 1498 416 
C 1338 416 1062 416 1018 422 
C 813 448 678 646 678 851 
C 678 877 678 1024 787 1152 
C 1037 973 1299 954 1421 954 
C 2016 954 2458 1395 2458 1888 
C 2458 2125 2355 2362 2195 2509 
C 2426 2726 2656 2758 2771 2758 
C 2771 2758 2816 2758 2835 2752 
C 2765 2726 2733 2656 2733 2579 
C 2733 2470 2816 2394 2918 2394 
C 2982 2394 3104 2438 3104 2586 
z
M 1978 1894 
C 1978 1722 1971 1517 1875 1357 
C 1824 1280 1677 1101 1421 1101 
C 864 1101 864 1741 864 1888 
C 864 2061 870 2266 966 2426 
C 1018 2502 1165 2682 1421 2682 
C 1978 2682 1978 2042 1978 1894 
z
M 2682 -506 
C 2682 -851 2227 -1171 1600 -1171 
C 954 -1171 512 -845 512 -506 
C 512 -211 755 26 1037 45 
L 1414 45 
C 1965 45 2682 45 2682 -506 
z
" transform="scale(0.015625)"/>
      </defs>
      <use xlink:href="#NewCM10-Regular-4f"/>
      <use xlink:href="#NewCM10-Regular-70" transform="translate(77.799988 0)"/>
      <use xlink:href="#NewCM10-Regular-61" transform="translate(133.399979 0)"/>
      <use xlink:href="#NewCM10-Regular-63" transform="translate(183.399963 0)"/>
      <use xlink:href="#NewCM10-Regular-69" transform="translate(227.799957 0)"/>
      <use xlink:href="#NewCM10-Regular-74" transform="translate(255.599945 0)"/>
      <use xlink:href="#NewCM10-Regular-79" transform="translate(294.499939 0)"/>
      <use xlink:href="#NewCM10-Regular-20" transform="translate(347.299927 0)"/>
      <use xlink:href="#NewCM10-Regular-52" transform="translate(380.599915 0)"/>
      <use xlink:href="#NewCM10-Regular-61" transform="translate(454.199905 0)"/>
      <use xlink:href="#NewCM10-Regular-6e" transform="translate(504.19989 0)"/>
      <use xlink:href="#NewCM10-Regular-6b" transform="translate(559.799881 0)"/>
      <use xlink:href="#NewCM10-Regular-69" transform="translate(612.599869 0)"/>
      <use xlink:href="#NewCM10-Regular-6e" transform="translate(640.399857 0)"/>
      <use xlink:href="#NewCM10-Regular-67" transform="translate(695.999847 0)"/>
     </g>
    </g>
    <g id="line2d_3">
     <path d="M 234.344421 18 
L 252.344421 18 
L 270.344421 18 
" style="fill: none; stroke: #2ca02c; stroke-opacity: 0.8; stroke-width: 2; stroke-linecap: square"/>
     <defs>
      <path id="m5af158dd25" d="M 0 1.5 
C 0.397805 1.5 0.77937 1.341951 1.06066 1.06066 
C 1.341951 0.77937 1.5 0.397805 1.5 0 
C 1.5 -0.397805 1.341951 -0.77937 1.06066 -1.06066 
C 0.77937 -1.341951 0.397805 -1.5 0 -1.5 
C -0.397805 -1.5 -0.77937 -1.341951 -1.06066 -1.06066 
C -1.341951 -0.77937 -1.5 -0.397805 -1.5 0 
C -1.5 0.397805 -1.341951 0.77937 -1.06066 1.06066 
C -0.77937 1.341951 -0.397805 1.5 0 1.5 
z
" style="stroke: #2ca02c; stroke-opacity: 0.8"/>
     </defs>
     <g>
      <use xlink:href="#m5af158dd25" x="252.344421" y="18" style="fill: #2ca02c; fill-opacity: 0.8; stroke: #2ca02c; stroke-opacity: 0.8"/>
     </g>
    </g>
    <g id="text_3">
     <!-- Scale Ranking$\nearrow$ -->
     <g transform="translate(284.744421 24.3) scale(0.18 -0.18)">
      <defs>
       <path id="DejaVuSans-2197" d="M 4300 3759 
L 4497 3563 
L 4497 1825 
L 3969 1825 
L 3969 2856 
L 1275 163 
L 900 538 
L 3594 3231 
L 2563 3231 
L 2563 3759 
L 4300 3759 
z
" transform="scale(0.015625)"/>
      </defs>
      <use xlink:href="#NewCM10-Regular-53" transform="translate(0 0.5)"/>
      <use xlink:href="#NewCM10-Regular-63" transform="translate(55.599991 0.5)"/>
      <use xlink:href="#NewCM10-Regular-61" transform="translate(99.999985 0.5)"/>
      <use xlink:href="#NewCM10-Regular-6c" transform="translate(149.999969 0.5)"/>
      <use xlink:href="#NewCM10-Regular-65" transform="translate(177.799957 0.5)"/>
      <use xlink:href="#NewCM10-Regular-20" transform="translate(222.199951 0.5)"/>
      <use xlink:href="#NewCM10-Regular-52" transform="translate(255.499939 0.5)"/>
      <use xlink:href="#NewCM10-Regular-61" transform="translate(329.09993 0.5)"/>
      <use xlink:href="#NewCM10-Regular-6e" transform="translate(379.099915 0.5)"/>
      <use xlink:href="#NewCM10-Regular-6b" transform="translate(434.699905 0.5)"/>
      <use xlink:href="#NewCM10-Regular-69" transform="translate(487.499893 0.5)"/>
      <use xlink:href="#NewCM10-Regular-6e" transform="translate(515.299881 0.5)"/>
      <use xlink:href="#NewCM10-Regular-67" transform="translate(570.899872 0.5)"/>
      <use xlink:href="#DejaVuSans-2197" transform="translate(640.382278 0.5)"/>
     </g>
    </g>
    <g id="line2d_4">
     <path d="M 234.344421 43.56 
L 252.344421 43.56 
L 270.344421 43.56 
" style="fill: none; stroke: #00ff00; stroke-opacity: 0.8; stroke-width: 2; stroke-linecap: square"/>
     <defs>
      <path id="mfdf8a56d80" d="M 0 1.5 
C 0.397805 1.5 0.77937 1.341951 1.06066 1.06066 
C 1.341951 0.77937 1.5 0.397805 1.5 0 
C 1.5 -0.397805 1.341951 -0.77937 1.06066 -1.06066 
C 0.77937 -1.341951 0.397805 -1.5 0 -1.5 
C -0.397805 -1.5 -0.77937 -1.341951 -1.06066 -1.06066 
C -1.341951 -0.77937 -1.5 -0.397805 -1.5 0 
C -1.5 0.397805 -1.341951 0.77937 -1.06066 1.06066 
C -0.77937 1.341951 -0.397805 1.5 0 1.5 
z
" style="stroke: #00ff00; stroke-opacity: 0.8"/>
     </defs>
     <g>
      <use xlink:href="#mfdf8a56d80" x="252.344421" y="43.56" style="fill: #00ff00; fill-opacity: 0.8; stroke: #00ff00; stroke-opacity: 0.8"/>
     </g>
    </g>
    <g id="text_4">
     <!-- Scale Ranking$\searrow$ -->
     <g transform="translate(284.744421 49.86) scale(0.18 -0.18)">
      <defs>
       <path id="DejaVuSans-2198" d="M 4497 359 
L 4300 163 
L 2563 163 
L 2563 691 
L 3594 691 
L 900 3384 
L 1275 3759 
L 3969 1066 
L 3969 2097 
L 4497 2097 
L 4497 359 
z
" transform="scale(0.015625)"/>
      </defs>
      <use xlink:href="#NewCM10-Regular-53" transform="translate(0 0.5)"/>
      <use xlink:href="#NewCM10-Regular-63" transform="translate(55.599991 0.5)"/>
      <use xlink:href="#NewCM10-Regular-61" transform="translate(99.999985 0.5)"/>
      <use xlink:href="#NewCM10-Regular-6c" transform="translate(149.999969 0.5)"/>
      <use xlink:href="#NewCM10-Regular-65" transform="translate(177.799957 0.5)"/>
      <use xlink:href="#NewCM10-Regular-20" transform="translate(222.199951 0.5)"/>
      <use xlink:href="#NewCM10-Regular-52" transform="translate(255.499939 0.5)"/>
      <use xlink:href="#NewCM10-Regular-61" transform="translate(329.09993 0.5)"/>
      <use xlink:href="#NewCM10-Regular-6e" transform="translate(379.099915 0.5)"/>
      <use xlink:href="#NewCM10-Regular-6b" transform="translate(434.699905 0.5)"/>
      <use xlink:href="#NewCM10-Regular-69" transform="translate(487.499893 0.5)"/>
      <use xlink:href="#NewCM10-Regular-6e" transform="translate(515.299881 0.5)"/>
      <use xlink:href="#NewCM10-Regular-67" transform="translate(570.899872 0.5)"/>
      <use xlink:href="#DejaVuSans-2198" transform="translate(640.382278 0.5)"/>
     </g>
    </g>
    <g id="line2d_5">
     <path d="M 454.664421 18 
L 472.664421 18 
L 490.664421 18 
" style="fill: none; stroke: #1f77b4; stroke-width: 2; stroke-linecap: square"/>
     <defs>
      <path id="m7d63f733d1" d="M 0 1.5 
C 0.397805 1.5 0.77937 1.341951 1.06066 1.06066 
C 1.341951 0.77937 1.5 0.397805 1.5 0 
C 1.5 -0.397805 1.341951 -0.77937 1.06066 -1.06066 
C 0.77937 -1.341951 0.397805 -1.5 0 -1.5 
C -0.397805 -1.5 -0.77937 -1.341951 -1.06066 -1.06066 
C -1.341951 -0.77937 -1.5 -0.397805 -1.5 0 
C -1.5 0.397805 -1.341951 0.77937 -1.06066 1.06066 
C -0.77937 1.341951 -0.397805 1.5 0 1.5 
z
" style="stroke: #1f77b4"/>
     </defs>
     <g>
      <use xlink:href="#m7d63f733d1" x="472.664421" y="18" style="fill: #1f77b4; stroke: #1f77b4"/>
     </g>
    </g>
    <g id="text_5">
     <!-- Feature Gradient (Ours) -->
     <g transform="translate(505.064421 24.3) scale(0.18 -0.18)">
      <defs>
       <path id="NewCM10-Regular-46" d="M 3904 2912 
L 3725 4352 
L 211 4352 
L 211 4154 
L 365 4154 
C 858 4154 870 4083 870 3853 
L 870 499 
C 870 269 858 198 365 198 
L 211 198 
L 211 0 
C 435 19 934 19 1184 19 
C 1446 19 2029 19 2259 0 
L 2259 198 
L 2048 198 
C 1440 198 1440 282 1440 506 
L 1440 2080 
L 1990 2080 
C 2605 2080 2669 1875 2669 1331 
L 2829 1331 
L 2829 3027 
L 2669 3027 
C 2669 2490 2605 2278 1990 2278 
L 1440 2278 
L 1440 3898 
C 1440 4109 1453 4154 1754 4154 
L 2522 4154 
C 3482 4154 3642 3795 3744 2912 
L 3904 2912 
z
" transform="scale(0.015625)"/>
       <path id="NewCM10-Regular-75" d="M 3424 0 
L 3424 198 
C 2976 198 2925 243 2925 557 
L 2925 2829 
L 1984 2758 
L 1984 2560 
C 2432 2560 2483 2515 2483 2202 
L 2483 1062 
C 2483 506 2176 70 1709 70 
C 1171 70 1146 371 1146 704 
L 1146 2829 
L 205 2758 
L 205 2560 
C 704 2560 704 2541 704 1971 
L 704 1011 
C 704 512 704 -70 1677 -70 
C 2035 -70 2317 109 2502 506 
L 2502 -70 
L 3424 0 
z
" transform="scale(0.015625)"/>
       <path id="NewCM10-Regular-72" d="M 2330 2438 
C 2330 2643 2131 2829 1856 2829 
C 1389 2829 1158 2400 1069 2125 
L 1069 2829 
L 179 2758 
L 179 2560 
C 627 2560 678 2515 678 2202 
L 678 486 
C 678 198 608 198 179 198 
L 179 0 
L 909 19 
C 1165 19 1466 19 1722 0 
L 1722 198 
L 1587 198 
C 1114 198 1101 269 1101 499 
L 1101 1485 
C 1101 2118 1370 2688 1856 2688 
C 1901 2688 1914 2688 1926 2682 
C 1907 2675 1779 2598 1779 2432 
C 1779 2253 1914 2157 2054 2157 
C 2170 2157 2330 2234 2330 2438 
z
" transform="scale(0.015625)"/>
       <path id="NewCM10-Regular-47" d="M 4704 1549 
L 4704 1747 
L 3923 1728 
C 3667 1728 3123 1728 2893 1747 
L 2893 1549 
L 3098 1549 
C 3674 1549 3693 1478 3693 1242 
L 3693 832 
C 3693 115 2880 58 2701 58 
C 2285 58 1018 282 1018 2189 
C 1018 4102 2278 4314 2662 4314 
C 3347 4314 3930 3738 4058 2797 
C 4070 2707 4070 2688 4160 2688 
C 4262 2688 4262 2707 4262 2842 
L 4262 4358 
C 4262 4467 4262 4512 4192 4512 
C 4166 4512 4141 4512 4090 4435 
L 3770 3962 
C 3565 4166 3219 4512 2586 4512 
C 1395 4512 358 3501 358 2189 
C 358 877 1382 -141 2598 -141 
C 3066 -141 3578 26 3795 403 
C 3878 262 4134 6 4205 6 
C 4262 6 4262 58 4262 154 
L 4262 1267 
C 4262 1517 4288 1549 4704 1549 
z
" transform="scale(0.015625)"/>
       <path id="NewCM10-Regular-28" d="M 2118 -1536 
C 2118 -1517 2118 -1504 2010 -1395 
C 1210 -589 1005 621 1005 1600 
C 1005 2714 1248 3827 2035 4627 
C 2118 4704 2118 4717 2118 4736 
C 2118 4781 2093 4800 2054 4800 
C 1990 4800 1414 4365 1037 3552 
C 710 2848 634 2138 634 1600 
C 634 1101 704 326 1056 -397 
C 1440 -1184 1990 -1600 2054 -1600 
C 2093 -1600 2118 -1581 2118 -1536 
z
" transform="scale(0.015625)"/>
       <path id="NewCM10-Regular-73" d="M 2304 819 
C 2304 1158 2112 1350 2035 1427 
C 1824 1632 1574 1683 1306 1734 
C 947 1805 518 1888 518 2259 
C 518 2483 685 2746 1235 2746 
C 1939 2746 1971 2170 1984 1971 
C 1990 1914 2061 1914 2061 1914 
C 2144 1914 2144 1946 2144 2067 
L 2144 2714 
C 2144 2822 2144 2867 2074 2867 
C 2042 2867 2029 2867 1946 2790 
C 1926 2765 1862 2707 1837 2688 
C 1594 2867 1331 2867 1235 2867 
C 454 2867 211 2438 211 2080 
C 211 1856 314 1677 486 1536 
C 691 1370 870 1331 1331 1242 
C 1472 1216 1997 1114 1997 653 
C 1997 326 1773 70 1274 70 
C 736 70 506 435 384 979 
C 365 1062 358 1088 294 1088 
C 211 1088 211 1043 211 928 
L 211 83 
C 211 -26 211 -70 282 -70 
C 314 -70 320 -64 442 58 
C 454 70 454 83 570 205 
C 851 -64 1139 -70 1274 -70 
C 2010 -70 2304 358 2304 819 
z
" transform="scale(0.015625)"/>
       <path id="NewCM10-Regular-29" d="M 1850 1600 
C 1850 2099 1779 2874 1427 3597 
C 1043 4384 493 4800 429 4800 
C 390 4800 365 4774 365 4736 
C 365 4717 365 4704 486 4589 
C 1114 3955 1478 2938 1478 1600 
C 1478 506 1242 -621 448 -1427 
C 365 -1504 365 -1517 365 -1536 
C 365 -1574 390 -1600 429 -1600 
C 493 -1600 1069 -1165 1446 -352 
C 1773 352 1850 1062 1850 1600 
z
" transform="scale(0.015625)"/>
      </defs>
      <use xlink:href="#NewCM10-Regular-46"/>
      <use xlink:href="#NewCM10-Regular-65" transform="translate(65.299988 0)"/>
      <use xlink:href="#NewCM10-Regular-61" transform="translate(109.699982 0)"/>
      <use xlink:href="#NewCM10-Regular-74" transform="translate(159.699966 0)"/>
      <use xlink:href="#NewCM10-Regular-75" transform="translate(198.59996 0)"/>
      <use xlink:href="#NewCM10-Regular-72" transform="translate(254.199951 0)"/>
      <use xlink:href="#NewCM10-Regular-65" transform="translate(293.399948 0)"/>
      <use xlink:href="#NewCM10-Regular-20" transform="translate(337.799942 0)"/>
      <use xlink:href="#NewCM10-Regular-47" transform="translate(371.09993 0)"/>
      <use xlink:href="#NewCM10-Regular-72" transform="translate(449.599915 0)"/>
      <use xlink:href="#NewCM10-Regular-61" transform="translate(488.799911 0)"/>
      <use xlink:href="#NewCM10-Regular-64" transform="translate(538.799896 0)"/>
      <use xlink:href="#NewCM10-Regular-69" transform="translate(594.399887 0)"/>
      <use xlink:href="#NewCM10-Regular-65" transform="translate(622.199875 0)"/>
      <use xlink:href="#NewCM10-Regular-6e" transform="translate(666.599869 0)"/>
      <use xlink:href="#NewCM10-Regular-74" transform="translate(722.19986 0)"/>
      <use xlink:href="#NewCM10-Regular-20" transform="translate(761.099854 0)"/>
      <use xlink:href="#NewCM10-Regular-28" transform="translate(794.399841 0)"/>
      <use xlink:href="#NewCM10-Regular-4f" transform="translate(833.299835 0)"/>
      <use xlink:href="#NewCM10-Regular-75" transform="translate(911.099823 0)"/>
      <use xlink:href="#NewCM10-Regular-72" transform="translate(966.699814 0)"/>
      <use xlink:href="#NewCM10-Regular-73" transform="translate(1005.899811 0)"/>
      <use xlink:href="#NewCM10-Regular-29" transform="translate(1045.299805 0)"/>
     </g>
    </g>
   </g>
  </g>
 </g>
</svg>
