<?xml version="1.0" encoding="utf-8" standalone="no"?>
<!DOCTYPE svg PUBLIC "-//W3C//DTD SVG 1.1//EN"
  "http://www.w3.org/Graphics/SVG/1.1/DTD/svg11.dtd">
<svg xmlns:xlink="http://www.w3.org/1999/xlink" width="475.98pt" height="331.9325pt" viewBox="0 0 475.98 331.9325" xmlns="http://www.w3.org/2000/svg" version="1.1">
 <metadata>
  <rdf:RDF xmlns:dc="http://purl.org/dc/elements/1.1/" xmlns:cc="http://creativecommons.org/ns#" xmlns:rdf="http://www.w3.org/1999/02/22-rdf-syntax-ns#">
   <cc:Work>
    <dc:type rdf:resource="http://purl.org/dc/dcmitype/StillImage"/>
    <dc:date>2026-01-29T14:46:27.152920</dc:date>
    <dc:format>image/svg+xml</dc:format>
    <dc:creator>
     <cc:Agent>
      <dc:title>Matplotlib v3.10.8, https://matplotlib.org/</dc:title>
     </cc:Agent>
    </dc:creator>
   </cc:Work>
  </rdf:RDF>
 </metadata>
 <defs>
  <style type="text/css">*{stroke-linejoin: round; stroke-linecap: butt}</style>
 </defs>
 <g id="figure_1">
  <g id="patch_1">
   <path d="M 0 331.9325 
L 475.98 331.9325 
L 475.98 0 
L 0 0 
L 0 331.9325 
z
" style="fill: none"/>
  </g>
  <g id="axes_1">
   <g id="patch_2">
    <path d="M 53 280.6 
L 468.78 280.6 
L 468.78 7.2 
L 53 7.2 
L 53 280.6 
z
" style="fill: none"/>
   </g>
   <g id="matplotlib.axis_1">
    <g id="xtick_1">
     <g id="line2d_1">
      <path d="M 81.438257 280.6 
L 81.438257 7.2 
" clip-path="url(#p2a3e5eaabf)" style="fill: none; stroke: #b0b0b0; stroke-opacity: 0.4; stroke-width: 0.8; stroke-linecap: square"/>
     </g>
     <g id="line2d_2">
      <defs>
       <path id="mc3d30476e6" d="M 0 0 
L 0 3.5 
" style="stroke: #000000; stroke-width: 0.8"/>
      </defs>
      <g>
       <use xlink:href="#mc3d30476e6" x="81.438257" y="280.6" style="stroke: #000000; stroke-width: 0.8"/>
      </g>
     </g>
     <g id="text_1">
      <!-- 4 -->
      <g transform="translate(77.438257 298.71) scale(0.16 -0.16)">
       <defs>
        <path id="TimesNewRomanPSMT-34" d="M 2978 1563 
L 2978 1119 
L 2409 1119 
L 2409 0 
L 1894 0 
L 1894 1119 
L 100 1119 
L 100 1519 
L 2066 4325 
L 2409 4325 
L 2409 1563 
L 2978 1563 
z
M 1894 1563 
L 1894 3666 
L 406 1563 
L 1894 1563 
z
" transform="scale(0.015625)"/>
       </defs>
       <use xlink:href="#TimesNewRomanPSMT-34"/>
      </g>
     </g>
    </g>
    <g id="xtick_2">
     <g id="line2d_3">
      <path d="M 138.368075 280.6 
L 138.368075 7.2 
" clip-path="url(#p2a3e5eaabf)" style="fill: none; stroke: #b0b0b0; stroke-opacity: 0.4; stroke-width: 0.8; stroke-linecap: square"/>
     </g>
     <g id="line2d_4">
      <g>
       <use xlink:href="#mc3d30476e6" x="138.368075" y="280.6" style="stroke: #000000; stroke-width: 0.8"/>
      </g>
     </g>
     <g id="text_2">
      <!-- 6 -->
      <g transform="translate(134.368075 298.71) scale(0.16 -0.16)">
       <defs>
        <path id="TimesNewRomanPSMT-36" d="M 2869 4325 
L 2869 4209 
Q 2456 4169 2195 4045 
Q 1934 3922 1679 3669 
Q 1425 3416 1258 3105 
Q 1091 2794 978 2366 
Q 1428 2675 1881 2675 
Q 2316 2675 2634 2325 
Q 2953 1975 2953 1425 
Q 2953 894 2631 456 
Q 2244 -75 1606 -75 
Q 1172 -75 869 213 
Q 275 772 275 1663 
Q 275 2231 503 2743 
Q 731 3256 1154 3653 
Q 1578 4050 1965 4187 
Q 2353 4325 2688 4325 
L 2869 4325 
z
M 925 2138 
Q 869 1716 869 1456 
Q 869 1156 980 804 
Q 1091 453 1309 247 
Q 1469 100 1697 100 
Q 1969 100 2183 356 
Q 2397 613 2397 1088 
Q 2397 1622 2184 2012 
Q 1972 2403 1581 2403 
Q 1463 2403 1327 2353 
Q 1191 2303 925 2138 
z
" transform="scale(0.015625)"/>
       </defs>
       <use xlink:href="#TimesNewRomanPSMT-36"/>
      </g>
     </g>
    </g>
    <g id="xtick_3">
     <g id="line2d_5">
      <path d="M 195.297894 280.6 
L 195.297894 7.2 
" clip-path="url(#p2a3e5eaabf)" style="fill: none; stroke: #b0b0b0; stroke-opacity: 0.4; stroke-width: 0.8; stroke-linecap: square"/>
     </g>
     <g id="line2d_6">
      <g>
       <use xlink:href="#mc3d30476e6" x="195.297894" y="280.6" style="stroke: #000000; stroke-width: 0.8"/>
      </g>
     </g>
     <g id="text_3">
      <!-- 8 -->
      <g transform="translate(191.297894 298.71) scale(0.16 -0.16)">
       <defs>
        <path id="TimesNewRomanPSMT-38" d="M 1228 2134 
Q 725 2547 579 2797 
Q 434 3047 434 3316 
Q 434 3728 753 4026 
Q 1072 4325 1600 4325 
Q 2113 4325 2425 4047 
Q 2738 3769 2738 3413 
Q 2738 3175 2569 2928 
Q 2400 2681 1866 2347 
Q 2416 1922 2594 1678 
Q 2831 1359 2831 1006 
Q 2831 559 2490 242 
Q 2150 -75 1597 -75 
Q 994 -75 656 303 
Q 388 606 388 966 
Q 388 1247 577 1523 
Q 766 1800 1228 2134 
z
M 1719 2469 
Q 2094 2806 2194 3001 
Q 2294 3197 2294 3444 
Q 2294 3772 2109 3958 
Q 1925 4144 1606 4144 
Q 1288 4144 1088 3959 
Q 888 3775 888 3528 
Q 888 3366 970 3203 
Q 1053 3041 1206 2894 
L 1719 2469 
z
M 1375 2016 
Q 1116 1797 991 1539 
Q 866 1281 866 981 
Q 866 578 1086 336 
Q 1306 94 1647 94 
Q 1984 94 2187 284 
Q 2391 475 2391 747 
Q 2391 972 2272 1150 
Q 2050 1481 1375 2016 
z
" transform="scale(0.015625)"/>
       </defs>
       <use xlink:href="#TimesNewRomanPSMT-38"/>
      </g>
     </g>
    </g>
    <g id="xtick_4">
     <g id="line2d_7">
      <path d="M 252.227712 280.6 
L 252.227712 7.2 
" clip-path="url(#p2a3e5eaabf)" style="fill: none; stroke: #b0b0b0; stroke-opacity: 0.4; stroke-width: 0.8; stroke-linecap: square"/>
     </g>
     <g id="line2d_8">
      <g>
       <use xlink:href="#mc3d30476e6" x="252.227712" y="280.6" style="stroke: #000000; stroke-width: 0.8"/>
      </g>
     </g>
     <g id="text_4">
      <!-- 10 -->
      <g transform="translate(244.227712 298.71) scale(0.16 -0.16)">
       <defs>
        <path id="TimesNewRomanPSMT-31" d="M 750 3822 
L 1781 4325 
L 1884 4325 
L 1884 747 
Q 1884 391 1914 303 
Q 1944 216 2037 169 
Q 2131 122 2419 116 
L 2419 0 
L 825 0 
L 825 116 
Q 1125 122 1212 167 
Q 1300 213 1334 289 
Q 1369 366 1369 747 
L 1369 3034 
Q 1369 3497 1338 3628 
Q 1316 3728 1258 3775 
Q 1200 3822 1119 3822 
Q 1003 3822 797 3725 
L 750 3822 
z
" transform="scale(0.015625)"/>
        <path id="TimesNewRomanPSMT-30" d="M 231 2094 
Q 231 2819 450 3342 
Q 669 3866 1031 4122 
Q 1313 4325 1613 4325 
Q 2100 4325 2488 3828 
Q 2972 3213 2972 2159 
Q 2972 1422 2759 906 
Q 2547 391 2217 158 
Q 1888 -75 1581 -75 
Q 975 -75 572 641 
Q 231 1244 231 2094 
z
M 844 2016 
Q 844 1141 1059 588 
Q 1238 122 1591 122 
Q 1759 122 1940 273 
Q 2122 425 2216 781 
Q 2359 1319 2359 2297 
Q 2359 3022 2209 3506 
Q 2097 3866 1919 4016 
Q 1791 4119 1609 4119 
Q 1397 4119 1231 3928 
Q 1006 3669 925 3112 
Q 844 2556 844 2016 
z
" transform="scale(0.015625)"/>
       </defs>
       <use xlink:href="#TimesNewRomanPSMT-31"/>
       <use xlink:href="#TimesNewRomanPSMT-30" transform="translate(50 0)"/>
      </g>
     </g>
    </g>
    <g id="xtick_5">
     <g id="line2d_9">
      <path d="M 309.157531 280.6 
L 309.157531 7.2 
" clip-path="url(#p2a3e5eaabf)" style="fill: none; stroke: #b0b0b0; stroke-opacity: 0.4; stroke-width: 0.8; stroke-linecap: square"/>
     </g>
     <g id="line2d_10">
      <g>
       <use xlink:href="#mc3d30476e6" x="309.157531" y="280.6" style="stroke: #000000; stroke-width: 0.8"/>
      </g>
     </g>
     <g id="text_5">
      <!-- 12 -->
      <g transform="translate(301.157531 298.71) scale(0.16 -0.16)">
       <defs>
        <path id="TimesNewRomanPSMT-32" d="M 2934 816 
L 2638 0 
L 138 0 
L 138 116 
Q 1241 1122 1691 1759 
Q 2141 2397 2141 2925 
Q 2141 3328 1894 3587 
Q 1647 3847 1303 3847 
Q 991 3847 742 3664 
Q 494 3481 375 3128 
L 259 3128 
Q 338 3706 661 4015 
Q 984 4325 1469 4325 
Q 1984 4325 2329 3994 
Q 2675 3663 2675 3213 
Q 2675 2891 2525 2569 
Q 2294 2063 1775 1497 
Q 997 647 803 472 
L 1909 472 
Q 2247 472 2383 497 
Q 2519 522 2628 598 
Q 2738 675 2819 816 
L 2934 816 
z
" transform="scale(0.015625)"/>
       </defs>
       <use xlink:href="#TimesNewRomanPSMT-31"/>
       <use xlink:href="#TimesNewRomanPSMT-32" transform="translate(50 0)"/>
      </g>
     </g>
    </g>
    <g id="xtick_6">
     <g id="line2d_11">
      <path d="M 366.087349 280.6 
L 366.087349 7.2 
" clip-path="url(#p2a3e5eaabf)" style="fill: none; stroke: #b0b0b0; stroke-opacity: 0.4; stroke-width: 0.8; stroke-linecap: square"/>
     </g>
     <g id="line2d_12">
      <g>
       <use xlink:href="#mc3d30476e6" x="366.087349" y="280.6" style="stroke: #000000; stroke-width: 0.8"/>
      </g>
     </g>
     <g id="text_6">
      <!-- 14 -->
      <g transform="translate(358.087349 298.71) scale(0.16 -0.16)">
       <use xlink:href="#TimesNewRomanPSMT-31"/>
       <use xlink:href="#TimesNewRomanPSMT-34" transform="translate(50 0)"/>
      </g>
     </g>
    </g>
    <g id="xtick_7">
     <g id="line2d_13">
      <path d="M 423.017167 280.6 
L 423.017167 7.2 
" clip-path="url(#p2a3e5eaabf)" style="fill: none; stroke: #b0b0b0; stroke-opacity: 0.4; stroke-width: 0.8; stroke-linecap: square"/>
     </g>
     <g id="line2d_14">
      <g>
       <use xlink:href="#mc3d30476e6" x="423.017167" y="280.6" style="stroke: #000000; stroke-width: 0.8"/>
      </g>
     </g>
     <g id="text_7">
      <!-- 16 -->
      <g transform="translate(415.017167 298.71) scale(0.16 -0.16)">
       <use xlink:href="#TimesNewRomanPSMT-31"/>
       <use xlink:href="#TimesNewRomanPSMT-36" transform="translate(50 0)"/>
      </g>
     </g>
    </g>
    <g id="text_8">
     <!-- Size [MB]$\downarrow$ -->
     <g transform="translate(206.59 320.454375) scale(0.2 -0.2)">
      <defs>
       <path id="TimesNewRomanPSMT-53" d="M 2934 4334 
L 2934 2869 
L 2819 2869 
Q 2763 3291 2617 3541 
Q 2472 3791 2203 3937 
Q 1934 4084 1647 4084 
Q 1322 4084 1109 3886 
Q 897 3688 897 3434 
Q 897 3241 1031 3081 
Q 1225 2847 1953 2456 
Q 2547 2138 2764 1967 
Q 2981 1797 3098 1565 
Q 3216 1334 3216 1081 
Q 3216 600 2842 251 
Q 2469 -97 1881 -97 
Q 1697 -97 1534 -69 
Q 1438 -53 1133 45 
Q 828 144 747 144 
Q 669 144 623 97 
Q 578 50 556 -97 
L 441 -97 
L 441 1356 
L 556 1356 
Q 638 900 775 673 
Q 913 447 1195 297 
Q 1478 147 1816 147 
Q 2206 147 2432 353 
Q 2659 559 2659 841 
Q 2659 997 2573 1156 
Q 2488 1316 2306 1453 
Q 2184 1547 1640 1851 
Q 1097 2156 867 2337 
Q 638 2519 519 2737 
Q 400 2956 400 3219 
Q 400 3675 750 4004 
Q 1100 4334 1641 4334 
Q 1978 4334 2356 4169 
Q 2531 4091 2603 4091 
Q 2684 4091 2736 4139 
Q 2788 4188 2819 4334 
L 2934 4334 
z
" transform="scale(0.015625)"/>
       <path id="TimesNewRomanPSMT-69" d="M 928 4444 
Q 1059 4444 1151 4351 
Q 1244 4259 1244 4128 
Q 1244 3997 1151 3903 
Q 1059 3809 928 3809 
Q 797 3809 703 3903 
Q 609 3997 609 4128 
Q 609 4259 701 4351 
Q 794 4444 928 4444 
z
M 1188 2947 
L 1188 647 
Q 1188 378 1227 289 
Q 1266 200 1342 156 
Q 1419 113 1622 113 
L 1622 0 
L 231 0 
L 231 113 
Q 441 113 512 153 
Q 584 194 626 287 
Q 669 381 669 647 
L 669 1750 
Q 669 2216 641 2353 
Q 619 2453 572 2492 
Q 525 2531 444 2531 
Q 356 2531 231 2484 
L 188 2597 
L 1050 2947 
L 1188 2947 
z
" transform="scale(0.015625)"/>
       <path id="TimesNewRomanPSMT-7a" d="M 2688 878 
L 2653 0 
L 128 0 
L 128 113 
L 2028 2644 
L 1091 2644 
Q 788 2644 694 2605 
Q 600 2566 541 2456 
Q 456 2300 444 2069 
L 319 2069 
L 338 2863 
L 2738 2863 
L 2738 2747 
L 819 209 
L 1863 209 
Q 2191 209 2308 264 
Q 2425 319 2497 456 
Q 2547 556 2581 878 
L 2688 878 
z
" transform="scale(0.015625)"/>
       <path id="TimesNewRomanPSMT-65" d="M 681 1784 
Q 678 1147 991 784 
Q 1303 422 1725 422 
Q 2006 422 2214 576 
Q 2422 731 2563 1106 
L 2659 1044 
Q 2594 616 2278 264 
Q 1963 -88 1488 -88 
Q 972 -88 605 314 
Q 238 716 238 1394 
Q 238 2128 614 2539 
Q 991 2950 1559 2950 
Q 2041 2950 2350 2633 
Q 2659 2316 2659 1784 
L 681 1784 
z
M 681 1966 
L 2006 1966 
Q 1991 2241 1941 2353 
Q 1863 2528 1708 2628 
Q 1553 2728 1384 2728 
Q 1125 2728 920 2526 
Q 716 2325 681 1966 
z
" transform="scale(0.015625)"/>
       <path id="TimesNewRomanPSMT-20" transform="scale(0.015625)"/>
       <path id="TimesNewRomanPSMT-5b" d="M 1900 -1269 
L 525 -1269 
L 525 4334 
L 1900 4334 
L 1900 4088 
L 994 4088 
L 994 -1025 
L 1900 -1025 
L 1900 -1269 
z
" transform="scale(0.015625)"/>
       <path id="TimesNewRomanPSMT-4d" d="M 2619 0 
L 981 3566 
L 981 734 
Q 981 344 1066 247 
Q 1181 116 1431 116 
L 1581 116 
L 1581 0 
L 106 0 
L 106 116 
L 256 116 
Q 525 116 638 278 
Q 706 378 706 734 
L 706 3503 
Q 706 3784 644 3909 
Q 600 4000 483 4061 
Q 366 4122 106 4122 
L 106 4238 
L 1306 4238 
L 2844 922 
L 4356 4238 
L 5556 4238 
L 5556 4122 
L 5409 4122 
Q 5138 4122 5025 3959 
Q 4956 3859 4956 3503 
L 4956 734 
Q 4956 344 5044 247 
Q 5159 116 5409 116 
L 5556 116 
L 5556 0 
L 3756 0 
L 3756 116 
L 3906 116 
Q 4178 116 4288 278 
Q 4356 378 4356 734 
L 4356 3566 
L 2722 0 
L 2619 0 
z
" transform="scale(0.015625)"/>
       <path id="TimesNewRomanPSMT-42" d="M 2956 2163 
Q 3397 2069 3616 1863 
Q 3919 1575 3919 1159 
Q 3919 844 3719 555 
Q 3519 266 3170 133 
Q 2822 0 2106 0 
L 106 0 
L 106 116 
L 266 116 
Q 531 116 647 284 
Q 719 394 719 750 
L 719 3488 
Q 719 3881 628 3984 
Q 506 4122 266 4122 
L 106 4122 
L 106 4238 
L 1938 4238 
Q 2450 4238 2759 4163 
Q 3228 4050 3475 3764 
Q 3722 3478 3722 3106 
Q 3722 2788 3528 2536 
Q 3334 2284 2956 2163 
z
M 1319 2331 
Q 1434 2309 1582 2298 
Q 1731 2288 1909 2288 
Q 2366 2288 2595 2386 
Q 2825 2484 2947 2687 
Q 3069 2891 3069 3131 
Q 3069 3503 2766 3765 
Q 2463 4028 1881 4028 
Q 1569 4028 1319 3959 
L 1319 2331 
z
M 1319 306 
Q 1681 222 2034 222 
Q 2600 222 2897 476 
Q 3194 731 3194 1106 
Q 3194 1353 3059 1581 
Q 2925 1809 2622 1940 
Q 2319 2072 1872 2072 
Q 1678 2072 1540 2065 
Q 1403 2059 1319 2044 
L 1319 306 
z
" transform="scale(0.015625)"/>
       <path id="TimesNewRomanPSMT-5d" d="M 234 4334 
L 1609 4334 
L 1609 -1272 
L 234 -1272 
L 234 -1025 
L 1141 -1025 
L 1141 4088 
L 234 4088 
L 234 4334 
z
" transform="scale(0.015625)"/>
       <path id="DejaVuSans-2193" d="M 2822 -22 
L 2541 -22 
L 1309 1209 
L 1684 1584 
L 2416 853 
L 2416 4666 
L 2947 4666 
L 2947 853 
L 3672 1584 
L 4047 1209 
L 2822 -22 
z
" transform="scale(0.015625)"/>
      </defs>
      <use xlink:href="#TimesNewRomanPSMT-53" transform="translate(0 0.09375)"/>
      <use xlink:href="#TimesNewRomanPSMT-69" transform="translate(55.615234 0.09375)"/>
      <use xlink:href="#TimesNewRomanPSMT-7a" transform="translate(83.398438 0.09375)"/>
      <use xlink:href="#TimesNewRomanPSMT-65" transform="translate(127.783203 0.09375)"/>
      <use xlink:href="#TimesNewRomanPSMT-20" transform="translate(172.167969 0.09375)"/>
      <use xlink:href="#TimesNewRomanPSMT-5b" transform="translate(197.167969 0.09375)"/>
      <use xlink:href="#TimesNewRomanPSMT-4d" transform="translate(230.46875 0.09375)"/>
      <use xlink:href="#TimesNewRomanPSMT-42" transform="translate(319.384766 0.09375)"/>
      <use xlink:href="#TimesNewRomanPSMT-5d" transform="translate(386.083984 0.09375)"/>
      <use xlink:href="#DejaVuSans-2193" transform="translate(438.867188 0.09375)"/>
     </g>
    </g>
   </g>
   <g id="matplotlib.axis_2">
    <g id="ytick_1">
     <g id="line2d_15">
      <path d="M 53 272.873286 
L 468.78 272.873286 
" clip-path="url(#p2a3e5eaabf)" style="fill: none; stroke: #b0b0b0; stroke-opacity: 0.4; stroke-width: 0.8; stroke-linecap: square"/>
     </g>
     <g id="line2d_16">
      <defs>
       <path id="m5e3312988c" d="M 0 0 
L -3.5 0 
" style="stroke: #000000; stroke-width: 0.8"/>
      </defs>
      <g>
       <use xlink:href="#m5e3312988c" x="53" y="272.873286" style="stroke: #000000; stroke-width: 0.8"/>
      </g>
     </g>
     <g id="text_9">
      <!-- 27 -->
      <g transform="translate(30 278.428286) scale(0.16 -0.16)">
       <defs>
        <path id="TimesNewRomanPSMT-37" d="M 644 4238 
L 2916 4238 
L 2916 4119 
L 1503 -88 
L 1153 -88 
L 2419 3728 
L 1253 3728 
Q 900 3728 750 3644 
Q 488 3500 328 3200 
L 238 3234 
L 644 4238 
z
" transform="scale(0.015625)"/>
       </defs>
       <use xlink:href="#TimesNewRomanPSMT-32"/>
       <use xlink:href="#TimesNewRomanPSMT-37" transform="translate(50 0)"/>
      </g>
     </g>
    </g>
    <g id="ytick_2">
     <g id="line2d_17">
      <path d="M 53 226.855449 
L 468.78 226.855449 
" clip-path="url(#p2a3e5eaabf)" style="fill: none; stroke: #b0b0b0; stroke-opacity: 0.4; stroke-width: 0.8; stroke-linecap: square"/>
     </g>
     <g id="line2d_18">
      <g>
       <use xlink:href="#m5e3312988c" x="53" y="226.855449" style="stroke: #000000; stroke-width: 0.8"/>
      </g>
     </g>
     <g id="text_10">
      <!-- 28 -->
      <g transform="translate(30 232.410449) scale(0.16 -0.16)">
       <use xlink:href="#TimesNewRomanPSMT-32"/>
       <use xlink:href="#TimesNewRomanPSMT-38" transform="translate(50 0)"/>
      </g>
     </g>
    </g>
    <g id="ytick_3">
     <g id="line2d_19">
      <path d="M 53 180.837613 
L 468.78 180.837613 
" clip-path="url(#p2a3e5eaabf)" style="fill: none; stroke: #b0b0b0; stroke-opacity: 0.4; stroke-width: 0.8; stroke-linecap: square"/>
     </g>
     <g id="line2d_20">
      <g>
       <use xlink:href="#m5e3312988c" x="53" y="180.837613" style="stroke: #000000; stroke-width: 0.8"/>
      </g>
     </g>
     <g id="text_11">
      <!-- 29 -->
      <g transform="translate(30 186.392613) scale(0.16 -0.16)">
       <defs>
        <path id="TimesNewRomanPSMT-39" d="M 338 -88 
L 338 28 
Q 744 34 1094 217 
Q 1444 400 1770 856 
Q 2097 1313 2225 1859 
Q 1734 1544 1338 1544 
Q 891 1544 572 1889 
Q 253 2234 253 2806 
Q 253 3363 572 3797 
Q 956 4325 1575 4325 
Q 2097 4325 2469 3894 
Q 2925 3359 2925 2575 
Q 2925 1869 2578 1258 
Q 2231 647 1613 244 
Q 1109 -88 516 -88 
L 338 -88 
z
M 2275 2091 
Q 2331 2497 2331 2741 
Q 2331 3044 2228 3395 
Q 2125 3747 1936 3934 
Q 1747 4122 1506 4122 
Q 1228 4122 1018 3872 
Q 809 3622 809 3128 
Q 809 2469 1088 2097 
Q 1291 1828 1588 1828 
Q 1731 1828 1928 1897 
Q 2125 1966 2275 2091 
z
" transform="scale(0.015625)"/>
       </defs>
       <use xlink:href="#TimesNewRomanPSMT-32"/>
       <use xlink:href="#TimesNewRomanPSMT-39" transform="translate(50 0)"/>
      </g>
     </g>
    </g>
    <g id="ytick_4">
     <g id="line2d_21">
      <path d="M 53 134.819777 
L 468.78 134.819777 
" clip-path="url(#p2a3e5eaabf)" style="fill: none; stroke: #b0b0b0; stroke-opacity: 0.4; stroke-width: 0.8; stroke-linecap: square"/>
     </g>
     <g id="line2d_22">
      <g>
       <use xlink:href="#m5e3312988c" x="53" y="134.819777" style="stroke: #000000; stroke-width: 0.8"/>
      </g>
     </g>
     <g id="text_12">
      <!-- 30 -->
      <g transform="translate(30 140.374777) scale(0.16 -0.16)">
       <defs>
        <path id="TimesNewRomanPSMT-33" d="M 325 3431 
Q 506 3859 782 4092 
Q 1059 4325 1472 4325 
Q 1981 4325 2253 3994 
Q 2459 3747 2459 3466 
Q 2459 3003 1878 2509 
Q 2269 2356 2469 2072 
Q 2669 1788 2669 1403 
Q 2669 853 2319 450 
Q 1863 -75 997 -75 
Q 569 -75 414 31 
Q 259 138 259 259 
Q 259 350 332 419 
Q 406 488 509 488 
Q 588 488 669 463 
Q 722 447 909 348 
Q 1097 250 1169 231 
Q 1284 197 1416 197 
Q 1734 197 1970 444 
Q 2206 691 2206 1028 
Q 2206 1275 2097 1509 
Q 2016 1684 1919 1775 
Q 1784 1900 1550 2001 
Q 1316 2103 1072 2103 
L 972 2103 
L 972 2197 
Q 1219 2228 1467 2375 
Q 1716 2522 1828 2728 
Q 1941 2934 1941 3181 
Q 1941 3503 1739 3701 
Q 1538 3900 1238 3900 
Q 753 3900 428 3381 
L 325 3431 
z
" transform="scale(0.015625)"/>
       </defs>
       <use xlink:href="#TimesNewRomanPSMT-33"/>
       <use xlink:href="#TimesNewRomanPSMT-30" transform="translate(50 0)"/>
      </g>
     </g>
    </g>
    <g id="ytick_5">
     <g id="line2d_23">
      <path d="M 53 88.801941 
L 468.78 88.801941 
" clip-path="url(#p2a3e5eaabf)" style="fill: none; stroke: #b0b0b0; stroke-opacity: 0.4; stroke-width: 0.8; stroke-linecap: square"/>
     </g>
     <g id="line2d_24">
      <g>
       <use xlink:href="#m5e3312988c" x="53" y="88.801941" style="stroke: #000000; stroke-width: 0.8"/>
      </g>
     </g>
     <g id="text_13">
      <!-- 31 -->
      <g transform="translate(30 94.356941) scale(0.16 -0.16)">
       <use xlink:href="#TimesNewRomanPSMT-33"/>
       <use xlink:href="#TimesNewRomanPSMT-31" transform="translate(50 0)"/>
      </g>
     </g>
    </g>
    <g id="ytick_6">
     <g id="line2d_25">
      <path d="M 53 42.784105 
L 468.78 42.784105 
" clip-path="url(#p2a3e5eaabf)" style="fill: none; stroke: #b0b0b0; stroke-opacity: 0.4; stroke-width: 0.8; stroke-linecap: square"/>
     </g>
     <g id="line2d_26">
      <g>
       <use xlink:href="#m5e3312988c" x="53" y="42.784105" style="stroke: #000000; stroke-width: 0.8"/>
      </g>
     </g>
     <g id="text_14">
      <!-- 32 -->
      <g transform="translate(30 48.339105) scale(0.16 -0.16)">
       <use xlink:href="#TimesNewRomanPSMT-33"/>
       <use xlink:href="#TimesNewRomanPSMT-32" transform="translate(50 0)"/>
      </g>
     </g>
    </g>
    <g id="text_15">
     <!-- PSNR [dB]$\uparrow$ -->
     <g transform="translate(21.721875 202.1) rotate(-90) scale(0.2 -0.2)">
      <defs>
       <path id="TimesNewRomanPSMT-50" d="M 1313 1984 
L 1313 750 
Q 1313 350 1400 253 
Q 1519 116 1759 116 
L 1922 116 
L 1922 0 
L 106 0 
L 106 116 
L 266 116 
Q 534 116 650 291 
Q 713 388 713 750 
L 713 3488 
Q 713 3888 628 3984 
Q 506 4122 266 4122 
L 106 4122 
L 106 4238 
L 1659 4238 
Q 2228 4238 2556 4120 
Q 2884 4003 3109 3725 
Q 3334 3447 3334 3066 
Q 3334 2547 2992 2222 
Q 2650 1897 2025 1897 
Q 1872 1897 1694 1919 
Q 1516 1941 1313 1984 
z
M 1313 2163 
Q 1478 2131 1606 2115 
Q 1734 2100 1825 2100 
Q 2150 2100 2386 2351 
Q 2622 2603 2622 3003 
Q 2622 3278 2509 3514 
Q 2397 3750 2190 3867 
Q 1984 3984 1722 3984 
Q 1563 3984 1313 3925 
L 1313 2163 
z
" transform="scale(0.015625)"/>
       <path id="TimesNewRomanPSMT-4e" d="M -84 4238 
L 1066 4238 
L 3656 1059 
L 3656 3503 
Q 3656 3894 3569 3991 
Q 3453 4122 3203 4122 
L 3056 4122 
L 3056 4238 
L 4531 4238 
L 4531 4122 
L 4381 4122 
Q 4113 4122 4000 3959 
Q 3931 3859 3931 3503 
L 3931 -69 
L 3819 -69 
L 1025 3344 
L 1025 734 
Q 1025 344 1109 247 
Q 1228 116 1475 116 
L 1625 116 
L 1625 0 
L 150 0 
L 150 116 
L 297 116 
Q 569 116 681 278 
Q 750 378 750 734 
L 750 3681 
Q 566 3897 470 3965 
Q 375 4034 191 4094 
Q 100 4122 -84 4122 
L -84 4238 
z
" transform="scale(0.015625)"/>
       <path id="TimesNewRomanPSMT-52" d="M 4325 0 
L 3194 0 
L 1759 1981 
Q 1600 1975 1500 1975 
Q 1459 1975 1412 1976 
Q 1366 1978 1316 1981 
L 1316 750 
Q 1316 350 1403 253 
Q 1522 116 1759 116 
L 1925 116 
L 1925 0 
L 109 0 
L 109 116 
L 269 116 
Q 538 116 653 291 
Q 719 388 719 750 
L 719 3488 
Q 719 3888 631 3984 
Q 509 4122 269 4122 
L 109 4122 
L 109 4238 
L 1653 4238 
Q 2328 4238 2648 4139 
Q 2969 4041 3192 3777 
Q 3416 3513 3416 3147 
Q 3416 2756 3161 2468 
Q 2906 2181 2372 2063 
L 3247 847 
Q 3547 428 3762 290 
Q 3978 153 4325 116 
L 4325 0 
z
M 1316 2178 
Q 1375 2178 1419 2176 
Q 1463 2175 1491 2175 
Q 2097 2175 2405 2437 
Q 2713 2700 2713 3106 
Q 2713 3503 2464 3751 
Q 2216 4000 1806 4000 
Q 1625 4000 1316 3941 
L 1316 2178 
z
" transform="scale(0.015625)"/>
       <path id="TimesNewRomanPSMT-64" d="M 2222 322 
Q 2013 103 1813 7 
Q 1613 -88 1381 -88 
Q 913 -88 563 304 
Q 213 697 213 1313 
Q 213 1928 600 2439 
Q 988 2950 1597 2950 
Q 1975 2950 2222 2709 
L 2222 3238 
Q 2222 3728 2198 3840 
Q 2175 3953 2125 3993 
Q 2075 4034 2000 4034 
Q 1919 4034 1784 3984 
L 1744 4094 
L 2597 4444 
L 2738 4444 
L 2738 1134 
Q 2738 631 2761 520 
Q 2784 409 2836 365 
Q 2888 322 2956 322 
Q 3041 322 3181 375 
L 3216 266 
L 2366 -88 
L 2222 -88 
L 2222 322 
z
M 2222 541 
L 2222 2016 
Q 2203 2228 2109 2403 
Q 2016 2578 1861 2667 
Q 1706 2756 1559 2756 
Q 1284 2756 1069 2509 
Q 784 2184 784 1559 
Q 784 928 1059 592 
Q 1334 256 1672 256 
Q 1956 256 2222 541 
z
" transform="scale(0.015625)"/>
       <path id="DejaVuSans-2191" d="M 2541 4688 
L 2822 4688 
L 4047 3456 
L 3672 3081 
L 2947 3813 
L 2947 0 
L 2416 0 
L 2416 3813 
L 1684 3081 
L 1309 3456 
L 2541 4688 
z
" transform="scale(0.015625)"/>
      </defs>
      <use xlink:href="#TimesNewRomanPSMT-50" transform="translate(0 0.75)"/>
      <use xlink:href="#TimesNewRomanPSMT-53" transform="translate(55.615234 0.75)"/>
      <use xlink:href="#TimesNewRomanPSMT-4e" transform="translate(111.230469 0.75)"/>
      <use xlink:href="#TimesNewRomanPSMT-52" transform="translate(183.447266 0.75)"/>
      <use xlink:href="#TimesNewRomanPSMT-20" transform="translate(250.146484 0.75)"/>
      <use xlink:href="#TimesNewRomanPSMT-5b" transform="translate(275.146484 0.75)"/>
      <use xlink:href="#TimesNewRomanPSMT-64" transform="translate(308.447266 0.75)"/>
      <use xlink:href="#TimesNewRomanPSMT-42" transform="translate(358.447266 0.75)"/>
      <use xlink:href="#TimesNewRomanPSMT-5d" transform="translate(425.146484 0.75)"/>
      <use xlink:href="#DejaVuSans-2191" transform="translate(477.929688 0.75)"/>
     </g>
    </g>
   </g>
   <g id="line2d_27">
    <path d="M 73.879915 115.319844 
L 75.624148 115.019074 
L 79.403319 114.417534 
L 79.403319 114.417534 
L 81.438257 114.016507 
L 83.18249 113.815993 
L 84.926722 113.61548 
L 86.38025 113.214453 
L 89.868715 113.01394 
L 92.194359 112.813426 
L 94.810708 112.412399 
L 99.461995 79.929221 
L 102.659755 79.528194 
L 102.36905 79.728707 
L 104.985399 79.427937 
L 107.020337 79.32768 
L 109.927392 79.02691 
L 112.834446 78.826397 
L 112.834446 78.826397 
L 115.16009 78.72614 
L 118.35785 78.72614 
L 119.811377 78.42537 
L 121.55561 78.224857 
L 123.299843 77.924086 
L 127.079014 77.723573 
L 127.079014 77.723573 
L 131.14889 56.068121 
L 133.183828 55.967864 
L 135.509472 55.76735 
L 137.835115 55.46658 
L 139.579348 55.266067 
L 141.323581 55.266067 
L 144.230635 55.46658 
L 144.230635 55.46658 
L 145.974868 55.46658 
L 148.881923 55.366324 
L 150.33545 55.065553 
L 152.079683 55.065553 
L 153.823915 54.965297 
L 156.149559 54.86504 
L 157.893792 54.86504 
L 160.800846 54.664526 
L 166.033545 54.86504 
L 163.707901 54.363756 
L 171.847654 38.623451 
L 173.591886 38.623451 
L 175.91753 38.523194 
L 177.661763 38.322681 
L 179.987406 38.02191 
L 182.894461 38.122167 
L 185.51081 37.921654 
L 187.545748 38.02191 
L 190.743508 37.520627 
L 192.778446 37.620883 
L 194.522679 37.520627 
L 198.011145 37.42037 
L 200.627494 37.520627 
L 202.953137 37.520627 
L 205.278781 37.620883 
L 207.604425 37.219857 
L 211.674301 37.219857 
L 213.999945 37.42037 
L 220.68617 27.996238 
L 223.88393 27.996238 
L 227.372396 27.695468 
L 229.988745 27.394698 
L 231.732978 27.194184 
L 234.640032 27.595211 
L 237.837792 27.595211 
L 241.616963 27.494954 
L 244.233312 26.993671 
L 246.26825 27.194184 
L 249.175305 27.093927 
L 251.500949 27.093927 
L 254.989414 27.093927 
L 259.640701 27.294441 
L 263.710578 26.993671 
L 266.908338 26.793157 
L 268.943276 26.793157 
L 271.26892 26.893414 
L 273.594563 26.893414 
L 282.897138 22.582375 
L 286.385603 22.281605 
L 291.618301 22.381861 
L 295.688178 22.482118 
L 300.339465 22.081091 
L 307.025691 22.482118 
L 310.514156 22.181348 
L 316.03756 22.381861 
L 320.688847 22.381861 
L 326.793662 22.381861 
L 330.572832 22.281605 
L 335.805531 22.181348 
L 340.456818 22.281605 
L 345.398811 21.980835 
L 348.596571 22.081091 
L 356.445618 21.078524 
L 361.969022 20.978267 
L 367.783131 20.978267 
L 374.760062 21.078524 
L 380.574171 20.677497 
L 387.260396 20.978267 
L 393.074505 20.777754 
L 397.725793 20.376727 
L 406.156251 20.777754 
L 412.261065 20.677497 
L 418.075175 20.57724 
L 425.342811 20.777754 
L 432.029036 20.57724 
L 439.296673 20.476984 
L 448.599247 19.9757 
" clip-path="url(#p2a3e5eaabf)" style="fill: none; stroke: #bcbd22; stroke-width: 1.5; stroke-linecap: square"/>
    <defs>
     <path id="m00bd835857" d="M 0 2 
C 0.530406 2 1.03916 1.789267 1.414214 1.414214 
C 1.789267 1.03916 2 0.530406 2 0 
C 2 -0.530406 1.789267 -1.03916 1.414214 -1.414214 
C 1.03916 -1.789267 0.530406 -2 0 -2 
C -0.530406 -2 -1.03916 -1.789267 -1.414214 -1.414214 
C -1.789267 -1.03916 -2 -0.530406 -2 0 
C -2 0.530406 -1.789267 1.03916 -1.414214 1.414214 
C -1.03916 1.789267 -0.530406 2 0 2 
z
" style="stroke: #bcbd22"/>
    </defs>
    <g clip-path="url(#p2a3e5eaabf)">
     <use xlink:href="#m00bd835857" x="73.879915" y="115.319844" style="fill: #bcbd22; stroke: #bcbd22"/>
     <use xlink:href="#m00bd835857" x="75.624148" y="115.019074" style="fill: #bcbd22; stroke: #bcbd22"/>
     <use xlink:href="#m00bd835857" x="79.403319" y="114.417534" style="fill: #bcbd22; stroke: #bcbd22"/>
     <use xlink:href="#m00bd835857" x="79.403319" y="114.417534" style="fill: #bcbd22; stroke: #bcbd22"/>
     <use xlink:href="#m00bd835857" x="81.438257" y="114.016507" style="fill: #bcbd22; stroke: #bcbd22"/>
     <use xlink:href="#m00bd835857" x="83.18249" y="113.815993" style="fill: #bcbd22; stroke: #bcbd22"/>
     <use xlink:href="#m00bd835857" x="84.926722" y="113.61548" style="fill: #bcbd22; stroke: #bcbd22"/>
     <use xlink:href="#m00bd835857" x="86.38025" y="113.214453" style="fill: #bcbd22; stroke: #bcbd22"/>
     <use xlink:href="#m00bd835857" x="89.868715" y="113.01394" style="fill: #bcbd22; stroke: #bcbd22"/>
     <use xlink:href="#m00bd835857" x="92.194359" y="112.813426" style="fill: #bcbd22; stroke: #bcbd22"/>
     <use xlink:href="#m00bd835857" x="94.810708" y="112.412399" style="fill: #bcbd22; stroke: #bcbd22"/>
     <use xlink:href="#m00bd835857" x="99.461995" y="79.929221" style="fill: #bcbd22; stroke: #bcbd22"/>
     <use xlink:href="#m00bd835857" x="102.659755" y="79.528194" style="fill: #bcbd22; stroke: #bcbd22"/>
     <use xlink:href="#m00bd835857" x="102.36905" y="79.728707" style="fill: #bcbd22; stroke: #bcbd22"/>
     <use xlink:href="#m00bd835857" x="104.985399" y="79.427937" style="fill: #bcbd22; stroke: #bcbd22"/>
     <use xlink:href="#m00bd835857" x="107.020337" y="79.32768" style="fill: #bcbd22; stroke: #bcbd22"/>
     <use xlink:href="#m00bd835857" x="109.927392" y="79.02691" style="fill: #bcbd22; stroke: #bcbd22"/>
     <use xlink:href="#m00bd835857" x="112.834446" y="78.826397" style="fill: #bcbd22; stroke: #bcbd22"/>
     <use xlink:href="#m00bd835857" x="112.834446" y="78.826397" style="fill: #bcbd22; stroke: #bcbd22"/>
     <use xlink:href="#m00bd835857" x="115.16009" y="78.72614" style="fill: #bcbd22; stroke: #bcbd22"/>
     <use xlink:href="#m00bd835857" x="118.35785" y="78.72614" style="fill: #bcbd22; stroke: #bcbd22"/>
     <use xlink:href="#m00bd835857" x="119.811377" y="78.42537" style="fill: #bcbd22; stroke: #bcbd22"/>
     <use xlink:href="#m00bd835857" x="121.55561" y="78.224857" style="fill: #bcbd22; stroke: #bcbd22"/>
     <use xlink:href="#m00bd835857" x="123.299843" y="77.924086" style="fill: #bcbd22; stroke: #bcbd22"/>
     <use xlink:href="#m00bd835857" x="127.079014" y="77.723573" style="fill: #bcbd22; stroke: #bcbd22"/>
     <use xlink:href="#m00bd835857" x="127.079014" y="77.723573" style="fill: #bcbd22; stroke: #bcbd22"/>
     <use xlink:href="#m00bd835857" x="131.14889" y="56.068121" style="fill: #bcbd22; stroke: #bcbd22"/>
     <use xlink:href="#m00bd835857" x="133.183828" y="55.967864" style="fill: #bcbd22; stroke: #bcbd22"/>
     <use xlink:href="#m00bd835857" x="135.509472" y="55.76735" style="fill: #bcbd22; stroke: #bcbd22"/>
     <use xlink:href="#m00bd835857" x="137.835115" y="55.46658" style="fill: #bcbd22; stroke: #bcbd22"/>
     <use xlink:href="#m00bd835857" x="139.579348" y="55.266067" style="fill: #bcbd22; stroke: #bcbd22"/>
     <use xlink:href="#m00bd835857" x="141.323581" y="55.266067" style="fill: #bcbd22; stroke: #bcbd22"/>
     <use xlink:href="#m00bd835857" x="144.230635" y="55.46658" style="fill: #bcbd22; stroke: #bcbd22"/>
     <use xlink:href="#m00bd835857" x="144.230635" y="55.46658" style="fill: #bcbd22; stroke: #bcbd22"/>
     <use xlink:href="#m00bd835857" x="145.974868" y="55.46658" style="fill: #bcbd22; stroke: #bcbd22"/>
     <use xlink:href="#m00bd835857" x="148.881923" y="55.366324" style="fill: #bcbd22; stroke: #bcbd22"/>
     <use xlink:href="#m00bd835857" x="150.33545" y="55.065553" style="fill: #bcbd22; stroke: #bcbd22"/>
     <use xlink:href="#m00bd835857" x="152.079683" y="55.065553" style="fill: #bcbd22; stroke: #bcbd22"/>
     <use xlink:href="#m00bd835857" x="153.823915" y="54.965297" style="fill: #bcbd22; stroke: #bcbd22"/>
     <use xlink:href="#m00bd835857" x="156.149559" y="54.86504" style="fill: #bcbd22; stroke: #bcbd22"/>
     <use xlink:href="#m00bd835857" x="157.893792" y="54.86504" style="fill: #bcbd22; stroke: #bcbd22"/>
     <use xlink:href="#m00bd835857" x="160.800846" y="54.664526" style="fill: #bcbd22; stroke: #bcbd22"/>
     <use xlink:href="#m00bd835857" x="166.033545" y="54.86504" style="fill: #bcbd22; stroke: #bcbd22"/>
     <use xlink:href="#m00bd835857" x="163.707901" y="54.363756" style="fill: #bcbd22; stroke: #bcbd22"/>
     <use xlink:href="#m00bd835857" x="171.847654" y="38.623451" style="fill: #bcbd22; stroke: #bcbd22"/>
     <use xlink:href="#m00bd835857" x="173.591886" y="38.623451" style="fill: #bcbd22; stroke: #bcbd22"/>
     <use xlink:href="#m00bd835857" x="175.91753" y="38.523194" style="fill: #bcbd22; stroke: #bcbd22"/>
     <use xlink:href="#m00bd835857" x="177.661763" y="38.322681" style="fill: #bcbd22; stroke: #bcbd22"/>
     <use xlink:href="#m00bd835857" x="179.987406" y="38.02191" style="fill: #bcbd22; stroke: #bcbd22"/>
     <use xlink:href="#m00bd835857" x="182.894461" y="38.122167" style="fill: #bcbd22; stroke: #bcbd22"/>
     <use xlink:href="#m00bd835857" x="185.51081" y="37.921654" style="fill: #bcbd22; stroke: #bcbd22"/>
     <use xlink:href="#m00bd835857" x="187.545748" y="38.02191" style="fill: #bcbd22; stroke: #bcbd22"/>
     <use xlink:href="#m00bd835857" x="190.743508" y="37.520627" style="fill: #bcbd22; stroke: #bcbd22"/>
     <use xlink:href="#m00bd835857" x="192.778446" y="37.620883" style="fill: #bcbd22; stroke: #bcbd22"/>
     <use xlink:href="#m00bd835857" x="194.522679" y="37.520627" style="fill: #bcbd22; stroke: #bcbd22"/>
     <use xlink:href="#m00bd835857" x="198.011145" y="37.42037" style="fill: #bcbd22; stroke: #bcbd22"/>
     <use xlink:href="#m00bd835857" x="200.627494" y="37.520627" style="fill: #bcbd22; stroke: #bcbd22"/>
     <use xlink:href="#m00bd835857" x="202.953137" y="37.520627" style="fill: #bcbd22; stroke: #bcbd22"/>
     <use xlink:href="#m00bd835857" x="205.278781" y="37.620883" style="fill: #bcbd22; stroke: #bcbd22"/>
     <use xlink:href="#m00bd835857" x="207.604425" y="37.219857" style="fill: #bcbd22; stroke: #bcbd22"/>
     <use xlink:href="#m00bd835857" x="211.674301" y="37.219857" style="fill: #bcbd22; stroke: #bcbd22"/>
     <use xlink:href="#m00bd835857" x="213.999945" y="37.42037" style="fill: #bcbd22; stroke: #bcbd22"/>
     <use xlink:href="#m00bd835857" x="220.68617" y="27.996238" style="fill: #bcbd22; stroke: #bcbd22"/>
     <use xlink:href="#m00bd835857" x="223.88393" y="27.996238" style="fill: #bcbd22; stroke: #bcbd22"/>
     <use xlink:href="#m00bd835857" x="227.372396" y="27.695468" style="fill: #bcbd22; stroke: #bcbd22"/>
     <use xlink:href="#m00bd835857" x="229.988745" y="27.394698" style="fill: #bcbd22; stroke: #bcbd22"/>
     <use xlink:href="#m00bd835857" x="231.732978" y="27.194184" style="fill: #bcbd22; stroke: #bcbd22"/>
     <use xlink:href="#m00bd835857" x="234.640032" y="27.595211" style="fill: #bcbd22; stroke: #bcbd22"/>
     <use xlink:href="#m00bd835857" x="237.837792" y="27.595211" style="fill: #bcbd22; stroke: #bcbd22"/>
     <use xlink:href="#m00bd835857" x="241.616963" y="27.494954" style="fill: #bcbd22; stroke: #bcbd22"/>
     <use xlink:href="#m00bd835857" x="244.233312" y="26.993671" style="fill: #bcbd22; stroke: #bcbd22"/>
     <use xlink:href="#m00bd835857" x="246.26825" y="27.194184" style="fill: #bcbd22; stroke: #bcbd22"/>
     <use xlink:href="#m00bd835857" x="249.175305" y="27.093927" style="fill: #bcbd22; stroke: #bcbd22"/>
     <use xlink:href="#m00bd835857" x="251.500949" y="27.093927" style="fill: #bcbd22; stroke: #bcbd22"/>
     <use xlink:href="#m00bd835857" x="254.989414" y="27.093927" style="fill: #bcbd22; stroke: #bcbd22"/>
     <use xlink:href="#m00bd835857" x="259.640701" y="27.294441" style="fill: #bcbd22; stroke: #bcbd22"/>
     <use xlink:href="#m00bd835857" x="263.710578" y="26.993671" style="fill: #bcbd22; stroke: #bcbd22"/>
     <use xlink:href="#m00bd835857" x="266.908338" y="26.793157" style="fill: #bcbd22; stroke: #bcbd22"/>
     <use xlink:href="#m00bd835857" x="268.943276" y="26.793157" style="fill: #bcbd22; stroke: #bcbd22"/>
     <use xlink:href="#m00bd835857" x="271.26892" y="26.893414" style="fill: #bcbd22; stroke: #bcbd22"/>
     <use xlink:href="#m00bd835857" x="273.594563" y="26.893414" style="fill: #bcbd22; stroke: #bcbd22"/>
     <use xlink:href="#m00bd835857" x="282.897138" y="22.582375" style="fill: #bcbd22; stroke: #bcbd22"/>
     <use xlink:href="#m00bd835857" x="286.385603" y="22.281605" style="fill: #bcbd22; stroke: #bcbd22"/>
     <use xlink:href="#m00bd835857" x="291.618301" y="22.381861" style="fill: #bcbd22; stroke: #bcbd22"/>
     <use xlink:href="#m00bd835857" x="295.688178" y="22.482118" style="fill: #bcbd22; stroke: #bcbd22"/>
     <use xlink:href="#m00bd835857" x="300.339465" y="22.081091" style="fill: #bcbd22; stroke: #bcbd22"/>
     <use xlink:href="#m00bd835857" x="307.025691" y="22.482118" style="fill: #bcbd22; stroke: #bcbd22"/>
     <use xlink:href="#m00bd835857" x="310.514156" y="22.181348" style="fill: #bcbd22; stroke: #bcbd22"/>
     <use xlink:href="#m00bd835857" x="316.03756" y="22.381861" style="fill: #bcbd22; stroke: #bcbd22"/>
     <use xlink:href="#m00bd835857" x="320.688847" y="22.381861" style="fill: #bcbd22; stroke: #bcbd22"/>
     <use xlink:href="#m00bd835857" x="326.793662" y="22.381861" style="fill: #bcbd22; stroke: #bcbd22"/>
     <use xlink:href="#m00bd835857" x="330.572832" y="22.281605" style="fill: #bcbd22; stroke: #bcbd22"/>
     <use xlink:href="#m00bd835857" x="335.805531" y="22.181348" style="fill: #bcbd22; stroke: #bcbd22"/>
     <use xlink:href="#m00bd835857" x="340.456818" y="22.281605" style="fill: #bcbd22; stroke: #bcbd22"/>
     <use xlink:href="#m00bd835857" x="345.398811" y="21.980835" style="fill: #bcbd22; stroke: #bcbd22"/>
     <use xlink:href="#m00bd835857" x="348.596571" y="22.081091" style="fill: #bcbd22; stroke: #bcbd22"/>
     <use xlink:href="#m00bd835857" x="356.445618" y="21.078524" style="fill: #bcbd22; stroke: #bcbd22"/>
     <use xlink:href="#m00bd835857" x="361.969022" y="20.978267" style="fill: #bcbd22; stroke: #bcbd22"/>
     <use xlink:href="#m00bd835857" x="367.783131" y="20.978267" style="fill: #bcbd22; stroke: #bcbd22"/>
     <use xlink:href="#m00bd835857" x="374.760062" y="21.078524" style="fill: #bcbd22; stroke: #bcbd22"/>
     <use xlink:href="#m00bd835857" x="380.574171" y="20.677497" style="fill: #bcbd22; stroke: #bcbd22"/>
     <use xlink:href="#m00bd835857" x="387.260396" y="20.978267" style="fill: #bcbd22; stroke: #bcbd22"/>
     <use xlink:href="#m00bd835857" x="393.074505" y="20.777754" style="fill: #bcbd22; stroke: #bcbd22"/>
     <use xlink:href="#m00bd835857" x="397.725793" y="20.376727" style="fill: #bcbd22; stroke: #bcbd22"/>
     <use xlink:href="#m00bd835857" x="406.156251" y="20.777754" style="fill: #bcbd22; stroke: #bcbd22"/>
     <use xlink:href="#m00bd835857" x="412.261065" y="20.677497" style="fill: #bcbd22; stroke: #bcbd22"/>
     <use xlink:href="#m00bd835857" x="418.075175" y="20.57724" style="fill: #bcbd22; stroke: #bcbd22"/>
     <use xlink:href="#m00bd835857" x="425.342811" y="20.777754" style="fill: #bcbd22; stroke: #bcbd22"/>
     <use xlink:href="#m00bd835857" x="432.029036" y="20.57724" style="fill: #bcbd22; stroke: #bcbd22"/>
     <use xlink:href="#m00bd835857" x="439.296673" y="20.476984" style="fill: #bcbd22; stroke: #bcbd22"/>
     <use xlink:href="#m00bd835857" x="448.599247" y="19.9757" style="fill: #bcbd22; stroke: #bcbd22"/>
    </g>
   </g>
   <g id="line2d_28">
    <path d="M 449.880909 19.717176 
L 435.356795 19.669217 
L 421.263438 19.638564 
L 407.60081 19.636451 
L 394.351756 19.627273 
L 381.508592 19.683319 
L 369.016022 19.71439 
L 356.916856 19.788857 
L 345.145969 19.953074 
L 333.744815 20.055612 
L 322.663117 20.979183 
L 311.87107 21.374247 
L 301.364086 21.701245 
L 291.179545 22.087474 
L 281.273063 22.63072 
L 271.672003 23.195724 
L 262.346125 24.137431 
L 253.2919 25.045066 
L 244.517226 26.089713 
L 236.011409 27.405576 
L 227.728653 28.785171 
L 219.712446 30.210866 
L 211.949242 31.876208 
L 204.416564 33.528111 
L 197.078444 35.467003 
L 190.000927 37.446294 
L 183.126003 39.747059 
L 176.464068 42.578952 
L 169.998455 45.50854 
L 163.740511 48.3813 
L 157.649054 52.740357 
L 151.760625 56.115771 
L 146.030105 59.867016 
L 140.506902 63.726963 
L 135.148177 67.608703 
L 129.96688 72.306907 
L 124.91442 77.29159 
L 120.020765 82.743835 
L 115.284748 88.507832 
L 110.684707 94.149537 
L 106.23473 100.264413 
L 101.927434 106.503478 
L 97.734587 112.950446 
L 93.680104 119.73337 
L 89.755299 126.169924 
L 85.974396 132.534116 
L 82.283863 140.177847 
L 78.723849 147.030495 
L 75.248939 154.538278 
L 71.899091 162.480661 
" clip-path="url(#p2a3e5eaabf)" style="fill: none; stroke-dasharray: 1,1.65; stroke-dashoffset: 0; stroke: #2ca02c"/>
    <defs>
     <path id="mc21601a38f" d="M -4.425314 1.722486 
L -3.885971 1.722486 
C -3.522896 3.432969 -1.612003 4.3864 0.153773 4.3864 
C 1.922429 4.3864 3.830858 3.431054 4.193516 1.722486 
L 4.732859 1.722486 
C 4.910859 1.722486 5 1.507275 4.87413 1.381421 
L 3.758133 0.265424 
C 3.680113 0.187405 3.553611 0.187405 3.475575 0.265424 
L 2.359577 1.381421 
C 2.233707 1.507291 2.322849 1.722486 2.500848 1.722486 
L 3.08601 1.722486 
C 2.748193 2.626835 1.671422 3.16413 0.686539 3.287785 
L 0.686539 0.124137 
L 1.552311 0.124137 
C 1.662647 0.124137 1.752105 0.034679 1.752105 -0.075657 
L 1.752105 -0.741636 
C 1.752105 -0.851972 1.662647 -0.941429 1.552311 -0.941429 
L 0.686539 -0.941429 
L 0.686539 -1.032502 
C 1.307248 -1.251909 1.752022 -1.843747 1.752105 -2.539579 
C 1.752205 -3.409347 1.046267 -4.12584 0.176582 -4.137961 
C -0.716612 -4.150431 -1.444576 -3.430109 -1.444576 -2.539778 
C -1.444576 -1.843864 -0.999769 -1.251942 -0.37901 -1.032502 
L -0.37901 -0.941429 
L -1.244783 -0.941429 
C -1.355119 -0.941429 -1.444576 -0.851972 -1.444576 -0.741636 
L -1.444576 -0.075657 
C -1.444576 0.034679 -1.355119 0.124137 -1.244783 0.124137 
L -0.37901 0.124137 
L -0.37901 3.287785 
C -1.360263 3.164596 -2.440548 2.627151 -2.778482 1.722486 
L -2.19332 1.722486 
C -2.01532 1.722486 -1.926179 1.507275 -2.052049 1.381421 
L -3.168046 0.265424 
C -3.246065 0.187405 -3.372568 0.187405 -3.450604 0.265424 
L -4.566601 1.381421 
C -4.692455 1.507275 -4.603314 1.722486 -4.425314 1.722486 
L -4.425314 1.722486 
z
M 0.153773 -3.072561 
C 0.447552 -3.072561 0.686556 -2.833558 0.686556 -2.539778 
C 0.686556 -2.245999 0.447552 -2.006995 0.153773 -2.006995 
C -0.140007 -2.006995 -0.37901 -2.245999 -0.37901 -2.539778 
C -0.37901 -2.833558 -0.140007 -3.072561 0.153773 -3.072561 
z
" style="stroke: #2ca02c"/>
    </defs>
    <g clip-path="url(#p2a3e5eaabf)">
     <use xlink:href="#mc21601a38f" x="449.880909" y="19.717176" style="fill: #2ca02c; stroke: #2ca02c"/>
     <use xlink:href="#mc21601a38f" x="435.356795" y="19.669217" style="fill: #2ca02c; stroke: #2ca02c"/>
     <use xlink:href="#mc21601a38f" x="421.263438" y="19.638564" style="fill: #2ca02c; stroke: #2ca02c"/>
     <use xlink:href="#mc21601a38f" x="407.60081" y="19.636451" style="fill: #2ca02c; stroke: #2ca02c"/>
     <use xlink:href="#mc21601a38f" x="394.351756" y="19.627273" style="fill: #2ca02c; stroke: #2ca02c"/>
     <use xlink:href="#mc21601a38f" x="381.508592" y="19.683319" style="fill: #2ca02c; stroke: #2ca02c"/>
     <use xlink:href="#mc21601a38f" x="369.016022" y="19.71439" style="fill: #2ca02c; stroke: #2ca02c"/>
     <use xlink:href="#mc21601a38f" x="356.916856" y="19.788857" style="fill: #2ca02c; stroke: #2ca02c"/>
     <use xlink:href="#mc21601a38f" x="345.145969" y="19.953074" style="fill: #2ca02c; stroke: #2ca02c"/>
     <use xlink:href="#mc21601a38f" x="333.744815" y="20.055612" style="fill: #2ca02c; stroke: #2ca02c"/>
     <use xlink:href="#mc21601a38f" x="322.663117" y="20.979183" style="fill: #2ca02c; stroke: #2ca02c"/>
     <use xlink:href="#mc21601a38f" x="311.87107" y="21.374247" style="fill: #2ca02c; stroke: #2ca02c"/>
     <use xlink:href="#mc21601a38f" x="301.364086" y="21.701245" style="fill: #2ca02c; stroke: #2ca02c"/>
     <use xlink:href="#mc21601a38f" x="291.179545" y="22.087474" style="fill: #2ca02c; stroke: #2ca02c"/>
     <use xlink:href="#mc21601a38f" x="281.273063" y="22.63072" style="fill: #2ca02c; stroke: #2ca02c"/>
     <use xlink:href="#mc21601a38f" x="271.672003" y="23.195724" style="fill: #2ca02c; stroke: #2ca02c"/>
     <use xlink:href="#mc21601a38f" x="262.346125" y="24.137431" style="fill: #2ca02c; stroke: #2ca02c"/>
     <use xlink:href="#mc21601a38f" x="253.2919" y="25.045066" style="fill: #2ca02c; stroke: #2ca02c"/>
     <use xlink:href="#mc21601a38f" x="244.517226" y="26.089713" style="fill: #2ca02c; stroke: #2ca02c"/>
     <use xlink:href="#mc21601a38f" x="236.011409" y="27.405576" style="fill: #2ca02c; stroke: #2ca02c"/>
     <use xlink:href="#mc21601a38f" x="227.728653" y="28.785171" style="fill: #2ca02c; stroke: #2ca02c"/>
     <use xlink:href="#mc21601a38f" x="219.712446" y="30.210866" style="fill: #2ca02c; stroke: #2ca02c"/>
     <use xlink:href="#mc21601a38f" x="211.949242" y="31.876208" style="fill: #2ca02c; stroke: #2ca02c"/>
     <use xlink:href="#mc21601a38f" x="204.416564" y="33.528111" style="fill: #2ca02c; stroke: #2ca02c"/>
     <use xlink:href="#mc21601a38f" x="197.078444" y="35.467003" style="fill: #2ca02c; stroke: #2ca02c"/>
     <use xlink:href="#mc21601a38f" x="190.000927" y="37.446294" style="fill: #2ca02c; stroke: #2ca02c"/>
     <use xlink:href="#mc21601a38f" x="183.126003" y="39.747059" style="fill: #2ca02c; stroke: #2ca02c"/>
     <use xlink:href="#mc21601a38f" x="176.464068" y="42.578952" style="fill: #2ca02c; stroke: #2ca02c"/>
     <use xlink:href="#mc21601a38f" x="169.998455" y="45.50854" style="fill: #2ca02c; stroke: #2ca02c"/>
     <use xlink:href="#mc21601a38f" x="163.740511" y="48.3813" style="fill: #2ca02c; stroke: #2ca02c"/>
     <use xlink:href="#mc21601a38f" x="157.649054" y="52.740357" style="fill: #2ca02c; stroke: #2ca02c"/>
     <use xlink:href="#mc21601a38f" x="151.760625" y="56.115771" style="fill: #2ca02c; stroke: #2ca02c"/>
     <use xlink:href="#mc21601a38f" x="146.030105" y="59.867016" style="fill: #2ca02c; stroke: #2ca02c"/>
     <use xlink:href="#mc21601a38f" x="140.506902" y="63.726963" style="fill: #2ca02c; stroke: #2ca02c"/>
     <use xlink:href="#mc21601a38f" x="135.148177" y="67.608703" style="fill: #2ca02c; stroke: #2ca02c"/>
     <use xlink:href="#mc21601a38f" x="129.96688" y="72.306907" style="fill: #2ca02c; stroke: #2ca02c"/>
     <use xlink:href="#mc21601a38f" x="124.91442" y="77.29159" style="fill: #2ca02c; stroke: #2ca02c"/>
     <use xlink:href="#mc21601a38f" x="120.020765" y="82.743835" style="fill: #2ca02c; stroke: #2ca02c"/>
     <use xlink:href="#mc21601a38f" x="115.284748" y="88.507832" style="fill: #2ca02c; stroke: #2ca02c"/>
     <use xlink:href="#mc21601a38f" x="110.684707" y="94.149537" style="fill: #2ca02c; stroke: #2ca02c"/>
     <use xlink:href="#mc21601a38f" x="106.23473" y="100.264413" style="fill: #2ca02c; stroke: #2ca02c"/>
     <use xlink:href="#mc21601a38f" x="101.927434" y="106.503478" style="fill: #2ca02c; stroke: #2ca02c"/>
     <use xlink:href="#mc21601a38f" x="97.734587" y="112.950446" style="fill: #2ca02c; stroke: #2ca02c"/>
     <use xlink:href="#mc21601a38f" x="93.680104" y="119.73337" style="fill: #2ca02c; stroke: #2ca02c"/>
     <use xlink:href="#mc21601a38f" x="89.755299" y="126.169924" style="fill: #2ca02c; stroke: #2ca02c"/>
     <use xlink:href="#mc21601a38f" x="85.974396" y="132.534116" style="fill: #2ca02c; stroke: #2ca02c"/>
     <use xlink:href="#mc21601a38f" x="82.283863" y="140.177847" style="fill: #2ca02c; stroke: #2ca02c"/>
     <use xlink:href="#mc21601a38f" x="78.723849" y="147.030495" style="fill: #2ca02c; stroke: #2ca02c"/>
     <use xlink:href="#mc21601a38f" x="75.248939" y="154.538278" style="fill: #2ca02c; stroke: #2ca02c"/>
     <use xlink:href="#mc21601a38f" x="71.899091" y="162.480661" style="fill: #2ca02c; stroke: #2ca02c"/>
    </g>
   </g>
   <g id="line2d_29">
    <path d="M 73.777965 268.172727 
L 81.610853 177.847636 
L 89.439452 149.076297 
L 97.245411 129.309098 
L 105.048439 115.073792 
L 112.844055 104.268651 
L 120.639998 95.00538 
L 128.412784 88.787855 
L 136.166704 81.78075 
L 143.916769 74.77548 
L 151.652583 71.289563 
L 159.378216 66.49898 
L 167.11574 62.106621 
L 174.823131 57.373808 
L 182.524957 54.339841 
L 190.216957 52.461485 
L 197.923316 49.914493 
L 205.552635 48.127715 
L 213.221804 45.940356 
L 220.876505 44.933579 
L 228.536282 43.725987 
L 236.182594 41.680587 
L 243.812862 40.868846 
L 251.442425 39.417328 
L 259.036671 38.778328 
L 266.631867 37.719364 
L 274.23917 36.66655 
L 281.831868 35.796643 
L 289.421119 35.497055 
L 296.966881 35.091627 
L 304.527927 34.570283 
L 312.084711 33.927105 
L 319.639757 33.39053 
L 327.197301 33.132055 
L 334.715049 32.95758 
L 342.231656 32.656085 
L 349.748372 32.409697 
L 357.235092 32.28142 
L 364.739429 32.192036 
L 372.227831 32.153029 
L 379.71808 31.990872 
L 387.187127 31.924633 
L 394.637497 31.87937 
L 402.100491 31.925729 
L 409.533162 31.915901 
L 416.969851 31.883049 
L 424.398722 31.885424 
L 431.821593 31.855237 
L 439.194651 32.002788 
L 446.551285 32.193839 
" clip-path="url(#p2a3e5eaabf)" style="fill: none; stroke: #ff7f0e; stroke-width: 1.5; stroke-linecap: square"/>
    <defs>
     <path id="m50eaf26edd" d="M 0 2.828427 
L 1.697056 0 
L 0 -2.828427 
L -1.697056 0 
z
" style="stroke: #ff7f0e; stroke-linejoin: miter"/>
    </defs>
    <g clip-path="url(#p2a3e5eaabf)">
     <use xlink:href="#m50eaf26edd" x="73.777965" y="268.172727" style="fill: #ff7f0e; stroke: #ff7f0e; stroke-linejoin: miter"/>
     <use xlink:href="#m50eaf26edd" x="81.610853" y="177.847636" style="fill: #ff7f0e; stroke: #ff7f0e; stroke-linejoin: miter"/>
     <use xlink:href="#m50eaf26edd" x="89.439452" y="149.076297" style="fill: #ff7f0e; stroke: #ff7f0e; stroke-linejoin: miter"/>
     <use xlink:href="#m50eaf26edd" x="97.245411" y="129.309098" style="fill: #ff7f0e; stroke: #ff7f0e; stroke-linejoin: miter"/>
     <use xlink:href="#m50eaf26edd" x="105.048439" y="115.073792" style="fill: #ff7f0e; stroke: #ff7f0e; stroke-linejoin: miter"/>
     <use xlink:href="#m50eaf26edd" x="112.844055" y="104.268651" style="fill: #ff7f0e; stroke: #ff7f0e; stroke-linejoin: miter"/>
     <use xlink:href="#m50eaf26edd" x="120.639998" y="95.00538" style="fill: #ff7f0e; stroke: #ff7f0e; stroke-linejoin: miter"/>
     <use xlink:href="#m50eaf26edd" x="128.412784" y="88.787855" style="fill: #ff7f0e; stroke: #ff7f0e; stroke-linejoin: miter"/>
     <use xlink:href="#m50eaf26edd" x="136.166704" y="81.78075" style="fill: #ff7f0e; stroke: #ff7f0e; stroke-linejoin: miter"/>
     <use xlink:href="#m50eaf26edd" x="143.916769" y="74.77548" style="fill: #ff7f0e; stroke: #ff7f0e; stroke-linejoin: miter"/>
     <use xlink:href="#m50eaf26edd" x="151.652583" y="71.289563" style="fill: #ff7f0e; stroke: #ff7f0e; stroke-linejoin: miter"/>
     <use xlink:href="#m50eaf26edd" x="159.378216" y="66.49898" style="fill: #ff7f0e; stroke: #ff7f0e; stroke-linejoin: miter"/>
     <use xlink:href="#m50eaf26edd" x="167.11574" y="62.106621" style="fill: #ff7f0e; stroke: #ff7f0e; stroke-linejoin: miter"/>
     <use xlink:href="#m50eaf26edd" x="174.823131" y="57.373808" style="fill: #ff7f0e; stroke: #ff7f0e; stroke-linejoin: miter"/>
     <use xlink:href="#m50eaf26edd" x="182.524957" y="54.339841" style="fill: #ff7f0e; stroke: #ff7f0e; stroke-linejoin: miter"/>
     <use xlink:href="#m50eaf26edd" x="190.216957" y="52.461485" style="fill: #ff7f0e; stroke: #ff7f0e; stroke-linejoin: miter"/>
     <use xlink:href="#m50eaf26edd" x="197.923316" y="49.914493" style="fill: #ff7f0e; stroke: #ff7f0e; stroke-linejoin: miter"/>
     <use xlink:href="#m50eaf26edd" x="205.552635" y="48.127715" style="fill: #ff7f0e; stroke: #ff7f0e; stroke-linejoin: miter"/>
     <use xlink:href="#m50eaf26edd" x="213.221804" y="45.940356" style="fill: #ff7f0e; stroke: #ff7f0e; stroke-linejoin: miter"/>
     <use xlink:href="#m50eaf26edd" x="220.876505" y="44.933579" style="fill: #ff7f0e; stroke: #ff7f0e; stroke-linejoin: miter"/>
     <use xlink:href="#m50eaf26edd" x="228.536282" y="43.725987" style="fill: #ff7f0e; stroke: #ff7f0e; stroke-linejoin: miter"/>
     <use xlink:href="#m50eaf26edd" x="236.182594" y="41.680587" style="fill: #ff7f0e; stroke: #ff7f0e; stroke-linejoin: miter"/>
     <use xlink:href="#m50eaf26edd" x="243.812862" y="40.868846" style="fill: #ff7f0e; stroke: #ff7f0e; stroke-linejoin: miter"/>
     <use xlink:href="#m50eaf26edd" x="251.442425" y="39.417328" style="fill: #ff7f0e; stroke: #ff7f0e; stroke-linejoin: miter"/>
     <use xlink:href="#m50eaf26edd" x="259.036671" y="38.778328" style="fill: #ff7f0e; stroke: #ff7f0e; stroke-linejoin: miter"/>
     <use xlink:href="#m50eaf26edd" x="266.631867" y="37.719364" style="fill: #ff7f0e; stroke: #ff7f0e; stroke-linejoin: miter"/>
     <use xlink:href="#m50eaf26edd" x="274.23917" y="36.66655" style="fill: #ff7f0e; stroke: #ff7f0e; stroke-linejoin: miter"/>
     <use xlink:href="#m50eaf26edd" x="281.831868" y="35.796643" style="fill: #ff7f0e; stroke: #ff7f0e; stroke-linejoin: miter"/>
     <use xlink:href="#m50eaf26edd" x="289.421119" y="35.497055" style="fill: #ff7f0e; stroke: #ff7f0e; stroke-linejoin: miter"/>
     <use xlink:href="#m50eaf26edd" x="296.966881" y="35.091627" style="fill: #ff7f0e; stroke: #ff7f0e; stroke-linejoin: miter"/>
     <use xlink:href="#m50eaf26edd" x="304.527927" y="34.570283" style="fill: #ff7f0e; stroke: #ff7f0e; stroke-linejoin: miter"/>
     <use xlink:href="#m50eaf26edd" x="312.084711" y="33.927105" style="fill: #ff7f0e; stroke: #ff7f0e; stroke-linejoin: miter"/>
     <use xlink:href="#m50eaf26edd" x="319.639757" y="33.39053" style="fill: #ff7f0e; stroke: #ff7f0e; stroke-linejoin: miter"/>
     <use xlink:href="#m50eaf26edd" x="327.197301" y="33.132055" style="fill: #ff7f0e; stroke: #ff7f0e; stroke-linejoin: miter"/>
     <use xlink:href="#m50eaf26edd" x="334.715049" y="32.95758" style="fill: #ff7f0e; stroke: #ff7f0e; stroke-linejoin: miter"/>
     <use xlink:href="#m50eaf26edd" x="342.231656" y="32.656085" style="fill: #ff7f0e; stroke: #ff7f0e; stroke-linejoin: miter"/>
     <use xlink:href="#m50eaf26edd" x="349.748372" y="32.409697" style="fill: #ff7f0e; stroke: #ff7f0e; stroke-linejoin: miter"/>
     <use xlink:href="#m50eaf26edd" x="357.235092" y="32.28142" style="fill: #ff7f0e; stroke: #ff7f0e; stroke-linejoin: miter"/>
     <use xlink:href="#m50eaf26edd" x="364.739429" y="32.192036" style="fill: #ff7f0e; stroke: #ff7f0e; stroke-linejoin: miter"/>
     <use xlink:href="#m50eaf26edd" x="372.227831" y="32.153029" style="fill: #ff7f0e; stroke: #ff7f0e; stroke-linejoin: miter"/>
     <use xlink:href="#m50eaf26edd" x="379.71808" y="31.990872" style="fill: #ff7f0e; stroke: #ff7f0e; stroke-linejoin: miter"/>
     <use xlink:href="#m50eaf26edd" x="387.187127" y="31.924633" style="fill: #ff7f0e; stroke: #ff7f0e; stroke-linejoin: miter"/>
     <use xlink:href="#m50eaf26edd" x="394.637497" y="31.87937" style="fill: #ff7f0e; stroke: #ff7f0e; stroke-linejoin: miter"/>
     <use xlink:href="#m50eaf26edd" x="402.100491" y="31.925729" style="fill: #ff7f0e; stroke: #ff7f0e; stroke-linejoin: miter"/>
     <use xlink:href="#m50eaf26edd" x="409.533162" y="31.915901" style="fill: #ff7f0e; stroke: #ff7f0e; stroke-linejoin: miter"/>
     <use xlink:href="#m50eaf26edd" x="416.969851" y="31.883049" style="fill: #ff7f0e; stroke: #ff7f0e; stroke-linejoin: miter"/>
     <use xlink:href="#m50eaf26edd" x="424.398722" y="31.885424" style="fill: #ff7f0e; stroke: #ff7f0e; stroke-linejoin: miter"/>
     <use xlink:href="#m50eaf26edd" x="431.821593" y="31.855237" style="fill: #ff7f0e; stroke: #ff7f0e; stroke-linejoin: miter"/>
     <use xlink:href="#m50eaf26edd" x="439.194651" y="32.002788" style="fill: #ff7f0e; stroke: #ff7f0e; stroke-linejoin: miter"/>
     <use xlink:href="#m50eaf26edd" x="446.551285" y="32.193839" style="fill: #ff7f0e; stroke: #ff7f0e; stroke-linejoin: miter"/>
    </g>
   </g>
   <g id="line2d_30">
    <path d="M 72.700041 115.425486 
L 76.039437 108.660353 
L 79.492794 103.803783 
L 83.069285 98.696633 
L 86.755909 93.532893 
L 90.555136 88.324623 
L 94.460532 83.724399 
L 98.419405 80.166111 
L 102.562385 75.963187 
L 106.896447 72.313249 
L 111.384239 68.875017 
L 115.989763 65.455454 
L 120.744267 61.825375 
L 125.599157 58.267935 
L 130.525496 55.930916 
L 135.660318 53.096192 
L 141.034353 50.664228 
L 146.578351 48.348691 
L 152.304907 45.690667 
L 158.206421 42.911629 
L 164.247983 40.457362 
L 170.363816 38.549274 
L 176.772938 37.04013 
L 183.448826 35.494498 
L 190.349946 33.723605 
L 197.477222 31.870102 
L 204.809154 30.322179 
L 212.304804 28.827344 
L 219.883196 27.980364 
L 227.859878 27.364949 
L 236.164134 26.41296 
L 244.754783 25.53022 
L 253.611465 24.566344 
L 262.712518 23.754124 
L 271.975987 22.981475 
L 281.369187 22.664521 
L 291.185381 22.540002 
L 301.381649 22.173808 
L 311.878508 21.771483 
L 322.676283 21.306845 
L 333.764197 21.111197 
L 345.133048 20.949428 
L 356.638526 20.972073 
L 368.723847 20.819915 
L 381.255263 20.711381 
L 394.194199 20.597235 
L 407.529226 19.935654 
L 421.293787 19.913972 
L 435.425041 19.908834 
L 449.486583 19.909712 
" clip-path="url(#p2a3e5eaabf)" style="fill: none; stroke: #1f77b4; stroke-width: 2; stroke-linecap: square"/>
    <defs>
     <path id="m7c5a80daba" d="M 0 2.5 
C 0.663008 2.5 1.29895 2.236584 1.767767 1.767767 
C 2.236584 1.29895 2.5 0.663008 2.5 0 
C 2.5 -0.663008 2.236584 -1.29895 1.767767 -1.767767 
C 1.29895 -2.236584 0.663008 -2.5 0 -2.5 
C -0.663008 -2.5 -1.29895 -2.236584 -1.767767 -1.767767 
C -2.236584 -1.29895 -2.5 -0.663008 -2.5 0 
C -2.5 0.663008 -2.236584 1.29895 -1.767767 1.767767 
C -1.29895 2.236584 -0.663008 2.5 0 2.5 
z
" style="stroke: #1f77b4"/>
    </defs>
    <g clip-path="url(#p2a3e5eaabf)">
     <use xlink:href="#m7c5a80daba" x="72.700041" y="115.425486" style="fill: #1f77b4; stroke: #1f77b4"/>
     <use xlink:href="#m7c5a80daba" x="76.039437" y="108.660353" style="fill: #1f77b4; stroke: #1f77b4"/>
     <use xlink:href="#m7c5a80daba" x="79.492794" y="103.803783" style="fill: #1f77b4; stroke: #1f77b4"/>
     <use xlink:href="#m7c5a80daba" x="83.069285" y="98.696633" style="fill: #1f77b4; stroke: #1f77b4"/>
     <use xlink:href="#m7c5a80daba" x="86.755909" y="93.532893" style="fill: #1f77b4; stroke: #1f77b4"/>
     <use xlink:href="#m7c5a80daba" x="90.555136" y="88.324623" style="fill: #1f77b4; stroke: #1f77b4"/>
     <use xlink:href="#m7c5a80daba" x="94.460532" y="83.724399" style="fill: #1f77b4; stroke: #1f77b4"/>
     <use xlink:href="#m7c5a80daba" x="98.419405" y="80.166111" style="fill: #1f77b4; stroke: #1f77b4"/>
     <use xlink:href="#m7c5a80daba" x="102.562385" y="75.963187" style="fill: #1f77b4; stroke: #1f77b4"/>
     <use xlink:href="#m7c5a80daba" x="106.896447" y="72.313249" style="fill: #1f77b4; stroke: #1f77b4"/>
     <use xlink:href="#m7c5a80daba" x="111.384239" y="68.875017" style="fill: #1f77b4; stroke: #1f77b4"/>
     <use xlink:href="#m7c5a80daba" x="115.989763" y="65.455454" style="fill: #1f77b4; stroke: #1f77b4"/>
     <use xlink:href="#m7c5a80daba" x="120.744267" y="61.825375" style="fill: #1f77b4; stroke: #1f77b4"/>
     <use xlink:href="#m7c5a80daba" x="125.599157" y="58.267935" style="fill: #1f77b4; stroke: #1f77b4"/>
     <use xlink:href="#m7c5a80daba" x="130.525496" y="55.930916" style="fill: #1f77b4; stroke: #1f77b4"/>
     <use xlink:href="#m7c5a80daba" x="135.660318" y="53.096192" style="fill: #1f77b4; stroke: #1f77b4"/>
     <use xlink:href="#m7c5a80daba" x="141.034353" y="50.664228" style="fill: #1f77b4; stroke: #1f77b4"/>
     <use xlink:href="#m7c5a80daba" x="146.578351" y="48.348691" style="fill: #1f77b4; stroke: #1f77b4"/>
     <use xlink:href="#m7c5a80daba" x="152.304907" y="45.690667" style="fill: #1f77b4; stroke: #1f77b4"/>
     <use xlink:href="#m7c5a80daba" x="158.206421" y="42.911629" style="fill: #1f77b4; stroke: #1f77b4"/>
     <use xlink:href="#m7c5a80daba" x="164.247983" y="40.457362" style="fill: #1f77b4; stroke: #1f77b4"/>
     <use xlink:href="#m7c5a80daba" x="170.363816" y="38.549274" style="fill: #1f77b4; stroke: #1f77b4"/>
     <use xlink:href="#m7c5a80daba" x="176.772938" y="37.04013" style="fill: #1f77b4; stroke: #1f77b4"/>
     <use xlink:href="#m7c5a80daba" x="183.448826" y="35.494498" style="fill: #1f77b4; stroke: #1f77b4"/>
     <use xlink:href="#m7c5a80daba" x="190.349946" y="33.723605" style="fill: #1f77b4; stroke: #1f77b4"/>
     <use xlink:href="#m7c5a80daba" x="197.477222" y="31.870102" style="fill: #1f77b4; stroke: #1f77b4"/>
     <use xlink:href="#m7c5a80daba" x="204.809154" y="30.322179" style="fill: #1f77b4; stroke: #1f77b4"/>
     <use xlink:href="#m7c5a80daba" x="212.304804" y="28.827344" style="fill: #1f77b4; stroke: #1f77b4"/>
     <use xlink:href="#m7c5a80daba" x="219.883196" y="27.980364" style="fill: #1f77b4; stroke: #1f77b4"/>
     <use xlink:href="#m7c5a80daba" x="227.859878" y="27.364949" style="fill: #1f77b4; stroke: #1f77b4"/>
     <use xlink:href="#m7c5a80daba" x="236.164134" y="26.41296" style="fill: #1f77b4; stroke: #1f77b4"/>
     <use xlink:href="#m7c5a80daba" x="244.754783" y="25.53022" style="fill: #1f77b4; stroke: #1f77b4"/>
     <use xlink:href="#m7c5a80daba" x="253.611465" y="24.566344" style="fill: #1f77b4; stroke: #1f77b4"/>
     <use xlink:href="#m7c5a80daba" x="262.712518" y="23.754124" style="fill: #1f77b4; stroke: #1f77b4"/>
     <use xlink:href="#m7c5a80daba" x="271.975987" y="22.981475" style="fill: #1f77b4; stroke: #1f77b4"/>
     <use xlink:href="#m7c5a80daba" x="281.369187" y="22.664521" style="fill: #1f77b4; stroke: #1f77b4"/>
     <use xlink:href="#m7c5a80daba" x="291.185381" y="22.540002" style="fill: #1f77b4; stroke: #1f77b4"/>
     <use xlink:href="#m7c5a80daba" x="301.381649" y="22.173808" style="fill: #1f77b4; stroke: #1f77b4"/>
     <use xlink:href="#m7c5a80daba" x="311.878508" y="21.771483" style="fill: #1f77b4; stroke: #1f77b4"/>
     <use xlink:href="#m7c5a80daba" x="322.676283" y="21.306845" style="fill: #1f77b4; stroke: #1f77b4"/>
     <use xlink:href="#m7c5a80daba" x="333.764197" y="21.111197" style="fill: #1f77b4; stroke: #1f77b4"/>
     <use xlink:href="#m7c5a80daba" x="345.133048" y="20.949428" style="fill: #1f77b4; stroke: #1f77b4"/>
     <use xlink:href="#m7c5a80daba" x="356.638526" y="20.972073" style="fill: #1f77b4; stroke: #1f77b4"/>
     <use xlink:href="#m7c5a80daba" x="368.723847" y="20.819915" style="fill: #1f77b4; stroke: #1f77b4"/>
     <use xlink:href="#m7c5a80daba" x="381.255263" y="20.711381" style="fill: #1f77b4; stroke: #1f77b4"/>
     <use xlink:href="#m7c5a80daba" x="394.194199" y="20.597235" style="fill: #1f77b4; stroke: #1f77b4"/>
     <use xlink:href="#m7c5a80daba" x="407.529226" y="19.935654" style="fill: #1f77b4; stroke: #1f77b4"/>
     <use xlink:href="#m7c5a80daba" x="421.293787" y="19.913972" style="fill: #1f77b4; stroke: #1f77b4"/>
     <use xlink:href="#m7c5a80daba" x="435.425041" y="19.908834" style="fill: #1f77b4; stroke: #1f77b4"/>
     <use xlink:href="#m7c5a80daba" x="449.486583" y="19.909712" style="fill: #1f77b4; stroke: #1f77b4"/>
    </g>
   </g>
   <g id="line2d_31">
    <defs>
     <path id="ma9a97d7940" d="M -6.637971 2.583728 
L -5.828957 2.583728 
C -5.284344 5.149453 -2.418005 6.579601 0.230659 6.579601 
C 2.883644 6.579601 5.746287 5.146581 6.290275 2.583728 
L 7.099289 2.583728 
C 7.366288 2.583728 7.5 2.260912 7.311195 2.072132 
L 5.637199 0.398136 
C 5.52017 0.281107 5.330416 0.281107 5.213362 0.398136 
L 3.539366 2.072132 
C 3.350561 2.260937 3.484273 2.583728 3.751272 2.583728 
L 4.629016 2.583728 
C 4.122289 3.940252 2.507132 4.746195 1.029808 4.931678 
L 1.029808 0.186205 
L 2.328467 0.186205 
C 2.493971 0.186205 2.628157 0.052018 2.628157 -0.113486 
L 2.628157 -1.112454 
C 2.628157 -1.277958 2.493971 -1.412144 2.328467 -1.412144 
L 1.029808 -1.412144 
L 1.029808 -1.548753 
C 1.960872 -1.877863 2.628033 -2.765621 2.628157 -3.809368 
C 2.628307 -5.11402 1.569401 -6.18876 0.264874 -6.206941 
C -1.074917 -6.225647 -2.166865 -5.145163 -2.166865 -3.809668 
C -2.166865 -2.765796 -1.499654 -1.877913 -0.568516 -1.548753 
L -0.568516 -1.412144 
L -1.867174 -1.412144 
C -2.032678 -1.412144 -2.166865 -1.277958 -2.166865 -1.112454 
L -2.166865 -0.113486 
C -2.166865 0.052018 -2.032678 0.186205 -1.867174 0.186205 
L -0.568516 0.186205 
L -0.568516 4.931678 
C -2.040395 4.746894 -3.660821 3.940727 -4.167723 2.583728 
L -3.289979 2.583728 
C -3.02298 2.583728 -2.889268 2.260912 -3.078073 2.072132 
L -4.752069 0.398136 
C -4.869098 0.281107 -5.058852 0.281107 -5.175906 0.398136 
L -6.849902 2.072132 
C -7.038682 2.260912 -6.90497 2.583728 -6.637971 2.583728 
L -6.637971 2.583728 
z
M 0.230659 -4.608842 
C 0.671329 -4.608842 1.029833 -4.250337 1.029833 -3.809668 
C 1.029833 -3.368998 0.671329 -3.010493 0.230659 -3.010493 
C -0.210011 -3.010493 -0.568516 -3.368998 -0.568516 -3.809668 
C -0.568516 -4.250337 -0.210011 -4.608842 0.230659 -4.608842 
z
" style="stroke: #ff0000"/>
    </defs>
    <g clip-path="url(#p2a3e5eaabf)">
     <use xlink:href="#ma9a97d7940" x="72.700041" y="115.425486" style="fill: #ff0000; stroke: #ff0000"/>
     <use xlink:href="#ma9a97d7940" x="98.419405" y="80.166111" style="fill: #ff0000; stroke: #ff0000"/>
     <use xlink:href="#ma9a97d7940" x="130.525496" y="55.930916" style="fill: #ff0000; stroke: #ff0000"/>
     <use xlink:href="#ma9a97d7940" x="170.363816" y="38.549274" style="fill: #ff0000; stroke: #ff0000"/>
     <use xlink:href="#ma9a97d7940" x="219.883196" y="27.980364" style="fill: #ff0000; stroke: #ff0000"/>
     <use xlink:href="#ma9a97d7940" x="281.369187" y="22.664521" style="fill: #ff0000; stroke: #ff0000"/>
     <use xlink:href="#ma9a97d7940" x="356.638526" y="20.972073" style="fill: #ff0000; stroke: #ff0000"/>
     <use xlink:href="#ma9a97d7940" x="449.486583" y="19.909712" style="fill: #ff0000; stroke: #ff0000"/>
    </g>
   </g>
   <g id="patch_3">
    <path d="M 53 280.6 
L 53 7.2 
" style="fill: none; stroke: #000000; stroke-width: 0.8; stroke-linejoin: miter; stroke-linecap: square"/>
   </g>
   <g id="patch_4">
    <path d="M 468.78 280.6 
L 468.78 7.2 
" style="fill: none; stroke: #000000; stroke-width: 0.8; stroke-linejoin: miter; stroke-linecap: square"/>
   </g>
   <g id="patch_5">
    <path d="M 53 280.6 
L 468.78 280.6 
" style="fill: none; stroke: #000000; stroke-width: 0.8; stroke-linejoin: miter; stroke-linecap: square"/>
   </g>
   <g id="patch_6">
    <path d="M 53 7.2 
L 468.78 7.2 
" style="fill: none; stroke: #000000; stroke-width: 0.8; stroke-linejoin: miter; stroke-linecap: square"/>
   </g>
   <g id="legend_1">
    <g id="patch_7">
     <path d="M 237.7725 271.6 
L 456.18 271.6 
Q 459.78 271.6 459.78 268 
L 459.78 167.965 
Q 459.78 164.365 456.18 164.365 
L 237.7725 164.365 
Q 234.1725 164.365 234.1725 167.965 
L 234.1725 268 
Q 234.1725 271.6 237.7725 271.6 
z
" style="fill: #ffffff; opacity: 0.8; stroke: #cccccc; stroke-linejoin: miter"/>
    </g>
    <g id="line2d_32">
     <path d="M 241.3725 177.865 
L 259.3725 177.865 
L 277.3725 177.865 
" style="fill: none; stroke: #bcbd22; stroke-width: 1.5; stroke-linecap: square"/>
     <g>
      <use xlink:href="#m00bd835857" x="259.3725" y="177.865" style="fill: #bcbd22; stroke: #bcbd22"/>
     </g>
    </g>
    <g id="text_16">
     <!-- Global -->
     <g transform="translate(291.7725 184.165) scale(0.18 -0.18)">
      <defs>
       <path id="TimesNewRomanPSMT-47" d="M 3928 4334 
L 4038 2997 
L 3928 2997 
Q 3763 3497 3500 3750 
Q 3122 4116 2528 4116 
Q 1719 4116 1297 3475 
Q 944 2934 944 2188 
Q 944 1581 1178 1081 
Q 1413 581 1792 348 
Q 2172 116 2572 116 
Q 2806 116 3025 175 
Q 3244 234 3447 350 
L 3447 1575 
Q 3447 1894 3398 1992 
Q 3350 2091 3248 2142 
Q 3147 2194 2891 2194 
L 2891 2313 
L 4531 2313 
L 4531 2194 
L 4453 2194 
Q 4209 2194 4119 2031 
Q 4056 1916 4056 1575 
L 4056 278 
Q 3697 84 3347 -6 
Q 2997 -97 2569 -97 
Q 1341 -97 703 691 
Q 225 1281 225 2053 
Q 225 2613 494 3125 
Q 813 3734 1369 4063 
Q 1834 4334 2469 4334 
Q 2700 4334 2889 4296 
Q 3078 4259 3425 4131 
Q 3600 4066 3659 4066 
Q 3719 4066 3761 4120 
Q 3803 4175 3813 4334 
L 3928 4334 
z
" transform="scale(0.015625)"/>
       <path id="TimesNewRomanPSMT-6c" d="M 1184 4444 
L 1184 647 
Q 1184 378 1223 290 
Q 1263 203 1344 158 
Q 1425 113 1647 113 
L 1647 0 
L 244 0 
L 244 113 
Q 441 113 512 153 
Q 584 194 625 287 
Q 666 381 666 647 
L 666 3247 
Q 666 3731 644 3842 
Q 622 3953 573 3993 
Q 525 4034 450 4034 
Q 369 4034 244 3984 
L 191 4094 
L 1044 4444 
L 1184 4444 
z
" transform="scale(0.015625)"/>
       <path id="TimesNewRomanPSMT-6f" d="M 1600 2947 
Q 2250 2947 2644 2453 
Q 2978 2031 2978 1484 
Q 2978 1100 2793 706 
Q 2609 313 2286 112 
Q 1963 -88 1566 -88 
Q 919 -88 538 428 
Q 216 863 216 1403 
Q 216 1797 411 2186 
Q 606 2575 925 2761 
Q 1244 2947 1600 2947 
z
M 1503 2744 
Q 1338 2744 1170 2645 
Q 1003 2547 900 2300 
Q 797 2053 797 1666 
Q 797 1041 1045 587 
Q 1294 134 1700 134 
Q 2003 134 2200 384 
Q 2397 634 2397 1244 
Q 2397 2006 2069 2444 
Q 1847 2744 1503 2744 
z
" transform="scale(0.015625)"/>
       <path id="TimesNewRomanPSMT-62" d="M 984 2369 
Q 1400 2947 1881 2947 
Q 2322 2947 2650 2570 
Q 2978 2194 2978 1541 
Q 2978 778 2472 313 
Q 2038 -88 1503 -88 
Q 1253 -88 995 3 
Q 738 94 469 275 
L 469 3241 
Q 469 3728 445 3840 
Q 422 3953 372 3993 
Q 322 4034 247 4034 
Q 159 4034 28 3984 
L -16 4094 
L 844 4444 
L 984 4444 
L 984 2369 
z
M 984 2169 
L 984 456 
Q 1144 300 1314 220 
Q 1484 141 1663 141 
Q 1947 141 2192 453 
Q 2438 766 2438 1363 
Q 2438 1913 2192 2208 
Q 1947 2503 1634 2503 
Q 1469 2503 1303 2419 
Q 1178 2356 984 2169 
z
" transform="scale(0.015625)"/>
       <path id="TimesNewRomanPSMT-61" d="M 1822 413 
Q 1381 72 1269 19 
Q 1100 -59 909 -59 
Q 613 -59 420 144 
Q 228 347 228 678 
Q 228 888 322 1041 
Q 450 1253 767 1440 
Q 1084 1628 1822 1897 
L 1822 2009 
Q 1822 2438 1686 2597 
Q 1550 2756 1291 2756 
Q 1094 2756 978 2650 
Q 859 2544 859 2406 
L 866 2225 
Q 866 2081 792 2003 
Q 719 1925 600 1925 
Q 484 1925 411 2006 
Q 338 2088 338 2228 
Q 338 2497 613 2722 
Q 888 2947 1384 2947 
Q 1766 2947 2009 2819 
Q 2194 2722 2281 2516 
Q 2338 2381 2338 1966 
L 2338 994 
Q 2338 584 2353 492 
Q 2369 400 2405 369 
Q 2441 338 2488 338 
Q 2538 338 2575 359 
Q 2641 400 2828 588 
L 2828 413 
Q 2478 -56 2159 -56 
Q 2006 -56 1915 50 
Q 1825 156 1822 413 
z
M 1822 616 
L 1822 1706 
Q 1350 1519 1213 1441 
Q 966 1303 859 1153 
Q 753 1003 753 825 
Q 753 600 887 451 
Q 1022 303 1197 303 
Q 1434 303 1822 616 
z
" transform="scale(0.015625)"/>
      </defs>
      <use xlink:href="#TimesNewRomanPSMT-47"/>
      <use xlink:href="#TimesNewRomanPSMT-6c" transform="translate(72.216797 0)"/>
      <use xlink:href="#TimesNewRomanPSMT-6f" transform="translate(100 0)"/>
      <use xlink:href="#TimesNewRomanPSMT-62" transform="translate(150 0)"/>
      <use xlink:href="#TimesNewRomanPSMT-61" transform="translate(200 0)"/>
      <use xlink:href="#TimesNewRomanPSMT-6c" transform="translate(244.384766 0)"/>
     </g>
    </g>
    <g id="line2d_33">
     <path d="M 241.3725 203.315313 
L 259.3725 203.315313 
L 277.3725 203.315313 
" style="fill: none; stroke-dasharray: 1,1.65; stroke-dashoffset: 0; stroke: #2ca02c"/>
     <g>
      <use xlink:href="#mc21601a38f" x="259.3725" y="203.315313" style="fill: #2ca02c; stroke: #2ca02c"/>
     </g>
    </g>
    <g id="text_17">
     <!-- Multiple Anchors -->
     <g transform="translate(291.7725 209.615313) scale(0.18 -0.18)">
      <defs>
       <path id="TimesNewRomanPSMT-75" d="M 2709 2863 
L 2709 1128 
Q 2709 631 2732 520 
Q 2756 409 2807 365 
Q 2859 322 2928 322 
Q 3025 322 3147 375 
L 3191 266 
L 2334 -88 
L 2194 -88 
L 2194 519 
Q 1825 119 1631 15 
Q 1438 -88 1222 -88 
Q 981 -88 804 51 
Q 628 191 559 409 
Q 491 628 491 1028 
L 491 2306 
Q 491 2509 447 2587 
Q 403 2666 317 2708 
Q 231 2750 6 2747 
L 6 2863 
L 1009 2863 
L 1009 947 
Q 1009 547 1148 422 
Q 1288 297 1484 297 
Q 1619 297 1789 381 
Q 1959 466 2194 703 
L 2194 2325 
Q 2194 2569 2105 2655 
Q 2016 2741 1734 2747 
L 1734 2863 
L 2709 2863 
z
" transform="scale(0.015625)"/>
       <path id="TimesNewRomanPSMT-74" d="M 1031 3803 
L 1031 2863 
L 1700 2863 
L 1700 2644 
L 1031 2644 
L 1031 788 
Q 1031 509 1111 412 
Q 1191 316 1316 316 
Q 1419 316 1516 380 
Q 1613 444 1666 569 
L 1788 569 
Q 1678 263 1478 108 
Q 1278 -47 1066 -47 
Q 922 -47 784 33 
Q 647 113 581 261 
Q 516 409 516 719 
L 516 2644 
L 63 2644 
L 63 2747 
Q 234 2816 414 2980 
Q 594 3144 734 3369 
Q 806 3488 934 3803 
L 1031 3803 
z
" transform="scale(0.015625)"/>
       <path id="TimesNewRomanPSMT-70" d="M -6 2578 
L 875 2934 
L 994 2934 
L 994 2266 
Q 1216 2644 1439 2795 
Q 1663 2947 1909 2947 
Q 2341 2947 2628 2609 
Q 2981 2197 2981 1534 
Q 2981 794 2556 309 
Q 2206 -88 1675 -88 
Q 1444 -88 1275 -22 
Q 1150 25 994 166 
L 994 -706 
Q 994 -1000 1030 -1079 
Q 1066 -1159 1155 -1206 
Q 1244 -1253 1478 -1253 
L 1478 -1369 
L -22 -1369 
L -22 -1253 
L 56 -1253 
Q 228 -1256 350 -1188 
Q 409 -1153 442 -1076 
Q 475 -1000 475 -688 
L 475 2019 
Q 475 2297 450 2372 
Q 425 2447 370 2484 
Q 316 2522 222 2522 
Q 147 2522 31 2478 
L -6 2578 
z
M 994 2081 
L 994 1013 
Q 994 666 1022 556 
Q 1066 375 1236 237 
Q 1406 100 1666 100 
Q 1978 100 2172 344 
Q 2425 663 2425 1241 
Q 2425 1897 2138 2250 
Q 1938 2494 1663 2494 
Q 1513 2494 1366 2419 
Q 1253 2363 994 2081 
z
" transform="scale(0.015625)"/>
       <path id="TimesNewRomanPSMT-41" d="M 2928 1419 
L 1288 1419 
L 1000 750 
Q 894 503 894 381 
Q 894 284 986 211 
Q 1078 138 1384 116 
L 1384 0 
L 50 0 
L 50 116 
Q 316 163 394 238 
Q 553 388 747 847 
L 2238 4334 
L 2347 4334 
L 3822 809 
Q 4000 384 4145 257 
Q 4291 131 4550 116 
L 4550 0 
L 2878 0 
L 2878 116 
Q 3131 128 3220 200 
Q 3309 272 3309 375 
Q 3309 513 3184 809 
L 2928 1419 
z
M 2841 1650 
L 2122 3363 
L 1384 1650 
L 2841 1650 
z
" transform="scale(0.015625)"/>
       <path id="TimesNewRomanPSMT-6e" d="M 1034 2341 
Q 1538 2947 1994 2947 
Q 2228 2947 2397 2830 
Q 2566 2713 2666 2444 
Q 2734 2256 2734 1869 
L 2734 647 
Q 2734 375 2778 278 
Q 2813 200 2889 156 
Q 2966 113 3172 113 
L 3172 0 
L 1756 0 
L 1756 113 
L 1816 113 
Q 2016 113 2095 173 
Q 2175 234 2206 353 
Q 2219 400 2219 647 
L 2219 1819 
Q 2219 2209 2117 2386 
Q 2016 2563 1775 2563 
Q 1403 2563 1034 2156 
L 1034 647 
Q 1034 356 1069 288 
Q 1113 197 1189 155 
Q 1266 113 1500 113 
L 1500 0 
L 84 0 
L 84 113 
L 147 113 
Q 366 113 442 223 
Q 519 334 519 647 
L 519 1709 
Q 519 2225 495 2337 
Q 472 2450 423 2490 
Q 375 2531 294 2531 
Q 206 2531 84 2484 
L 38 2597 
L 900 2947 
L 1034 2947 
L 1034 2341 
z
" transform="scale(0.015625)"/>
       <path id="TimesNewRomanPSMT-63" d="M 2631 1088 
Q 2516 522 2178 217 
Q 1841 -88 1431 -88 
Q 944 -88 581 321 
Q 219 731 219 1428 
Q 219 2103 620 2525 
Q 1022 2947 1584 2947 
Q 2006 2947 2278 2723 
Q 2550 2500 2550 2259 
Q 2550 2141 2473 2067 
Q 2397 1994 2259 1994 
Q 2075 1994 1981 2113 
Q 1928 2178 1911 2362 
Q 1894 2547 1784 2644 
Q 1675 2738 1481 2738 
Q 1169 2738 978 2506 
Q 725 2200 725 1697 
Q 725 1184 976 792 
Q 1228 400 1656 400 
Q 1963 400 2206 609 
Q 2378 753 2541 1131 
L 2631 1088 
z
" transform="scale(0.015625)"/>
       <path id="TimesNewRomanPSMT-68" d="M 1041 4444 
L 1041 2350 
Q 1388 2731 1591 2839 
Q 1794 2947 1997 2947 
Q 2241 2947 2416 2812 
Q 2591 2678 2675 2391 
Q 2734 2191 2734 1659 
L 2734 647 
Q 2734 375 2778 275 
Q 2809 200 2884 156 
Q 2959 113 3159 113 
L 3159 0 
L 1753 0 
L 1753 113 
L 1819 113 
Q 2019 113 2097 173 
Q 2175 234 2206 353 
Q 2216 403 2216 647 
L 2216 1659 
Q 2216 2128 2167 2275 
Q 2119 2422 2012 2495 
Q 1906 2569 1756 2569 
Q 1603 2569 1437 2487 
Q 1272 2406 1041 2159 
L 1041 647 
Q 1041 353 1073 281 
Q 1106 209 1195 161 
Q 1284 113 1503 113 
L 1503 0 
L 84 0 
L 84 113 
Q 275 113 384 172 
Q 447 203 484 290 
Q 522 378 522 647 
L 522 3238 
Q 522 3728 498 3840 
Q 475 3953 426 3993 
Q 378 4034 297 4034 
Q 231 4034 84 3984 
L 41 4094 
L 897 4444 
L 1041 4444 
z
" transform="scale(0.015625)"/>
       <path id="TimesNewRomanPSMT-72" d="M 1038 2947 
L 1038 2303 
Q 1397 2947 1775 2947 
Q 1947 2947 2059 2842 
Q 2172 2738 2172 2600 
Q 2172 2478 2090 2393 
Q 2009 2309 1897 2309 
Q 1788 2309 1652 2417 
Q 1516 2525 1450 2525 
Q 1394 2525 1328 2463 
Q 1188 2334 1038 2041 
L 1038 669 
Q 1038 431 1097 309 
Q 1138 225 1241 169 
Q 1344 113 1538 113 
L 1538 0 
L 72 0 
L 72 113 
Q 291 113 397 181 
Q 475 231 506 341 
Q 522 394 522 644 
L 522 1753 
Q 522 2253 501 2348 
Q 481 2444 426 2487 
Q 372 2531 291 2531 
Q 194 2531 72 2484 
L 41 2597 
L 906 2947 
L 1038 2947 
z
" transform="scale(0.015625)"/>
       <path id="TimesNewRomanPSMT-73" d="M 2050 2947 
L 2050 1972 
L 1947 1972 
Q 1828 2431 1642 2597 
Q 1456 2763 1169 2763 
Q 950 2763 815 2647 
Q 681 2531 681 2391 
Q 681 2216 781 2091 
Q 878 1963 1175 1819 
L 1631 1597 
Q 2266 1288 2266 781 
Q 2266 391 1970 151 
Q 1675 -88 1309 -88 
Q 1047 -88 709 6 
Q 606 38 541 38 
Q 469 38 428 -44 
L 325 -44 
L 325 978 
L 428 978 
Q 516 541 762 319 
Q 1009 97 1316 97 
Q 1531 97 1667 223 
Q 1803 350 1803 528 
Q 1803 744 1651 891 
Q 1500 1038 1047 1263 
Q 594 1488 453 1669 
Q 313 1847 313 2119 
Q 313 2472 555 2709 
Q 797 2947 1181 2947 
Q 1350 2947 1591 2875 
Q 1750 2828 1803 2828 
Q 1853 2828 1881 2850 
Q 1909 2872 1947 2947 
L 2050 2947 
z
" transform="scale(0.015625)"/>
      </defs>
      <use xlink:href="#TimesNewRomanPSMT-4d"/>
      <use xlink:href="#TimesNewRomanPSMT-75" transform="translate(88.916016 0)"/>
      <use xlink:href="#TimesNewRomanPSMT-6c" transform="translate(138.916016 0)"/>
      <use xlink:href="#TimesNewRomanPSMT-74" transform="translate(166.699219 0)"/>
      <use xlink:href="#TimesNewRomanPSMT-69" transform="translate(194.482422 0)"/>
      <use xlink:href="#TimesNewRomanPSMT-70" transform="translate(222.265625 0)"/>
      <use xlink:href="#TimesNewRomanPSMT-6c" transform="translate(272.265625 0)"/>
      <use xlink:href="#TimesNewRomanPSMT-65" transform="translate(300.048828 0)"/>
      <use xlink:href="#TimesNewRomanPSMT-20" transform="translate(344.433594 0)"/>
      <use xlink:href="#TimesNewRomanPSMT-41" transform="translate(363.933594 0)"/>
      <use xlink:href="#TimesNewRomanPSMT-6e" transform="translate(436.150391 0)"/>
      <use xlink:href="#TimesNewRomanPSMT-63" transform="translate(486.150391 0)"/>
      <use xlink:href="#TimesNewRomanPSMT-68" transform="translate(530.535156 0)"/>
      <use xlink:href="#TimesNewRomanPSMT-6f" transform="translate(580.535156 0)"/>
      <use xlink:href="#TimesNewRomanPSMT-72" transform="translate(630.535156 0)"/>
      <use xlink:href="#TimesNewRomanPSMT-73" transform="translate(663.835938 0)"/>
     </g>
    </g>
    <g id="line2d_34">
     <path d="M 241.3725 228.765625 
L 259.3725 228.765625 
L 277.3725 228.765625 
" style="fill: none; stroke: #ff7f0e; stroke-width: 1.5; stroke-linecap: square"/>
     <g>
      <use xlink:href="#m50eaf26edd" x="259.3725" y="228.765625" style="fill: #ff7f0e; stroke: #ff7f0e; stroke-linejoin: miter"/>
     </g>
    </g>
    <g id="text_18">
     <!-- Continuous Training -->
     <g transform="translate(291.7725 235.065625) scale(0.18 -0.18)">
      <defs>
       <path id="TimesNewRomanPSMT-43" d="M 3853 4334 
L 3950 2894 
L 3853 2894 
Q 3659 3541 3300 3825 
Q 2941 4109 2438 4109 
Q 2016 4109 1675 3895 
Q 1334 3681 1139 3212 
Q 944 2744 944 2047 
Q 944 1472 1128 1050 
Q 1313 628 1683 403 
Q 2053 178 2528 178 
Q 2941 178 3256 354 
Q 3572 531 3950 1056 
L 4047 994 
Q 3728 428 3303 165 
Q 2878 -97 2294 -97 
Q 1241 -97 663 684 
Q 231 1266 231 2053 
Q 231 2688 515 3219 
Q 800 3750 1298 4042 
Q 1797 4334 2388 4334 
Q 2847 4334 3294 4109 
Q 3425 4041 3481 4041 
Q 3566 4041 3628 4100 
Q 3709 4184 3744 4334 
L 3853 4334 
z
" transform="scale(0.015625)"/>
       <path id="TimesNewRomanPSMT-54" d="M 3703 4238 
L 3750 3244 
L 3631 3244 
Q 3597 3506 3538 3619 
Q 3441 3800 3280 3886 
Q 3119 3972 2856 3972 
L 2259 3972 
L 2259 734 
Q 2259 344 2344 247 
Q 2463 116 2709 116 
L 2856 116 
L 2856 0 
L 1059 0 
L 1059 116 
L 1209 116 
Q 1478 116 1591 278 
Q 1659 378 1659 734 
L 1659 3972 
L 1150 3972 
Q 853 3972 728 3928 
Q 566 3869 450 3700 
Q 334 3531 313 3244 
L 194 3244 
L 244 4238 
L 3703 4238 
z
" transform="scale(0.015625)"/>
       <path id="TimesNewRomanPSMT-67" d="M 966 1044 
Q 703 1172 562 1401 
Q 422 1631 422 1909 
Q 422 2334 742 2640 
Q 1063 2947 1563 2947 
Q 1972 2947 2272 2747 
L 2878 2747 
Q 3013 2747 3034 2739 
Q 3056 2731 3066 2713 
Q 3084 2684 3084 2613 
Q 3084 2531 3069 2500 
Q 3059 2484 3036 2475 
Q 3013 2466 2878 2466 
L 2506 2466 
Q 2681 2241 2681 1891 
Q 2681 1491 2375 1206 
Q 2069 922 1553 922 
Q 1341 922 1119 984 
Q 981 866 932 777 
Q 884 688 884 625 
Q 884 572 936 522 
Q 988 472 1138 450 
Q 1225 438 1575 428 
Q 2219 413 2409 384 
Q 2700 344 2873 169 
Q 3047 -6 3047 -263 
Q 3047 -616 2716 -925 
Q 2228 -1381 1444 -1381 
Q 841 -1381 425 -1109 
Q 191 -953 191 -784 
Q 191 -709 225 -634 
Q 278 -519 444 -313 
Q 466 -284 763 25 
Q 600 122 533 198 
Q 466 275 466 372 
Q 466 481 555 628 
Q 644 775 966 1044 
z
M 1509 2797 
Q 1278 2797 1122 2612 
Q 966 2428 966 2047 
Q 966 1553 1178 1281 
Q 1341 1075 1591 1075 
Q 1828 1075 1981 1253 
Q 2134 1431 2134 1813 
Q 2134 2309 1919 2591 
Q 1759 2797 1509 2797 
z
M 934 0 
Q 788 -159 713 -296 
Q 638 -434 638 -550 
Q 638 -700 819 -813 
Q 1131 -1006 1722 -1006 
Q 2284 -1006 2551 -807 
Q 2819 -609 2819 -384 
Q 2819 -222 2659 -153 
Q 2497 -84 2016 -72 
Q 1313 -53 934 0 
z
" transform="scale(0.015625)"/>
      </defs>
      <use xlink:href="#TimesNewRomanPSMT-43"/>
      <use xlink:href="#TimesNewRomanPSMT-6f" transform="translate(66.699219 0)"/>
      <use xlink:href="#TimesNewRomanPSMT-6e" transform="translate(116.699219 0)"/>
      <use xlink:href="#TimesNewRomanPSMT-74" transform="translate(166.699219 0)"/>
      <use xlink:href="#TimesNewRomanPSMT-69" transform="translate(194.482422 0)"/>
      <use xlink:href="#TimesNewRomanPSMT-6e" transform="translate(222.265625 0)"/>
      <use xlink:href="#TimesNewRomanPSMT-75" transform="translate(272.265625 0)"/>
      <use xlink:href="#TimesNewRomanPSMT-6f" transform="translate(322.265625 0)"/>
      <use xlink:href="#TimesNewRomanPSMT-75" transform="translate(372.265625 0)"/>
      <use xlink:href="#TimesNewRomanPSMT-73" transform="translate(422.265625 0)"/>
      <use xlink:href="#TimesNewRomanPSMT-20" transform="translate(461.181641 0)"/>
      <use xlink:href="#TimesNewRomanPSMT-54" transform="translate(484.431641 0)"/>
      <use xlink:href="#TimesNewRomanPSMT-72" transform="translate(542.015625 0)"/>
      <use xlink:href="#TimesNewRomanPSMT-61" transform="translate(575.316406 0)"/>
      <use xlink:href="#TimesNewRomanPSMT-69" transform="translate(619.701172 0)"/>
      <use xlink:href="#TimesNewRomanPSMT-6e" transform="translate(647.484375 0)"/>
      <use xlink:href="#TimesNewRomanPSMT-69" transform="translate(697.484375 0)"/>
      <use xlink:href="#TimesNewRomanPSMT-6e" transform="translate(725.267578 0)"/>
      <use xlink:href="#TimesNewRomanPSMT-67" transform="translate(775.267578 0)"/>
     </g>
    </g>
    <g id="line2d_35">
     <path d="M 241.3725 254.249688 
L 259.3725 254.249688 
L 277.3725 254.249688 
" style="fill: none; stroke: #1f77b4; stroke-width: 2; stroke-linecap: square"/>
     <g>
      <use xlink:href="#m7c5a80daba" x="259.3725" y="254.249688" style="fill: #1f77b4; stroke: #1f77b4"/>
     </g>
    </g>
    <g id="text_19">
     <!-- Context-Aware (Ours) -->
     <g transform="translate(291.7725 260.549688) scale(0.18 -0.18)">
      <defs>
       <path id="TimesNewRomanPSMT-78" d="M 84 2863 
L 1431 2863 
L 1431 2747 
Q 1303 2747 1251 2703 
Q 1200 2659 1200 2588 
Q 1200 2513 1309 2356 
Q 1344 2306 1413 2200 
L 1616 1875 
L 1850 2200 
Q 2075 2509 2075 2591 
Q 2075 2656 2022 2701 
Q 1969 2747 1850 2747 
L 1850 2863 
L 2819 2863 
L 2819 2747 
Q 2666 2738 2553 2663 
Q 2400 2556 2134 2200 
L 1744 1678 
L 2456 653 
Q 2719 275 2831 198 
Q 2944 122 3122 113 
L 3122 0 
L 1772 0 
L 1772 113 
Q 1913 113 1991 175 
Q 2050 219 2050 291 
Q 2050 363 1850 653 
L 1431 1266 
L 972 653 
Q 759 369 759 316 
Q 759 241 829 180 
Q 900 119 1041 113 
L 1041 0 
L 106 0 
L 106 113 
Q 219 128 303 191 
Q 422 281 703 653 
L 1303 1450 
L 759 2238 
Q 528 2575 401 2661 
Q 275 2747 84 2747 
L 84 2863 
z
" transform="scale(0.015625)"/>
       <path id="TimesNewRomanPSMT-2d" d="M 259 1672 
L 1875 1672 
L 1875 1200 
L 259 1200 
L 259 1672 
z
" transform="scale(0.015625)"/>
       <path id="TimesNewRomanPSMT-77" d="M 41 2863 
L 1241 2863 
L 1241 2747 
Q 1075 2734 1023 2687 
Q 972 2641 972 2553 
Q 972 2456 1025 2319 
L 1638 672 
L 2253 2013 
L 2091 2434 
Q 2016 2622 1894 2694 
Q 1825 2738 1638 2747 
L 1638 2863 
L 3000 2863 
L 3000 2747 
Q 2775 2738 2681 2666 
Q 2619 2616 2619 2506 
Q 2619 2444 2644 2378 
L 3294 734 
L 3897 2319 
Q 3959 2488 3959 2588 
Q 3959 2647 3898 2694 
Q 3838 2741 3659 2747 
L 3659 2863 
L 4563 2863 
L 4563 2747 
Q 4291 2706 4163 2378 
L 3206 -88 
L 3078 -88 
L 2363 1741 
L 1528 -88 
L 1413 -88 
L 494 2319 
Q 403 2547 315 2626 
Q 228 2706 41 2747 
L 41 2863 
z
" transform="scale(0.015625)"/>
       <path id="TimesNewRomanPSMT-28" d="M 1988 -1253 
L 1988 -1369 
Q 1516 -1131 1200 -813 
Q 750 -359 506 256 
Q 263 872 263 1534 
Q 263 2503 741 3301 
Q 1219 4100 1988 4444 
L 1988 4313 
Q 1603 4100 1356 3731 
Q 1109 3363 987 2797 
Q 866 2231 866 1616 
Q 866 947 969 400 
Q 1050 -31 1165 -292 
Q 1281 -553 1476 -793 
Q 1672 -1034 1988 -1253 
z
" transform="scale(0.015625)"/>
       <path id="TimesNewRomanPSMT-4f" d="M 2341 4334 
Q 3166 4334 3770 3707 
Q 4375 3081 4375 2144 
Q 4375 1178 3765 540 
Q 3156 -97 2291 -97 
Q 1416 -97 820 525 
Q 225 1147 225 2134 
Q 225 3144 913 3781 
Q 1509 4334 2341 4334 
z
M 2281 4106 
Q 1713 4106 1369 3684 
Q 941 3159 941 2147 
Q 941 1109 1384 550 
Q 1725 125 2284 125 
Q 2881 125 3270 590 
Q 3659 1056 3659 2059 
Q 3659 3147 3231 3681 
Q 2888 4106 2281 4106 
z
" transform="scale(0.015625)"/>
       <path id="TimesNewRomanPSMT-29" d="M 144 4313 
L 144 4444 
Q 619 4209 934 3891 
Q 1381 3434 1625 2820 
Q 1869 2206 1869 1541 
Q 1869 572 1392 -226 
Q 916 -1025 144 -1369 
L 144 -1253 
Q 528 -1038 776 -670 
Q 1025 -303 1145 264 
Q 1266 831 1266 1447 
Q 1266 2113 1163 2663 
Q 1084 3094 967 3353 
Q 850 3613 656 3853 
Q 463 4094 144 4313 
z
" transform="scale(0.015625)"/>
      </defs>
      <use xlink:href="#TimesNewRomanPSMT-43"/>
      <use xlink:href="#TimesNewRomanPSMT-6f" transform="translate(66.699219 0)"/>
      <use xlink:href="#TimesNewRomanPSMT-6e" transform="translate(116.699219 0)"/>
      <use xlink:href="#TimesNewRomanPSMT-74" transform="translate(166.699219 0)"/>
      <use xlink:href="#TimesNewRomanPSMT-65" transform="translate(194.482422 0)"/>
      <use xlink:href="#TimesNewRomanPSMT-78" transform="translate(238.867188 0)"/>
      <use xlink:href="#TimesNewRomanPSMT-74" transform="translate(288.867188 0)"/>
      <use xlink:href="#TimesNewRomanPSMT-2d" transform="translate(316.650391 0)"/>
      <use xlink:href="#TimesNewRomanPSMT-41" transform="translate(349.951172 0)"/>
      <use xlink:href="#TimesNewRomanPSMT-77" transform="translate(413.042969 0)"/>
      <use xlink:href="#TimesNewRomanPSMT-61" transform="translate(485.259766 0)"/>
      <use xlink:href="#TimesNewRomanPSMT-72" transform="translate(529.644531 0)"/>
      <use xlink:href="#TimesNewRomanPSMT-65" transform="translate(562.945312 0)"/>
      <use xlink:href="#TimesNewRomanPSMT-20" transform="translate(607.330078 0)"/>
      <use xlink:href="#TimesNewRomanPSMT-28" transform="translate(632.330078 0)"/>
      <use xlink:href="#TimesNewRomanPSMT-4f" transform="translate(665.630859 0)"/>
      <use xlink:href="#TimesNewRomanPSMT-75" transform="translate(737.847656 0)"/>
      <use xlink:href="#TimesNewRomanPSMT-72" transform="translate(787.847656 0)"/>
      <use xlink:href="#TimesNewRomanPSMT-73" transform="translate(821.148438 0)"/>
      <use xlink:href="#TimesNewRomanPSMT-29" transform="translate(860.064453 0)"/>
     </g>
    </g>
   </g>
  </g>
 </g>
 <defs>
  <clipPath id="p2a3e5eaabf">
   <rect x="53" y="7.2" width="415.78" height="273.4"/>
  </clipPath>
 </defs>
</svg>
