<?xml version="1.0" encoding="UTF-8" standalone="no"?>
<!DOCTYPE svg PUBLIC "-//W3C//DTD SVG 1.1//EN" "http://www.w3.org/Graphics/SVG/1.1/DTD/svg11.dtd">
<!-- Generated by Microsoft Visio, SVG Export favicon.svg Page-1 -->
<svg xmlns="http://www.w3.org/2000/svg" xmlns:xlink="http://www.w3.org/1999/xlink" xmlns:ev="http://www.w3.org/2001/xml-events"
		width="1.01389in" height="1.01389in" viewBox="0 0 73 73" xml:space="preserve" color-interpolation-filters="sRGB"
		class="st5">
	<style type="text/css">
	<![CDATA[
		.st1 {fill:#f2f2f2;stroke:#595959;stroke-linecap:round;stroke-linejoin:round;stroke-width:1}
		.st2 {fill:url(#grad13-6);stroke:#000000;stroke-linecap:round;stroke-linejoin:round;stroke-width:1}
		.st3 {fill:url(#grad13-14);stroke:#000000;stroke-linecap:round;stroke-linejoin:round;stroke-width:1}
		.st4 {fill:url(#grad13-22);stroke:#000000;stroke-linecap:round;stroke-linejoin:round;stroke-width:1}
		.st5 {fill:none;fill-rule:evenodd;font-size:12px;overflow:visible;stroke-linecap:square;stroke-miterlimit:3}
	]]>
	</style>

	<defs id="Patterns_And_Gradients">
		<pattern id="grad13-6" x="0" y="0" width="1" height="1" patternContentUnits="objectBoundingBox">
			<path d="M 0.5 0.5 L 0 0 L 0 1 z" style="fill:url(#grad0-7)"/>
			<path d="M 0.5 0.5 L 1 0 L 1 1 z" style="fill:url(#grad0-8)"/>
			<path d="M 0.5 0.5 L 0 0 L 1 0 z" style="fill:url(#grad0-9)"/>
			<path d="M 0.5 0.5 L 0 1 L 1 1 z" style="fill:url(#grad0-10)"/>
		</pattern>
		<linearGradient id="grad0-7" x1="0" y1="0" x2="1" y2="0" gradientTransform="rotate(180 0.5 0.5)">
			<stop offset="0" stop-color="#bbaecc" stop-opacity="1"/>
			<stop offset="0.6" stop-color="#ddd6e5" stop-opacity="1"/>
			<stop offset="1" stop-color="#ffffff" stop-opacity="1"/>
		</linearGradient>
		<linearGradient id="grad0-8" x1="0" y1="0" x2="1" y2="0" gradientTransform="rotate(360 0.5 0.5)">
			<stop offset="0" stop-color="#bbaecc" stop-opacity="1"/>
			<stop offset="0.6" stop-color="#ddd6e5" stop-opacity="1"/>
			<stop offset="1" stop-color="#ffffff" stop-opacity="1"/>
		</linearGradient>
		<linearGradient id="grad0-9" x1="0" y1="0" x2="1" y2="0" gradientTransform="rotate(270 0.5 0.5)">
			<stop offset="0" stop-color="#bbaecc" stop-opacity="1"/>
			<stop offset="0.6" stop-color="#ddd6e5" stop-opacity="1"/>
			<stop offset="1" stop-color="#ffffff" stop-opacity="1"/>
		</linearGradient>
		<linearGradient id="grad0-10" x1="0" y1="0" x2="1" y2="0" gradientTransform="rotate(90 0.5 0.5)">
			<stop offset="0" stop-color="#bbaecc" stop-opacity="1"/>
			<stop offset="0.6" stop-color="#ddd6e5" stop-opacity="1"/>
			<stop offset="1" stop-color="#ffffff" stop-opacity="1"/>
		</linearGradient>
		<pattern id="grad13-14" x="0" y="0" width="1" height="1" patternContentUnits="objectBoundingBox">
			<path d="M 0.5 0.5 L 0 0 L 0 1 z" style="fill:url(#grad0-15)"/>
			<path d="M 0.5 0.5 L 1 0 L 1 1 z" style="fill:url(#grad0-16)"/>
			<path d="M 0.5 0.5 L 0 0 L 1 0 z" style="fill:url(#grad0-17)"/>
			<path d="M 0.5 0.5 L 0 1 L 1 1 z" style="fill:url(#grad0-18)"/>
		</pattern>
		<linearGradient id="grad0-15" x1="0" y1="0" x2="1" y2="0" gradientTransform="rotate(180 0.5 0.5)">
			<stop offset="0" stop-color="#ffcc33" stop-opacity="1"/>
			<stop offset="0.6" stop-color="#fee599" stop-opacity="1"/>
			<stop offset="1" stop-color="#ffffff" stop-opacity="1"/>
		</linearGradient>
		<linearGradient id="grad0-16" x1="0" y1="0" x2="1" y2="0" gradientTransform="rotate(360 0.5 0.5)">
			<stop offset="0" stop-color="#ffcc33" stop-opacity="1"/>
			<stop offset="0.6" stop-color="#fee599" stop-opacity="1"/>
			<stop offset="1" stop-color="#ffffff" stop-opacity="1"/>
		</linearGradient>
		<linearGradient id="grad0-17" x1="0" y1="0" x2="1" y2="0" gradientTransform="rotate(270 0.5 0.5)">
			<stop offset="0" stop-color="#ffcc33" stop-opacity="1"/>
			<stop offset="0.6" stop-color="#fee599" stop-opacity="1"/>
			<stop offset="1" stop-color="#ffffff" stop-opacity="1"/>
		</linearGradient>
		<linearGradient id="grad0-18" x1="0" y1="0" x2="1" y2="0" gradientTransform="rotate(90 0.5 0.5)">
			<stop offset="0" stop-color="#ffcc33" stop-opacity="1"/>
			<stop offset="0.6" stop-color="#fee599" stop-opacity="1"/>
			<stop offset="1" stop-color="#ffffff" stop-opacity="1"/>
		</linearGradient>
		<pattern id="grad13-22" x="0" y="0" width="1" height="1" patternContentUnits="objectBoundingBox">
			<path d="M 0.5 0.5 L 0 0 L 0 1 z" style="fill:url(#grad0-23)"/>
			<path d="M 0.5 0.5 L 1 0 L 1 1 z" style="fill:url(#grad0-24)"/>
			<path d="M 0.5 0.5 L 0 0 L 1 0 z" style="fill:url(#grad0-25)"/>
			<path d="M 0.5 0.5 L 0 1 L 1 1 z" style="fill:url(#grad0-26)"/>
		</pattern>
		<linearGradient id="grad0-23" x1="0" y1="0" x2="1" y2="0" gradientTransform="rotate(180 0.5 0.5)">
			<stop offset="0" stop-color="#cc736b" stop-opacity="1"/>
			<stop offset="0.6" stop-color="#e5b9b5" stop-opacity="1"/>
			<stop offset="1" stop-color="#ffffff" stop-opacity="1"/>
		</linearGradient>
		<linearGradient id="grad0-24" x1="0" y1="0" x2="1" y2="0" gradientTransform="rotate(360 0.5 0.5)">
			<stop offset="0" stop-color="#cc736b" stop-opacity="1"/>
			<stop offset="0.6" stop-color="#e5b9b5" stop-opacity="1"/>
			<stop offset="1" stop-color="#ffffff" stop-opacity="1"/>
		</linearGradient>
		<linearGradient id="grad0-25" x1="0" y1="0" x2="1" y2="0" gradientTransform="rotate(270 0.5 0.5)">
			<stop offset="0" stop-color="#cc736b" stop-opacity="1"/>
			<stop offset="0.6" stop-color="#e5b9b5" stop-opacity="1"/>
			<stop offset="1" stop-color="#ffffff" stop-opacity="1"/>
		</linearGradient>
		<linearGradient id="grad0-26" x1="0" y1="0" x2="1" y2="0" gradientTransform="rotate(90 0.5 0.5)">
			<stop offset="0" stop-color="#cc736b" stop-opacity="1"/>
			<stop offset="0.6" stop-color="#e5b9b5" stop-opacity="1"/>
			<stop offset="1" stop-color="#ffffff" stop-opacity="1"/>
		</linearGradient>
	</defs>
	<defs id="Masters"/>
	<g>
		<title>Page-1</title>
		<g id="shape14-1" transform="translate(0.5,-0.5)">
			<title>Circle.33</title>
			<path d="M0 37 A36 36 0 0 1 72 37 A36 36 0 1 1 0 37 Z" class="st1"/>
		</g>
		<g id="shape15-3" transform="translate(-7.09669,16.7863) rotate(-60)">
			<title>Ellipse.15</title>
			<path d="M0 60.03 A8.64702 12.9705 0 1 1 17.29 60.03 A8.64702 12.9705 0 1 1 -0 60.03 Z" class="st2"/>
		</g>
		<g id="shape16-11" transform="translate(-39.5323,47.2028) rotate(-75)">
			<title>Ellipse.3</title>
			<path d="M0 66.18 A11.3618 6.81708 0 1 1 22.72 66.18 A11.3618 6.81708 0 1 1 0 66.18 Z" class="st3"/>
		</g>
		<g id="shape17-19" transform="translate(-39.2119,33.9307) rotate(-75)">
			<title>Ellipse.11</title>
			<path d="M0 63.59 A18.8223 9.41113 0 1 1 37.64 63.59 A18.8223 9.41113 0 1 1 -0 63.59 Z" class="st4"/>
		</g>
		<g id="shape18-27" transform="translate(-21.4655,65.9335) rotate(-90)">
			<title>Ellipse.5</title>
			<path d="M0 61.64 A17.0427 11.3618 0 1 1 34.09 61.64 A17.0427 11.3618 0 1 1 0 61.64 Z" class="st3"/>
		</g>
		<g id="shape19-30" transform="translate(-23.6484,34.3348) rotate(-90)">
			<title>Ellipse.6</title>
			<path d="M0 63.91 A13.6342 9.08944 0 1 1 27.27 63.91 A13.6342 9.08944 0 1 1 0 63.91 Z" class="st3"/>
		</g>
		<g id="shape20-33" transform="translate(11.3113,73.848) rotate(-135)">
			<title>Ellipse.20</title>
			<path d="M0 64.35 A10.8088 8.64702 0 0 1 21.62 64.35 A10.8088 8.64702 0 1 1 0 64.35 Z" class="st2"/>
		</g>
		<g id="shape21-36" transform="translate(52.94,-45.1736) rotate(30)">
			<title>Ellipse.14</title>
			<path d="M0 67.12 A11.7639 5.88196 0 0 1 23.53 67.12 A11.7639 5.88196 0 1 1 0 67.12 Z" class="st4"/>
		</g>
		<g id="shape22-39" transform="translate(52.7165,-11.5817) rotate(15)">
			<title>Ellipse.21</title>
			<path d="M0 67.12 A11.7639 5.88196 0 0 1 23.53 67.12 A11.7639 5.88196 0 1 1 0 67.12 Z" class="st4"/>
		</g>
		<g id="shape23-42" transform="translate(-42.5975,38.7099) rotate(-90)">
			<title>Ellipse.7</title>
			<path d="M0 66.18 A11.3618 6.81708 0 1 1 22.72 66.18 A11.3618 6.81708 0 1 1 0 66.18 Z" class="st3"/>
		</g>
		<g id="shape24-45" transform="translate(-21.9734,25.5913) rotate(-60)">
			<title>Ellipse.24</title>
			<path d="M0 67.6 A16.2132 5.40439 0 0 1 32.43 67.6 A16.2132 5.40439 0 1 1 -0 67.6 Z" class="st2"/>
		</g>
		<g id="shape25-48" transform="translate(-22.7394,15.4961) rotate(-45)">
			<title>Ellipse.27</title>
			<path d="M0 60.03 A6.48527 12.9705 0 1 1 12.97 60.03 A6.48527 12.9705 0 1 1 0 60.03 Z" class="st2"/>
		</g>
		<g id="shape26-51" transform="translate(-34.0186,39.4396) rotate(-75)">
			<title>Ellipse.13</title>
			<path d="M0 65.94 A18.8223 7.05835 0 0 1 37.64 65.94 A18.8223 7.05835 0 1 1 0 65.94 Z" class="st4"/>
		</g>
	</g>
</svg>
