<?xml version="1.0" encoding="UTF-8" standalone="no"?>
<!-- Generator: Adobe Illustrator 19.2.1, SVG Export Plug-In . SVG Version: 6.00 Build 0)  -->

<svg
   version="1.1"
   id="layer"
   x="0px"
   y="0px"
   viewBox="0 0 317 500"
   style="enable-background:new 0 0 317 500;"
   xml:space="preserve"
   sodipodi:docname="telecom-paris-logo-vector.svg"
   inkscape:version="1.4.2 (ebf0e94, 2025-05-08)"
   xmlns:inkscape="http://www.inkscape.org/namespaces/inkscape"
   xmlns:sodipodi="http://sodipodi.sourceforge.net/DTD/sodipodi-0.dtd"
   xmlns="http://www.w3.org/2000/svg"
   xmlns:svg="http://www.w3.org/2000/svg"><defs
   id="defs49" /><sodipodi:namedview
   id="namedview49"
   pagecolor="#ffffff"
   bordercolor="#000000"
   borderopacity="0.25"
   inkscape:showpageshadow="2"
   inkscape:pageopacity="0.0"
   inkscape:pagecheckerboard="0"
   inkscape:deskcolor="#d1d1d1"
   inkscape:zoom="0.52607362"
   inkscape:cx="126.40816"
   inkscape:cy="459.06122"
   inkscape:window-width="1587"
   inkscape:window-height="917"
   inkscape:window-x="92"
   inkscape:window-y="69"
   inkscape:window-maximized="0"
   inkscape:current-layer="layer" />
<style
   type="text/css"
   id="style1">
	.st0{fill:#C80E47;}
	.st1{fill:#C9CACA;}
	.st2{fill:#FFFFFF;}
</style>
<g
   id="g49"
   transform="translate(-162.3,-71.699997)">
	<path
   d="m 206.8,524.7 c -12.9,-8.9 -19.8,-13.6 -26.3,-18.4 -3.1,5.2 -4.9,11.2 -4.9,17.7 0,11.8 5.9,22.2 15,28.3 3.7,-7.3 8.8,-15.6 16.2,-27.6"
   id="path1" />
	<path
   d="m 240.6,531.6 c -5.3,5.6 -13.8,6.5 -19.9,2.6 -1.2,-0.7 -9.6,-6.5 -9.6,-6.5 -9.3,13.1 -14,19.6 -19.1,25.7 5.2,3.2 11.3,5 17.9,5 18.4,0 33.4,-14.5 34.3,-32.7 -0.8,2.2 -2,4.2 -3.6,5.9"
   id="path2" />
	<path
   d="m 234.2,512.3 c -1.1,-0.8 -8.5,-5.6 -8.5,-5.6 -6,8.9 -7,10.2 -11.6,16.8 0,0 8,5.2 9.2,5.9 4.1,2.5 9.6,1.8 12.9,-1.8 1.2,-1.4 2.1,-3.1 2.5,-4.9 0.6,-3.4 -0.5,-7.8 -4.5,-10.4"
   id="path3" />
	<path
   d="m 209.5,520.4 c 4.4,-6.9 8.3,-13.1 14.5,-22.4 0,0 13,8.6 14.1,9.4 1.4,1 2.3,1.9 3.1,2.9 -5.3,-12.1 -17.4,-20.5 -31.4,-20.5 -11.2,0 -21.1,5.4 -27.4,13.6 7,4.1 15.2,9.4 27.1,17"
   id="path4" />
	<path
   d="m 177.4,499.4 c 0,-2.4 -1.9,-4.3 -4.3,-4.3 -2.4,0 -4.3,1.9 -4.3,4.3 0,2.4 1.9,4.3 4.3,4.3 2.4,0 4.3,-2 4.3,-4.3"
   id="path5" />
	<path
   d="m 180.5,486.7 2,-1.5 c 1.2,-0.9 2.5,-0.7 3.2,0.3 v 0 c 0.8,1.2 0.3,2.4 -0.8,3.2 l -1,0.7 1.2,1.7 -0.9,0.6 z m 3.8,1.3 c 0.7,-0.5 0.8,-1.2 0.5,-1.7 v 0 c -0.4,-0.6 -1.1,-0.6 -1.8,-0.1 l -1.1,0.8 1.3,1.9 z"
   id="path6" />
	<path
   d="m 188.9,484.9 v 0 c -0.7,-1.7 -0.1,-3.6 1.7,-4.4 1.8,-0.8 3.6,0 4.4,1.6 v 0 c 0.7,1.6 0.1,3.6 -1.7,4.4 -1.8,0.9 -3.7,0.1 -4.4,-1.6 m 5,-2.2 v 0 c -0.5,-1.1 -1.7,-1.7 -2.9,-1.2 -1.2,0.5 -1.6,1.8 -1.1,2.9 v 0 c 0.5,1.1 1.7,1.7 2.9,1.2 1.2,-0.5 1.6,-1.7 1.1,-2.9"
   id="path7" />
	<polygon
   points="203.4,483.4 199,484.4 197.7,478.2 198.8,477.9 199.9,483.1 203.2,482.4 "
   id="polygon7" />
	<polygon
   points="208.8,476.6 210.1,476.5 207.8,480.5 207.9,483 206.8,483.1 206.7,480.6 203.9,476.9 205.2,476.8 207.2,479.5 "
   id="polygon8" />
	<polygon
   points="217.8,478.3 215.8,478 215.1,483.3 214,483.2 214.6,477.9 212.6,477.7 212.7,476.7 217.9,477.2 "
   id="polygon9" />
	<polygon
   points="222,480.9 225,481.9 224.7,482.8 221.7,481.9 221.2,483.5 224.6,484.6 224.3,485.5 219.8,484.2 221.7,478.1 226.2,479.5 225.9,480.4 222.4,479.4 "
   id="polygon10" />
	<path
   d="m 228.4,483.8 v 0 c 0.9,-1.6 2.8,-2.3 4.4,-1.3 1,0.6 1.5,1.2 1.7,2 l -1,0.4 c -0.2,-0.7 -0.6,-1.2 -1.2,-1.5 -1.1,-0.6 -2.3,-0.1 -2.9,1 v 0 c -0.6,1.1 -0.3,2.4 0.8,3 0.7,0.4 1.3,0.3 2,0.1 l 0.3,1 c -0.9,0.3 -1.8,0.3 -2.8,-0.2 -1.7,-1 -2.2,-2.9 -1.3,-4.5"
   id="path10" />
	<polygon
   points="241.4,488.7 242.3,489.4 238.2,494.2 237.4,493.5 239.1,491.5 236.8,489.5 235,491.6 234.2,490.9 238.3,486 239.1,486.7 237.4,488.7 239.7,490.7 "
   id="polygon11" />
	<polygon
   points="249.1,497.3 244.1,501.1 243.5,500.4 244.9,494.9 241.3,497.6 240.7,496.8 245.7,492.9 246.3,493.7 244.9,499.1 248.4,496.4 "
   id="polygon12" />
	<polygon
   points="251.3,500.9 251.8,501.9 246.2,505 245.7,504 "
   id="polygon13" />
	<path
   d="m 249.8,512.4 c -0.5,-0.4 -1,-0.9 -1.2,-1.6 -0.6,-1.8 0.3,-3.6 2,-4.2 v 0 c 1.7,-0.6 3.6,0.2 4.2,2.1 0.6,1.8 -0.3,3.6 -2,4.2 v 0 c -0.7,0.2 -1.4,0.2 -2.1,0 l -0.4,0.9 -1,-0.4 z m 0.4,-1 0.5,-1.3 1,0.4 -0.6,1.4 c 0.4,0.1 0.8,0.1 1.2,-0.1 v 0 c 1.2,-0.4 1.8,-1.6 1.4,-2.8 -0.4,-1.2 -1.6,-1.7 -2.8,-1.3 v 0 c -1.2,0.4 -1.8,1.6 -1.4,2.8 0.2,0.3 0.5,0.6 0.7,0.9"
   id="path13" />
	<path
   d="m 253,516.3 3.6,-0.4 0.1,1.1 -3.6,0.4 c -1.2,0.1 -1.7,0.8 -1.6,1.8 0.1,1 0.8,1.5 1.9,1.4 l 3.6,-0.4 0.1,1.1 -3.6,0.4 c -1.9,0.2 -3,-0.7 -3.1,-2.4 0,-1.7 0.8,-2.8 2.6,-3"
   id="path14" />
	<polygon
   points="254.6,526.4 254.4,529.6 253.4,529.5 253.6,526.4 251.9,526.2 251.6,529.9 250.6,529.8 251,525 257.3,525.5 257,530.2 256,530.2 256.2,526.6 "
   id="polygon14" />
	<polygon
   points="182.8,563.1 181.9,562.4 185.6,557.2 186.5,557.9 "
   id="polygon15" />
	<polygon
   points="174.3,555.5 178.8,551.1 179.4,551.7 178.7,557.4 181.9,554.2 182.7,555 178.2,559.5 177.4,558.7 178.1,553.2 175,556.3 "
   id="polygon16" />
	<path
   d="m 176.2,549.3 -1,-0.1 c 0.1,-0.8 0,-1.5 -0.4,-2.1 -0.4,-0.6 -0.9,-0.8 -1.3,-0.5 v 0 c -0.4,0.3 -0.4,0.6 0,1.7 0.5,1.3 0.6,2.2 -0.4,2.8 v 0 c -0.9,0.6 -2,0.3 -2.7,-0.8 -0.5,-0.8 -0.7,-1.5 -0.6,-2.4 h 1 c 0,0.7 0.1,1.3 0.4,1.8 0.4,0.5 0.8,0.7 1.2,0.4 v 0 c 0.4,-0.3 0.4,-0.6 0,-1.8 -0.5,-1.3 -0.4,-2.1 0.4,-2.7 v 0 c 1,-0.7 2.1,-0.3 2.8,0.8 0.5,1 0.7,1.9 0.6,2.9"
   id="path16" />
	<polygon
   points="166.2,540.1 167,541.9 171.9,539.8 172.4,540.8 167.5,542.9 168.3,544.8 167.3,545.2 165.3,540.5 "
   id="polygon17" />
	<rect
   x="164"
   y="535.09998"
   transform="matrix(0.9656,-0.2601,0.2601,0.9656,-133.59,61.9259)"
   width="6.4000001"
   height="1.1"
   id="rect17" />
	<polygon
   points="163.5,527.2 163.7,529.2 169,528.6 169.2,529.7 163.9,530.3 164.1,532.3 163.1,532.5 162.5,527.3 "
   id="polygon18" />
	<path
   d="m 166,523.9 -3.7,-0.2 0.1,-1.1 3.6,0.2 c 1.2,0.1 1.8,-0.5 1.9,-1.5 0.1,-1 -0.5,-1.6 -1.7,-1.7 l -3.6,-0.2 0.1,-1.1 3.6,0.2 c 1.9,0.1 2.8,1.3 2.7,2.9 -0.1,1.6 -1.2,2.6 -3,2.5"
   id="path18" />
	<polygon
   points="165.6,509.9 165.1,511.8 170.2,513.2 170,514.3 164.8,512.9 164.3,514.9 163.3,514.6 164.6,509.6 "
   id="polygon19" />
	<path
   d="m 195.7,562.5 2.5,0.7 c 2.5,0.7 3.5,2.3 2.9,4.2 v 0 c -0.5,1.9 -2.2,2.9 -4.8,2.1 l -2.4,-0.7 z m 1.2,5.3 c 1,0.3 1.7,0.1 2,-0.9 v 0 c 0.3,-0.9 -0.3,-1.5 -1.2,-1.8 l -0.4,-0.1 -0.8,2.7 z"
   id="path19" />
	<polygon
   points="207.2,567.4 210.4,567.5 210.4,569.1 207.1,569 207.1,569.7 210.6,569.9 210.5,571.7 204.8,571.4 205.1,564.8 210.8,565 210.7,566.9 207.2,566.7 "
   id="polygon20" />
	<path
   d="m 219.2,564 2.9,-0.9 c 1.7,-0.5 3.1,-0.1 3.5,1.4 v 0 c 0.5,1.5 -0.4,2.7 -2.2,3.2 l -0.7,0.2 0.5,1.7 -2.1,0.6 z m 3.7,2.3 c 0.5,-0.2 0.8,-0.5 0.7,-1 v 0 c -0.1,-0.5 -0.5,-0.6 -1.1,-0.4 l -0.6,0.2 0.4,1.4 z"
   id="path20" />
	<path
   d="m 229.1,560.1 1.9,-1.1 5.8,4.5 -2.1,1.2 -0.7,-0.6 -2,1.2 0.1,0.9 -2.1,1.2 z m 3.6,2.9 -1.3,-1.1 0.3,1.7 z"
   id="path21" />
	<path
   d="m 235.6,556 2.4,-2.2 c 0.9,-0.8 1.6,-1.1 2.3,-1.1 0.6,0 1.1,0.2 1.5,0.7 v 0 c 0.7,0.7 0.8,1.6 0.4,2.4 l 2.7,0.6 -1.9,1.7 -2.2,-0.5 v 0 l -0.3,0.3 1.3,1.4 -1.6,1.5 z m 4.5,0.2 c 0.4,-0.4 0.5,-0.8 0.2,-1.1 v 0 c -0.3,-0.3 -0.7,-0.2 -1.1,0.1 l -0.7,0.7 0.9,1 z"
   id="path22" />
	<rect
   x="244.5"
   y="546.79999"
   transform="matrix(0.5917,-0.8062,0.8062,0.5917,-343.2411,422.6567)"
   width="2.2"
   height="6.6999998"
   id="rect22" />
	<path
   d="m 250.4,547.4 -0.8,-1.7 c 0.8,-0.4 1.4,-1.1 1.7,-1.8 0.2,-0.4 0.2,-0.6 0,-0.6 v 0 c -0.2,-0.1 -0.4,0.1 -0.8,0.6 -0.9,1.2 -1.9,2.2 -3.2,1.6 v 0 c -1.1,-0.6 -1.6,-1.9 -0.8,-3.5 0.6,-1.2 1.3,-1.9 2.1,-2.3 l 0.9,1.6 c -0.7,0.4 -1.2,1 -1.5,1.5 -0.1,0.3 -0.1,0.5 0,0.6 v 0 c 0.2,0.1 0.3,0 0.8,-0.6 1,-1.4 2,-2.2 3.2,-1.6 v 0 c 1.3,0.6 1.5,2 0.7,3.6 -0.4,1.2 -1.3,2.2 -2.3,2.6"
   id="path23" />
	<rect
   x="276.39999"
   y="509.39999"
   width="6.4000001"
   height="29.299999"
   id="rect23" />
	<path
   d="m 307.2,509.4 h -12 v 29.3 h 6.4 v -8.8 h 4.9 c 6.6,0 11.9,-3.6 11.9,-10.3 0.1,-6.1 -4.2,-10.2 -11.2,-10.2 m -0.4,14.7 h -5.1 v -9 h 5 c 3.2,0 5.2,1.6 5.2,4.5 0,2.6 -1.9,4.5 -5.1,4.5"
   id="path24" />
	<path
   d="m 351.4,509.4 h -12 v 29.3 h 6.4 v -8.8 h 4.9 c 6.6,0 11.9,-3.6 11.9,-10.3 0.1,-6.1 -4.2,-10.2 -11.2,-10.2 m -0.4,14.7 h -5.1 v -9 h 5 c 3.2,0 5.2,1.6 5.2,4.5 0,2.6 -1.9,4.5 -5.1,4.5"
   id="path25" />
	<path
   d="m 378.8,509.2 h 5.9 l 12.6,29.5 h -6.7 l -2.7,-6.6 h -12.4 l -2.7,6.6 h -6.6 z m 6.7,17.2 -3.9,-9.5 -3.9,9.5 z"
   id="path26" />
	<path
   d="m 405.4,509.4 h 13.4 c 3.7,0 6.6,1 8.6,3 1.6,1.6 2.5,3.9 2.5,6.7 v 0.1 c 0,4.7 -2.6,7.7 -6.3,9.1 l 7.2,10.5 h -7.5 l -6.3,-9.4 h -0.1 -5 v 9.4 h -6.5 z m 12.9,14.2 c 3.1,0 4.9,-1.7 4.9,-4.1 v -0.1 c 0,-2.8 -1.9,-4.2 -5.1,-4.2 h -6.4 v 8.4 z"
   id="path27" />
	<rect
   x="440.79999"
   y="509.39999"
   width="6.4000001"
   height="29.299999"
   id="rect27" />
	<path
   d="m 470.6,521.1 c -5.1,-1.3 -6.3,-2 -6.3,-3.9 0,-1.4 1.3,-2.6 3.8,-2.6 2.5,0 5,1.1 7.6,2.9 l 3.4,-4.9 c -3,-2.4 -6.6,-3.7 -10.9,-3.7 -6,0 -10.3,3.6 -10.3,8.9 0,5.8 3.8,7.5 9.7,9 4.9,1.3 5.9,2.1 5.9,3.8 0,1.7 -1.6,2.8 -4.2,2.8 -3.4,0 -6.1,-1.4 -8.8,-3.6 l -3.8,4.6 c 3.5,3.1 8,4.7 12.4,4.7 6.3,0 10.8,-3.3 10.8,-9.1 0,-5.1 -3.3,-7.3 -9.3,-8.9"
   id="path28" />
	<rect
   x="162.8"
   y="451.29999"
   width="316.20001"
   height="3.4000001"
   id="rect28" />
	<rect
   x="162.5"
   y="71.699997"
   width="316.20001"
   height="217.60001"
   id="rect29" />
	<path
   class="st0"
   d="M 478.5,387.6 478.4,304 h -14.2 c -1.5,2 -0.5,10.8 -5,12.5 -15.2,-3.4 -1.3,-5.1 -6.6,-12.5 -0.6,0 -6.9,0 -7.5,0 0.7,0.1 3.4,3.1 -0.6,6.5 -5.3,35 4.5,49.3 -0.5,77.1 z"
   id="path29" />
	<path
   class="st0"
   d="m 252.3,329.9 c 5.7,-2.7 5.7,-8.6 6,-12.5 -1.7,-1.9 -8.5,-2 -11.2,-1.6 -3.7,3.1 -0.5,8.7 -2.7,12.4 1.5,3.1 5.5,0.9 7.9,1.7"
   id="path30" />
	<path
   class="st0"
   d="m 284.8,371.3 1.7,0.5 c 1.5,0.3 3.6,0.4 5.2,-0.3 -0.4,-1.1 -1,-2.2 -1.7,-3 -1.8,0.9 -3.5,1.8 -5.2,2.8"
   id="path31" />
	<path
   class="st0"
   d="m 305.9,349.6 c -4,0.1 -7.5,5.9 -10.9,3.5 2,-5.6 6.4,-10.2 8.3,-15.7 3.3,-7.5 8.7,-23.8 6.4,-33.4 h -15.4 c -5,1.4 -1.3,14.3 -6.5,15.2 -1.4,-3.5 -1,-7.8 -5.1,-15.1 h -8.3 c 0.6,5.5 -0.2,5.8 -0.7,6.4 -2.9,0.1 -2.6,-4.3 -6.2,-2 -3.1,-0.6 -4,4.5 -7.3,3.5 -1.1,-2.7 -4.3,-6.2 -7.7,-4.1 3,6.5 18,9.1 10.9,19.8 -1.4,3.1 -0.3,7.6 -4.1,9.1 -6.7,-1.8 -13,-4.4 -19.8,-6.1 0.7,2.5 -1.1,6.1 -0.4,8.6 7.2,1 9.3,8.4 15.5,10.7 1.3,1 1.9,2.1 1.6,3.7 -4.3,1.8 -8.9,-2 -12.9,-3.7 -1,0.4 -0.5,1.4 -0.6,2.1 3.7,4.4 15.8,2.5 11.9,11.6 -3.3,7.5 -2.6,19.8 -13.9,20.8 -1,2.2 1.7,2.1 2.6,3.1 9.7,1 19.8,-8.3 27.9,-0.6 2.7,0 6.2,-1.7 8.3,0.5 h 24.4 c 4.6,-8.9 1,-14.6 1.5,-22.7 0.5,-2.1 -5.7,-4.2 -10.4,-3 -0.8,-0.6 -0.3,-1.7 -0.4,-2.7 3.1,-3.7 15.7,1.8 12.9,-7 -0.1,-0.7 -0.1,-2.4 -1.6,-2.5 m -51.7,-9.2 H 252 c -3,-1.1 -9.6,-2.6 -9.9,-6.1 4.2,1.1 7.9,3.2 12,4.6 v 1.5 z m 27.8,-26 -0.7,8.8 c -0.3,1.4 -1.4,4.1 -3.9,3.1 -3,0.7 -1.4,-2.9 -1.8,-4.3 2.7,-2.3 3.5,-7.1 6.4,-7.6 m 0.1,25.5 c -2.4,1.7 -6.6,1.1 -9.3,0.5 0.7,-1.1 0.9,-2.4 1,-3.6 1.7,-1.4 3.6,-4.5 6.7,-3.5 1.3,1.8 1.9,4.1 1.6,6.6 m -11.5,-24.5 c 0.3,-3.2 4.2,-2 6.3,-2.9 l 0.4,1.4 c -2,1.6 -3.5,4.9 -6.7,3.7 z m -0.4,35.2 c 3.9,0.8 8,-2.1 10.9,1 -1.3,2.7 -1.3,7.2 -5.7,4.6 -2,-1.6 -6.4,-0.8 -6.1,-4.6 z m -4.7,-37.7 c 0.7,-1.1 1.7,-3.2 3.7,-2.5 -0.2,1.7 -1,4.8 -3.7,3.5 z m -3,33.6 c 2.5,-1.4 5.9,-1.2 5.4,3.6 h -4 c -0.8,-1 -2,-1.9 -1.4,-3.6 m -9.5,-1.8 c 0.8,-1.3 2.3,-0.5 3.3,-0.7 0.4,3.1 5.2,-0.7 3.4,3.3 h -0.5 c -2.1,1.1 -5.5,0 -6.2,-2.6 m 5.8,34.8 c -3.6,-6.2 0.6,-16.5 1.6,-22.3 0.8,-0.8 1.7,-2 3.2,-1.5 1,3.2 -3.7,5.3 -0.6,8.1 3.3,-1 7.6,2 10.9,-0.5 -1.7,-2.8 -5.3,-1.4 -7.7,-2.5 v -1.5 l 7.3,-0.4 c 1.1,1.6 6.3,3 5.2,6 -5,6.6 -13.4,10.7 -19.9,14.6 m 33,-8 c 1.3,3.4 1.5,7.5 -0.1,10.2 l -16.6,0.6 v -2.1 c 2.9,-3.8 6.1,-6.5 9.8,-8.8 l -3.3,-0.9 c -4.7,-3.2 6.4,-7.9 8.1,-9.2 l 4.5,7.2 c -0.2,1.5 -1.2,2.5 -2.4,3 m -6.5,-38 c -3.4,-9.1 9,-12.8 13.7,-18.4 l 6.4,3.6 c -0.7,6.2 -12.1,7.4 -11.4,14.1 1.2,1 2.2,2.7 3.8,3 0.5,1.7 -0.9,2.7 -1.9,3.7 -4.9,2.1 -7.5,-2.8 -10.6,-6"
   id="path32" />
	<path
   class="st0"
   d="m 186.5,313 c -15.3,-1 -23.5,0.6 -23.7,0.5 v 12.1 h 2.9 c 3.5,1 5.8,1.1 9.3,1.1 12.8,1.3 23.7,-0.6 36.4,-1.3 -1.4,-0.4 -2.9,-0.8 -4.2,-0.7 -2.2,-1.6 -3.5,-2.7 -3,-5.3 3.4,-3.6 9.6,-0.6 13.5,-2.8 3.5,1.3 1.2,5.2 2,7.5 -0.4,0.7 -0.7,0.6 -1.1,1 3.9,0 8.1,0.1 12.5,0.5 V 313 c -19,-1 -32.4,0.7 -44.6,0"
   id="path33" />
	<path
   class="st0"
   d="m 330.2,308.7 c 6.2,1.5 12.6,2.3 19.2,2.5 V 304 H 322 c 0,5.8 -4.4,13.9 -4.4,13.9 2.4,0 4.7,0.1 6.9,1.2 v 1.5 c -2.2,-0.6 -4.5,-0.8 -6.9,-1 v 23.7 h 3 c 0.2,0.6 0.7,0.9 0.6,1.5 l -0.6,1.1 h -3 v 2.9 c 1,0.1 2.1,0.3 3,0.1 0.1,0.1 0.1,0.3 0.2,0.4 1.4,0.3 2.4,2.1 4.2,1.2 v 1.5 h -3.2 c -0.6,0 -1.4,-0.2 -1.9,-0.7 -0.7,0.3 -1.6,0.4 -2.4,0.3 v 2.2 c 2.4,-0.9 5.6,0.1 7.9,0.2 0.3,0.6 0.8,0.9 0.6,1.6 l -0.6,1.1 c -2.4,-0.9 -5.4,-0.4 -7.9,-0.7 v 18.4 c 0.9,0.2 1.7,0.4 2.4,0.6 0.3,0.7 1,1.1 1,2 -0.9,0.6 -2.2,0.7 -3.4,0.5 v 10.3 h 31.8 v -10.3 c -1.2,0.2 -4.2,0.4 -5.2,-0.2 0,-0.8 3.2,-7.3 4,-7.4 l 1.1,-13.7 c -2.5,0.3 -5.4,-0.2 -7.8,0.7 l -0.6,-1.1 c -0.2,-0.7 0.4,-1 0.6,-1.6 2.3,-0.1 5.5,-1.1 7.8,-0.2 v -2.2 c -1.3,0.2 -2.7,-0.2 -3.6,-1.1 -0.1,-0.7 0.4,-1 0.6,-1.5 0.9,0.3 2,0 3,-0.1 V 346 h -3 l -0.6,-1.1 c -0.1,-0.7 0.4,-1 0.6,-1.5 h 3 v -23.7 c -2.3,0.1 -4.6,0.4 -6.9,1 V 319 c 2.1,-1 4.5,-1.2 6.9,-1.2 v -4.7 c -5.7,-0.3 -11.3,-0.9 -16.6,-1.4 -1.3,-0.7 -3.3,-0.6 -4.2,-2 0.5,-0.8 1.1,-1 1.8,-1 m 17.1,17.6 v 4.7 c -2.2,-0.3 -4.9,0.7 -6.8,-0.8 1,-3.4 4.6,-3.2 6.8,-3.9 m -25.8,-3.2 h 4.2 v 1.5 h -4.2 z m 6.7,6.1 c -1.7,1.3 -4.1,1.9 -6.1,2.2 l -1.2,-4 c 2.4,-0.2 6.5,-1.3 7.3,1.8 m -9.3,34.5 h 5.5 v 1.5 h -5.5 z m 23.9,19 c -1.9,4.4 -5.4,1.2 -7.8,0 -2,-0.8 -3.6,5 -5.5,0.8 -0.1,-1 0.4,-1.4 0.6,-2.2 4.5,-3 9,-0.6 12.7,1.4 m -4.5,-36.1 h -8 v -2.9 h 8 z m -1.5,11.2 v 4.3 c -1.4,-0.2 -3.2,0.7 -4.2,-0.7 0.2,-3.3 2.8,-3.1 4.2,-3.6 M 334,323.6 c 1.1,0.8 3.6,0.9 2.3,4.1 -1.4,1.3 -2.5,-2 -3.8,-2.5 z m -0.2,-6 -2.3,2.6 c -0.9,0 -2.5,-2.8 -2.8,-3.9 0.7,-0.8 4.7,0.3 5.1,1.3 m 4.2,50.5 v 3.7 c -4.9,1.7 -9.5,7.1 -14.9,4.7 v -3.4 c 2.2,-1 4.6,2 6.5,-2.7 2.9,0.4 5.4,-4 8.4,-2.3 m -9.1,-29.9 c -2.8,0.7 -6.3,1.3 -8.8,-0.4 1.3,-2.8 4.3,-1.1 6.4,-1.6 0.8,1 2.3,-0.1 2.4,2"
   id="path34" />
	<path
   class="st0"
   d="m 189.1,309.1 c 13.5,0 28.4,-1.2 42.1,-0.2 v -5.2 h -68.5 c -0.1,2.1 0,5.5 0,5.5 8.5,-1.3 19.2,-0.1 26.4,-0.1"
   id="path35" />
	<path
   class="st0"
   d="m 178.6,334 c -3.8,0 -8,-3.7 -11.9,-5 h -1.9 l -1.9,0.4 -0.1,58.1 h 68.5 v -58.8 c -17.9,-2 -33.5,6.7 -52.7,5.3"
   id="path36" />
	<path
   class="st0"
   d="m 436.1,348.5 c -4,-9.7 5.1,-42 -9.6,-44.7 -1.6,-0.2 -3,0.4 -4.2,1.5 2.6,1.8 4.5,4.6 5,7.7 -3.4,7.6 -10.6,-1.7 -15.5,0.8 v 6.2 c -2,1.7 -3.5,3.9 -6.3,3.1 -1.7,-2 -4,-3.4 -3.2,-6.1 1.8,-3.7 5.7,-2.3 8.3,-4 -0.1,-0.1 -0.1,-0.2 -0.2,-0.3 -4.9,-1.2 -4.3,-8.8 -12.5,-8.8 h -15.8 c -7.3,2.3 -16.4,6.5 -24.8,0.1 l 1.6,10.4 1.1,3.6 v 3.1 l 3.7,3.2 -3.9,3.3 1.3,8 c 2.9,0.9 6.1,1 6.2,3.7 -0.5,4.4 -3.8,9.4 -3.9,13.9 -0.2,5.6 2.9,28.7 2.8,34.3 3,-0.3 17.5,-0.9 20.4,-2.4 0,0.1 4,2.2 4,2.4 5.1,0.5 11.9,1.8 10.2,-7.1 l -3.7,-23.7 c -4.4,-12.1 3.7,-15.1 6.4,-15.3 l 2.1,1.9 c -0.8,2.4 -1.1,4.7 -1.4,7 0.5,0.9 1,1.9 0.7,3.4 0.2,1.4 -0.2,2.3 -0.7,2.8 0.9,11 6.1,20.6 6.2,31.1 l 13.8,-0.1 5,-3.9 -1.1,-9.8 0.6,-9.2 -0.3,-17.1 c 2.1,0.5 4.2,1.1 6.6,2 z m -68.7,-27 c -2.8,-2.4 -4.5,-5.1 -3.8,-8.8 1.7,-4.1 7.5,-2.7 10,-1 1.8,2.7 5.2,5.9 0.1,7.3 0.5,6.6 -4.3,5.5 -6.3,2.5 m 15.5,54 v -5.2 l -4,-3.7 -1.7,-5.6 c -1.9,-8.6 0.3,-18.5 1.8,-21.7 -0.1,0.1 -0.1,0.1 -0.1,0.1 -1.4,-0.4 -3.7,0.8 -4.6,-1 1.3,-2.1 -0.6,-5.4 1.6,-7.2 1.6,-0.3 5.5,-0.2 6.5,0.9 -0.1,1.7 -0.2,4.2 -1.8,6 1.6,-0.3 3.4,-0.1 4.7,1.2 -0.4,16.4 1.2,27.4 2.5,42.4 z m 9.6,-56.4 c 0.8,3.4 -3.8,4 -5.5,4.2 -1.9,-1 -4.4,-4.8 -3.1,-8 1.3,-1.3 2.4,-3 4.8,-2.3 1.2,2.1 4.9,3.1 3.8,6.1 m 8.4,11.8 c -0.6,2.4 -3.6,5.2 -7.3,4.5 -1.9,-1.4 -1.3,-4.1 -1.7,-6.1 0.4,-1.4 4.6,-2.5 6.3,-2.1 0.7,1 3.3,2.3 2.7,3.7 m 5.8,4.4 c 0.9,-1.1 3.9,-2.7 5.5,-2.5 1.7,0.7 2.9,3.9 2.1,6.2 -0.2,1.8 -2.1,1.4 -3.6,1.4 -2,-0.6 -4.6,-2.7 -4,-5.1 m 10.2,37.5 c -1.7,1.9 -1.2,10.5 -5.4,6.1 -4.4,-11.6 1.6,-19.5 2.5,-29.8 2.6,-2.8 5.4,-3.8 7,-3.1 0.4,0.1 2.5,5.2 2.9,5.3 0.5,7.1 -3.8,7.4 0.3,19.2 -0.9,1.8 -6,0.8 -7.3,2.3 m 9.7,-30.5 c -1.6,-0.1 -5.1,-0.5 -5.4,-2.7 -0.4,-2.5 -0.5,-5.9 4.9,-4.9 4.1,1.1 5.7,6.6 0.5,7.6"
   id="path37" />
	<path
   class="st1"
   d="m 345.5,213.9 c 2,-0.1 6.9,-0.2 9.8,0.1 5.4,0.4 7.7,3.5 7.7,7.3 0,5 -4,8.6 -10.8,9.2 -2.3,0.2 -5,0.2 -6.8,0 v -16.6 z m 0,18.8 c 1.7,0 6.1,0.4 9.2,-0.1 9.6,-1.6 14.6,-4.7 14.6,-11.6 0,-6.9 -4.3,-9.3 -17.6,-9.3 h -12.2 v 38.8 c 0.9,-0.1 2,-0.1 3,-0.1 0.9,0 1.9,0.1 3,0.1 z"
   id="path38" />
	<path
   class="st1"
   d="m 388.2,237.7 c 0,1.6 0.1,2.6 -0.1,4.2 -0.5,3.5 -3.3,7.5 -7.9,7.7 -3.9,0.2 -5.7,-2.8 -5.4,-5.6 0.7,-6.3 3.1,-5.5 10.6,-7.8 l 2.9,-0.9 v 2.4 z m 0,-3.9 -1.1,0.4 c -2.5,1 -2.4,0.9 -7,1.8 -5.4,1.2 -10.9,1.8 -11.2,8 -0.1,3.9 3.9,6.8 8.4,7 4.5,0.2 9,-1.7 10.4,-5.4 v 4.7 h 9 v -1 h -3.1 v -17.1 c 0,-4.5 -0.8,-8.7 -10.5,-9.2 -2.6,-0.1 -3.3,0.1 -5.2,0.4 -2.2,0.3 -4.3,1 -5.7,1.5 v 8.2 h 1.3 l 1.6,-3.4 c 1.4,-2.9 2.6,-6.1 7.4,-5.7 4.8,0.4 5.6,3.1 5.6,5.9 v 3.9 z"
   id="path39" />
	<path
   class="st1"
   d="m 413.5,250.3 h -13.3 v -1 h 3.3 v -24.5 h -3.4 v -1.1 h 8.6 v 5.6 c 0.4,-2 3.5,-5.7 8.3,-5.7 1.4,0 2.6,0.3 4,0.9 v 9.7 h -1.4 l -1.8,-4.5 c -1.2,-3.1 -2.2,-5.1 -4.1,-4.2 -5,2.4 -4.6,8.1 -4.6,13.5 v 10.3 h 4.3 v 1 z"
   id="path40" />
	<path
   class="st1"
   d="m 424.7,250.4 v -1 h 3.4 v -24.5 h -3.2 v -1.1 h 8.9 v 25.6 h 3 v 1 z m 9.3,-32.8 c 0,1.7 -1.7,2.9 -3.6,2.9 -1.8,0 -3.5,-1.3 -3.5,-2.9 0,-1.5 1.6,-3 3.5,-3 1.9,0 3.6,1.4 3.6,3"
   id="path41" />
	<path
   class="st1"
   d="m 458.7,230 c -1.4,-4.2 -2.8,-5.8 -6.6,-5.8 -3.3,0 -7.5,1.1 -7.8,4.5 -0.2,3 3.5,4.2 6.9,5.1 5.7,1.6 12.4,3.4 12.2,8.7 -0.1,5.1 -5.2,8.8 -12.1,8.7 -4,-0.1 -8.4,-1.3 -10,-2.3 v -8.7 h 1.3 l 1.5,4.4 c 1.7,5 3.6,5 6.6,5.3 4.2,0.4 9,-1.3 9.3,-4.8 0.5,-4.2 -6.2,-5.3 -10.5,-6.6 -3,-0.9 -8.9,-2.6 -8.9,-7.6 0,-5.9 7.6,-7.8 11.7,-7.8 3.4,0 7.3,1.1 8.7,1.8 v 8 h -1.4 z"
   id="path42" />
	<path
   class="st2"
   d="m 209.7,164.4 h -12.4 v 35.5 c 0,1.6 -1.3,2.8 -2.8,2.8 h -1.3 c -1.6,0 -2.8,-1.2 -2.8,-2.8 V 164.4 H 178 c -1.6,0 -2.9,-1 -2.9,-2.6 v -1 c 0,-1.6 1.3,-2.6 2.8,-2.6 h 31.7 c 1.6,0 2.9,1 2.9,2.6 v 1 c 0,1.6 -1.3,2.6 -2.8,2.6"
   id="path43" />
	<path
   class="st2"
   d="m 249.8,202.7 h -29 c -1.5,0 -2.6,-1.1 -2.6,-2.6 v -39.3 c 0,-1.6 1.2,-2.6 2.7,-2.6 h 27.6 c 1.6,0 2.8,1 2.8,2.6 v 1 c 0,1.6 -1.2,2.6 -2.8,2.6 h -23.3 v 13 h 21.4 c 1.6,0 2.8,1 2.8,2.6 v 1 c 0,1.6 -1.2,2.6 -2.8,2.6 h -21.4 v 12.7 h 24.6 c 1.6,0 2.8,1 2.8,2.6 v 1 c 0,1.8 -1.2,2.8 -2.8,2.8"
   id="path44" />
	<path
   class="st2"
   d="m 289,202.7 h -29.3 v -41.8 c 0,-1.6 1.2,-2.8 2.8,-2.8 h 1.3 c 1.5,0 2.8,1.2 2.8,2.8 v 35.5 H 289 c 1.6,0 2.8,1 2.8,2.6 v 1 c 0,1.7 -1.2,2.7 -2.8,2.7"
   id="path45" />
	<path
   class="st2"
   d="m 328.1,202.7 h -29 c -1.5,0 -2.6,-1.1 -2.6,-2.6 v -39.3 c 0,-1.6 1.2,-2.6 2.7,-2.6 h 27.6 c 1.6,0 2.8,1 2.8,2.6 v 1 c 0,1.6 -1.2,2.6 -2.8,2.6 h -23.3 v 13 h 21.4 c 1.6,0 2.8,1 2.8,2.6 v 1 c 0,1.6 -1.2,2.6 -2.8,2.6 h -21.4 v 12.7 h 24.6 c 1.6,0 2.8,1 2.8,2.6 v 1 c 0,1.8 -1.2,2.8 -2.8,2.8"
   id="path46" />
	<path
   class="st2"
   d="m 366.8,202.7 h -18.4 c -5.8,0 -10.3,-5 -10.3,-10.7 v -23.4 c 0,-5.7 4.9,-10.4 10.7,-10.4 h 16.9 c 1.6,0 2.8,1 2.8,2.6 v 1 c 0,1.6 -1.2,2.6 -2.8,2.6 h -14.5 c -4.5,0 -6.2,2.6 -6.2,6.1 v 20 c 0,4.4 2.8,5.8 6.3,5.8 h 15.5 c 1.6,0 2.8,1 2.8,2.6 v 1 c 0,1.8 -1.2,2.8 -2.8,2.8"
   id="path47" />
	<path
   class="st2"
   d="m 402.1,202.7 h -15.3 c -5.8,0 -10.4,-4.8 -10.4,-10.5 v -23.7 c 0,-5.7 5,-10.3 10.8,-10.3 h 14.6 c 5.8,0 10.8,4.6 10.8,10.3 v 23.7 c -0.1,5.7 -4.8,10.5 -10.5,10.5 m 3.5,-33.1 c 0,-2.8 -2.4,-5.2 -5.2,-5.2 h -11.9 c -2.9,0 -5.2,2.4 -5.2,5.2 v 21.6 c 0,2.9 2.3,5.2 5.1,5.2 h 12 c 2.8,0 5.2,-2.3 5.2,-5.2 z"
   id="path48" />
	<path
   class="st2"
   d="m 459.9,202.7 h -1.3 c -1.5,0 -2.8,-1.2 -2.8,-2.8 v -29.7 l -9.4,13.2 c -0.8,1.1 -1.6,2.1 -3,2.1 h -0.9 c -1.4,0 -2.2,-0.9 -3,-2.1 l -9.4,-13.2 v 29.7 c 0,1.6 -1.3,2.8 -2.8,2.8 H 426 c -1.6,0 -2.8,-1.2 -2.8,-2.8 v -39.1 c 0,-1.5 1,-2.6 2.6,-2.6 h 1.7 c 1.2,0 2.3,1.1 2.9,2.1 l 12.6,17.8 12.7,-17.8 c 0.7,-0.9 1.6,-2.1 2.8,-2.1 h 1.7 c 1.6,0 2.6,1.1 2.6,2.6 v 39.1 c -0.1,1.6 -1.3,2.8 -2.9,2.8"
   id="path49" />
</g>
</svg>
